%TF.GenerationSoftware,KiCad,Pcbnew,(6.0.0)*%
%TF.CreationDate,2022-01-01T14:13:38+04:00*%
%TF.ProjectId,bottom plate,626f7474-6f6d-4207-906c-6174652e6b69,rev?*%
%TF.SameCoordinates,Original*%
%TF.FileFunction,Copper,L1,Top*%
%TF.FilePolarity,Positive*%
%FSLAX46Y46*%
G04 Gerber Fmt 4.6, Leading zero omitted, Abs format (unit mm)*
G04 Created by KiCad (PCBNEW (6.0.0)) date 2022-01-01 14:13:38*
%MOMM*%
%LPD*%
G01*
G04 APERTURE LIST*
%TA.AperFunction,ComponentPad*%
%ADD10C,4.200000*%
%TD*%
G04 APERTURE END LIST*
D10*
%TO.P,,*%
%TO.N,*%
X193110000Y-122980001D03*
%TD*%
%TO.P,,*%
%TO.N,*%
X140329663Y-73904498D03*
%TD*%
%TO.P,,*%
%TO.N,*%
X102300001Y-102920001D03*
%TD*%
%TO.P,,*%
%TO.N,*%
X178570000Y-73810000D03*
%TD*%
%TO.P,,*%
%TO.N,*%
X144580002Y-115859999D03*
%TD*%
%TO.P,,*%
%TO.N,*%
X102300000Y-83960000D03*
%TD*%
%TA.AperFunction,NonConductor*%
G36*
X158988788Y-52277495D02*
G01*
X159035281Y-52331151D01*
X159046667Y-52383493D01*
X159046665Y-53096284D01*
X159044919Y-53117189D01*
X159041594Y-53136952D01*
X159041441Y-53149491D01*
X159042131Y-53154308D01*
X159044481Y-53170721D01*
X159045274Y-53177601D01*
X159058186Y-53325198D01*
X159103836Y-53495566D01*
X159106157Y-53500543D01*
X159106159Y-53500549D01*
X159172853Y-53643575D01*
X159178376Y-53655419D01*
X159279541Y-53799899D01*
X159404259Y-53924617D01*
X159548740Y-54025783D01*
X159553718Y-54028104D01*
X159553721Y-54028106D01*
X159703610Y-54098001D01*
X159708592Y-54100324D01*
X159713900Y-54101746D01*
X159713902Y-54101747D01*
X159800081Y-54124838D01*
X159878960Y-54145973D01*
X159884446Y-54146453D01*
X159884452Y-54146454D01*
X160008445Y-54157303D01*
X160018355Y-54158567D01*
X160042128Y-54162566D01*
X160048509Y-54162644D01*
X160049808Y-54162660D01*
X160049812Y-54162660D01*
X160054667Y-54162719D01*
X160082255Y-54158768D01*
X160100117Y-54157495D01*
X161651162Y-54157495D01*
X177970661Y-54157496D01*
X178038782Y-54177498D01*
X178085275Y-54231154D01*
X178096661Y-54283496D01*
X178096663Y-55576299D01*
X178094917Y-55597201D01*
X178091592Y-55616967D01*
X178091439Y-55629506D01*
X178094482Y-55650752D01*
X178095271Y-55657596D01*
X178108188Y-55805210D01*
X178153840Y-55975575D01*
X178156166Y-55980562D01*
X178156167Y-55980566D01*
X178226054Y-56130435D01*
X178226057Y-56130440D01*
X178228381Y-56135424D01*
X178231534Y-56139927D01*
X178231537Y-56139932D01*
X178263234Y-56185199D01*
X178329547Y-56279902D01*
X178454264Y-56404617D01*
X178598742Y-56505782D01*
X178603724Y-56508105D01*
X178603729Y-56508108D01*
X178753607Y-56577998D01*
X178753613Y-56578000D01*
X178758592Y-56580322D01*
X178763904Y-56581745D01*
X178763903Y-56581745D01*
X178923642Y-56624548D01*
X178923644Y-56624548D01*
X178928957Y-56625972D01*
X178958316Y-56628541D01*
X179058428Y-56637301D01*
X179068349Y-56638567D01*
X179092122Y-56642567D01*
X179098591Y-56642646D01*
X179099801Y-56642661D01*
X179099805Y-56642661D01*
X179104661Y-56642720D01*
X179132178Y-56638779D01*
X179150060Y-56637507D01*
X194238089Y-56641570D01*
X197460133Y-56642438D01*
X197475598Y-56643395D01*
X197479923Y-56643931D01*
X197509370Y-56647581D01*
X197525816Y-56644908D01*
X197550166Y-56643344D01*
X197568018Y-56643931D01*
X197584063Y-56645491D01*
X197627974Y-56652618D01*
X197643685Y-56656212D01*
X197653910Y-56659251D01*
X197676181Y-56668618D01*
X197678561Y-56669528D01*
X197686404Y-56673888D01*
X197730515Y-56683886D01*
X197741236Y-56686819D01*
X217247231Y-62959453D01*
X217257582Y-62963289D01*
X217299432Y-62980924D01*
X217308351Y-62981948D01*
X217308359Y-62981950D01*
X217308676Y-62981986D01*
X217338084Y-62989014D01*
X217393248Y-63009456D01*
X217418089Y-63021931D01*
X217483708Y-63064543D01*
X217505211Y-63082164D01*
X217559886Y-63138126D01*
X217576997Y-63160027D01*
X217618076Y-63226624D01*
X217629969Y-63251745D01*
X217655442Y-63325722D01*
X217661538Y-63352843D01*
X217667296Y-63404710D01*
X217666944Y-63420373D01*
X217668019Y-63420386D01*
X217667910Y-63429362D01*
X217666528Y-63438235D01*
X217668986Y-63457030D01*
X217670650Y-63469753D01*
X217671714Y-63486092D01*
X217671714Y-121201347D01*
X217669972Y-121222229D01*
X217668434Y-121231383D01*
X217666641Y-121242050D01*
X217667697Y-121250960D01*
X217667697Y-121250969D01*
X217668015Y-121253649D01*
X217668180Y-121281844D01*
X217662215Y-121337754D01*
X217657491Y-121360991D01*
X217634837Y-121435597D01*
X217625840Y-121457542D01*
X217602882Y-121501284D01*
X217593640Y-121514574D01*
X217594140Y-121514909D01*
X217589147Y-121522369D01*
X217583148Y-121529045D01*
X217579265Y-121537134D01*
X217563945Y-121569048D01*
X217558527Y-121579132D01*
X216946362Y-122603994D01*
X216720441Y-122982222D01*
X216703251Y-123011000D01*
X216701243Y-123014139D01*
X216699183Y-123016703D01*
X216696750Y-123020928D01*
X216681957Y-123046617D01*
X216680940Y-123048351D01*
X216664837Y-123075311D01*
X216663571Y-123078336D01*
X216661757Y-123081697D01*
X204299841Y-144549697D01*
X204292462Y-144559753D01*
X204292812Y-144559993D01*
X204287735Y-144567392D01*
X204281658Y-144574000D01*
X204277681Y-144582046D01*
X204277678Y-144582050D01*
X204276759Y-144583909D01*
X204261180Y-144608039D01*
X204180784Y-144705942D01*
X204163266Y-144723441D01*
X204048931Y-144817124D01*
X204028336Y-144830855D01*
X203897881Y-144900372D01*
X203874995Y-144909810D01*
X203733467Y-144952471D01*
X203709174Y-144957253D01*
X203562034Y-144971411D01*
X203537281Y-144971349D01*
X203433442Y-144960835D01*
X203390217Y-144956458D01*
X203365947Y-144951555D01*
X203224638Y-144908192D01*
X203201794Y-144898637D01*
X203096264Y-144841726D01*
X203083218Y-144832391D01*
X203082808Y-144832983D01*
X203075427Y-144827876D01*
X203068842Y-144821773D01*
X203060809Y-144817763D01*
X203060807Y-144817762D01*
X203020294Y-144797540D01*
X203013591Y-144793937D01*
X186758215Y-135411815D01*
X186741545Y-135400314D01*
X186741101Y-135399952D01*
X186737573Y-135396588D01*
X186727274Y-135389434D01*
X186721938Y-135386839D01*
X186709782Y-135380927D01*
X186701255Y-135376368D01*
X186552756Y-135289476D01*
X186552748Y-135289472D01*
X186549195Y-135287393D01*
X186360156Y-135207798D01*
X186204475Y-135165109D01*
X186192389Y-135161127D01*
X186179514Y-135156150D01*
X186179511Y-135156149D01*
X186174973Y-135154395D01*
X186168521Y-135152990D01*
X186167470Y-135152761D01*
X186167468Y-135152761D01*
X186162721Y-135151727D01*
X186154039Y-135151206D01*
X186128953Y-135147133D01*
X168880385Y-130522372D01*
X168861779Y-130515067D01*
X168861562Y-130515568D01*
X168857090Y-130513630D01*
X168852790Y-130511356D01*
X168847808Y-130509639D01*
X168845536Y-130508856D01*
X168845531Y-130508855D01*
X168840935Y-130507271D01*
X168810995Y-130501903D01*
X168799624Y-130499316D01*
X168797138Y-130498628D01*
X168696267Y-130470710D01*
X168693195Y-130470180D01*
X168693189Y-130470179D01*
X168614128Y-130456548D01*
X168549422Y-130445392D01*
X168519708Y-130443265D01*
X168452919Y-130438484D01*
X168438305Y-130436574D01*
X168418186Y-130432736D01*
X168418178Y-130432735D01*
X168413397Y-130431823D01*
X168408531Y-130431657D01*
X168408529Y-130431657D01*
X168407702Y-130431629D01*
X168400864Y-130431396D01*
X168366247Y-130435585D01*
X168351110Y-130436498D01*
X150249098Y-130436498D01*
X150229672Y-130434992D01*
X150229397Y-130434949D01*
X150227722Y-130434688D01*
X150214967Y-130432697D01*
X150214964Y-130432697D01*
X150206101Y-130431314D01*
X150197200Y-130432475D01*
X150197199Y-130432475D01*
X150190846Y-130433303D01*
X150165538Y-130434038D01*
X150138698Y-130432113D01*
X150120937Y-130429558D01*
X150069839Y-130418446D01*
X150052621Y-130413394D01*
X150034065Y-130406480D01*
X150017974Y-130398317D01*
X150010545Y-130394818D01*
X150003047Y-130389880D01*
X149994465Y-130387245D01*
X149994463Y-130387244D01*
X149950807Y-130373840D01*
X149943754Y-130371445D01*
X130063976Y-122952635D01*
X190496875Y-122952635D01*
X190498348Y-122982222D01*
X190506100Y-123137923D01*
X190512514Y-123266766D01*
X190513155Y-123270497D01*
X190513156Y-123270505D01*
X190565133Y-123572998D01*
X190565135Y-123573006D01*
X190565777Y-123576743D01*
X190566865Y-123580382D01*
X190566866Y-123580385D01*
X190586211Y-123645068D01*
X190655895Y-123878076D01*
X190781561Y-124166400D01*
X190940955Y-124437538D01*
X190943256Y-124440553D01*
X191129469Y-124684551D01*
X191129474Y-124684556D01*
X191131769Y-124687564D01*
X191351238Y-124912855D01*
X191418642Y-124967146D01*
X191593230Y-125107770D01*
X191593235Y-125107774D01*
X191596183Y-125110148D01*
X191599403Y-125112156D01*
X191859829Y-125274574D01*
X191859836Y-125274578D01*
X191863056Y-125276586D01*
X192147992Y-125409756D01*
X192151602Y-125410939D01*
X192151606Y-125410941D01*
X192239762Y-125439840D01*
X192446862Y-125507731D01*
X192755339Y-125569091D01*
X192759111Y-125569378D01*
X192759119Y-125569379D01*
X193065176Y-125592660D01*
X193065181Y-125592660D01*
X193068953Y-125592947D01*
X193383161Y-125578953D01*
X193386899Y-125578331D01*
X193386907Y-125578330D01*
X193537897Y-125553198D01*
X193693412Y-125527313D01*
X193995213Y-125438775D01*
X194284191Y-125314620D01*
X194287468Y-125312716D01*
X194287475Y-125312713D01*
X194445231Y-125221080D01*
X194556160Y-125156647D01*
X194645099Y-125089505D01*
X194804156Y-124969431D01*
X194804162Y-124969426D01*
X194807182Y-124967146D01*
X195033619Y-124748859D01*
X195232192Y-124504951D01*
X195400024Y-124238952D01*
X195534685Y-123954718D01*
X195634223Y-123656365D01*
X195697197Y-123348214D01*
X195722695Y-123034729D01*
X195723268Y-122980001D01*
X195712881Y-122807699D01*
X195704569Y-122669829D01*
X195704569Y-122669825D01*
X195704341Y-122666051D01*
X195703661Y-122662327D01*
X195648514Y-122360371D01*
X195648513Y-122360367D01*
X195647834Y-122356649D01*
X195554566Y-122056277D01*
X195425887Y-121769284D01*
X195263663Y-121499830D01*
X195261336Y-121496846D01*
X195261331Y-121496839D01*
X195072572Y-121254804D01*
X195072566Y-121254797D01*
X195070241Y-121251816D01*
X194848425Y-121028835D01*
X194601428Y-120834118D01*
X194332826Y-120670485D01*
X194179943Y-120600973D01*
X194049963Y-120541874D01*
X194049955Y-120541871D01*
X194046511Y-120540305D01*
X193746631Y-120445465D01*
X193609363Y-120419652D01*
X193441253Y-120388039D01*
X193441248Y-120388038D01*
X193437529Y-120387339D01*
X193123683Y-120366769D01*
X193119903Y-120366977D01*
X193119902Y-120366977D01*
X193028331Y-120372017D01*
X192809638Y-120384052D01*
X192805911Y-120384713D01*
X192805907Y-120384713D01*
X192696248Y-120404148D01*
X192499945Y-120438938D01*
X192496329Y-120440040D01*
X192496321Y-120440042D01*
X192202712Y-120529527D01*
X192202705Y-120529530D01*
X192199088Y-120530632D01*
X191911426Y-120657806D01*
X191908172Y-120659742D01*
X191908166Y-120659745D01*
X191644384Y-120816679D01*
X191641125Y-120818618D01*
X191638124Y-120820933D01*
X191638120Y-120820936D01*
X191633271Y-120824677D01*
X191392102Y-121010738D01*
X191389403Y-121013394D01*
X191389404Y-121013394D01*
X191198475Y-121201347D01*
X191167963Y-121231383D01*
X191127753Y-121281844D01*
X190974321Y-121474389D01*
X190974315Y-121474398D01*
X190971956Y-121477358D01*
X190806918Y-121745099D01*
X190675241Y-122030728D01*
X190578833Y-122330108D01*
X190578114Y-122333824D01*
X190578112Y-122333832D01*
X190519808Y-122635182D01*
X190519807Y-122635191D01*
X190519089Y-122638901D01*
X190518822Y-122642677D01*
X190518821Y-122642682D01*
X190507137Y-122807699D01*
X190496875Y-122952635D01*
X130063976Y-122952635D01*
X121657026Y-119815298D01*
X121647560Y-119811317D01*
X121604715Y-119791201D01*
X121577354Y-119786941D01*
X121551760Y-119782956D01*
X121544293Y-119781562D01*
X121491936Y-119770131D01*
X121482979Y-119770755D01*
X121440778Y-119773695D01*
X121432021Y-119774000D01*
X116005515Y-119773999D01*
X102957880Y-119773997D01*
X102936974Y-119772251D01*
X102922003Y-119769732D01*
X102922002Y-119769732D01*
X102917212Y-119768926D01*
X102911110Y-119768852D01*
X102909537Y-119768832D01*
X102909532Y-119768832D01*
X102904673Y-119768773D01*
X102899855Y-119769463D01*
X102899854Y-119769463D01*
X102883441Y-119771813D01*
X102876561Y-119772606D01*
X102829188Y-119776750D01*
X102728965Y-119785517D01*
X102723653Y-119786940D01*
X102723649Y-119786941D01*
X102563909Y-119829741D01*
X102563904Y-119829743D01*
X102558596Y-119831165D01*
X102553613Y-119833489D01*
X102553609Y-119833490D01*
X102478669Y-119868435D01*
X102398742Y-119905704D01*
X102394240Y-119908856D01*
X102394237Y-119908858D01*
X102258764Y-120003716D01*
X102254260Y-120006870D01*
X102129541Y-120131588D01*
X102126386Y-120136094D01*
X102031530Y-120271560D01*
X102031527Y-120271565D01*
X102028374Y-120276068D01*
X101953832Y-120435921D01*
X101908182Y-120606290D01*
X101896142Y-120743904D01*
X101895126Y-120752263D01*
X101891473Y-120775727D01*
X101892637Y-120784629D01*
X101892637Y-120784632D01*
X101895595Y-120807249D01*
X101896659Y-120823586D01*
X101896663Y-122360371D01*
X101896663Y-122497997D01*
X101876661Y-122566117D01*
X101823006Y-122612611D01*
X101770663Y-122623997D01*
X92597569Y-122623996D01*
X83988665Y-122623996D01*
X83920544Y-122603994D01*
X83874051Y-122550338D01*
X83862665Y-122497996D01*
X83862666Y-120281057D01*
X83862666Y-117975200D01*
X83864412Y-117954296D01*
X83866930Y-117939328D01*
X83867737Y-117934532D01*
X83867890Y-117921993D01*
X83867201Y-117917186D01*
X83867201Y-117917179D01*
X83864851Y-117900774D01*
X83864057Y-117893892D01*
X83851622Y-117751767D01*
X83851143Y-117746287D01*
X83837968Y-117697118D01*
X83806917Y-117581231D01*
X83806916Y-117581229D01*
X83805494Y-117575921D01*
X83730953Y-117416069D01*
X83629788Y-117271590D01*
X83505070Y-117146872D01*
X83360591Y-117045707D01*
X83355613Y-117043386D01*
X83355610Y-117043384D01*
X83205721Y-116973489D01*
X83205719Y-116973488D01*
X83200739Y-116971166D01*
X83195431Y-116969744D01*
X83195429Y-116969743D01*
X83035688Y-116926941D01*
X83035687Y-116926941D01*
X83030373Y-116925517D01*
X83024887Y-116925037D01*
X83024881Y-116925036D01*
X82900898Y-116914188D01*
X82890975Y-116912922D01*
X82871999Y-116909729D01*
X82871994Y-116909729D01*
X82867206Y-116908923D01*
X82860907Y-116908846D01*
X82859526Y-116908829D01*
X82859522Y-116908829D01*
X82854667Y-116908770D01*
X82827079Y-116912721D01*
X82809216Y-116913994D01*
X81258216Y-116913994D01*
X64938664Y-116913995D01*
X64870543Y-116893993D01*
X64824050Y-116840337D01*
X64812664Y-116787995D01*
X64812664Y-115832633D01*
X141966877Y-115832633D01*
X141982516Y-116146764D01*
X141983157Y-116150495D01*
X141983158Y-116150503D01*
X142035135Y-116452996D01*
X142035137Y-116453004D01*
X142035779Y-116456741D01*
X142125897Y-116758074D01*
X142251563Y-117046398D01*
X142253486Y-117049669D01*
X142253488Y-117049673D01*
X142292199Y-117115522D01*
X142410957Y-117317536D01*
X142413258Y-117320551D01*
X142599471Y-117564549D01*
X142599476Y-117564554D01*
X142601771Y-117567562D01*
X142821240Y-117792853D01*
X142888644Y-117847144D01*
X143063232Y-117987768D01*
X143063237Y-117987772D01*
X143066185Y-117990146D01*
X143069405Y-117992154D01*
X143329831Y-118154572D01*
X143329838Y-118154576D01*
X143333058Y-118156584D01*
X143617994Y-118289754D01*
X143621604Y-118290937D01*
X143621608Y-118290939D01*
X143709764Y-118319838D01*
X143916864Y-118387729D01*
X144225341Y-118449089D01*
X144229113Y-118449376D01*
X144229121Y-118449377D01*
X144535178Y-118472658D01*
X144535183Y-118472658D01*
X144538955Y-118472945D01*
X144853163Y-118458951D01*
X144856901Y-118458329D01*
X144856909Y-118458328D01*
X145007899Y-118433196D01*
X145163414Y-118407311D01*
X145465215Y-118318773D01*
X145754193Y-118194618D01*
X145757470Y-118192714D01*
X145757477Y-118192711D01*
X145915233Y-118101078D01*
X146026162Y-118036645D01*
X146160516Y-117935219D01*
X146274158Y-117849429D01*
X146274164Y-117849424D01*
X146277184Y-117847144D01*
X146503621Y-117628857D01*
X146702194Y-117384949D01*
X146870026Y-117118950D01*
X147004687Y-116834716D01*
X147104225Y-116536363D01*
X147167199Y-116228212D01*
X147192697Y-115914727D01*
X147193270Y-115859999D01*
X147174343Y-115546049D01*
X147117836Y-115236647D01*
X147024568Y-114936275D01*
X146895889Y-114649282D01*
X146733665Y-114379828D01*
X146731338Y-114376844D01*
X146731333Y-114376837D01*
X146542574Y-114134802D01*
X146542568Y-114134795D01*
X146540243Y-114131814D01*
X146318427Y-113908833D01*
X146071430Y-113714116D01*
X145802828Y-113550483D01*
X145688456Y-113498481D01*
X145519965Y-113421872D01*
X145519957Y-113421869D01*
X145516513Y-113420303D01*
X145216633Y-113325463D01*
X145079365Y-113299650D01*
X144911255Y-113268037D01*
X144911250Y-113268036D01*
X144907531Y-113267337D01*
X144593685Y-113246767D01*
X144589905Y-113246975D01*
X144589904Y-113246975D01*
X144498333Y-113252015D01*
X144279640Y-113264050D01*
X144275913Y-113264711D01*
X144275909Y-113264711D01*
X144166250Y-113284146D01*
X143969947Y-113318936D01*
X143966331Y-113320038D01*
X143966323Y-113320040D01*
X143672714Y-113409525D01*
X143672707Y-113409528D01*
X143669090Y-113410630D01*
X143381428Y-113537804D01*
X143378174Y-113539740D01*
X143378168Y-113539743D01*
X143114386Y-113696677D01*
X143111127Y-113698616D01*
X142862104Y-113890736D01*
X142637965Y-114111381D01*
X142621683Y-114131814D01*
X142444323Y-114354387D01*
X142444317Y-114354396D01*
X142441958Y-114357356D01*
X142276920Y-114625097D01*
X142145243Y-114910726D01*
X142048835Y-115210106D01*
X142048116Y-115213822D01*
X142048114Y-115213830D01*
X141989810Y-115515180D01*
X141989809Y-115515189D01*
X141989091Y-115518899D01*
X141988824Y-115522675D01*
X141988823Y-115522680D01*
X141986901Y-115549827D01*
X141966877Y-115832633D01*
X64812664Y-115832633D01*
X64812664Y-102892635D01*
X99686876Y-102892635D01*
X99702515Y-103206766D01*
X99703156Y-103210497D01*
X99703157Y-103210505D01*
X99755134Y-103512998D01*
X99755136Y-103513006D01*
X99755778Y-103516743D01*
X99845896Y-103818076D01*
X99971562Y-104106400D01*
X100130956Y-104377538D01*
X100133257Y-104380553D01*
X100319470Y-104624551D01*
X100319475Y-104624556D01*
X100321770Y-104627564D01*
X100541239Y-104852855D01*
X100608643Y-104907146D01*
X100783231Y-105047770D01*
X100783236Y-105047774D01*
X100786184Y-105050148D01*
X100789404Y-105052156D01*
X101049830Y-105214574D01*
X101049837Y-105214578D01*
X101053057Y-105216586D01*
X101337993Y-105349756D01*
X101341603Y-105350939D01*
X101341607Y-105350941D01*
X101429763Y-105379840D01*
X101636863Y-105447731D01*
X101945340Y-105509091D01*
X101949112Y-105509378D01*
X101949120Y-105509379D01*
X102255177Y-105532660D01*
X102255182Y-105532660D01*
X102258954Y-105532947D01*
X102573162Y-105518953D01*
X102576900Y-105518331D01*
X102576908Y-105518330D01*
X102727898Y-105493198D01*
X102883413Y-105467313D01*
X103185214Y-105378775D01*
X103474192Y-105254620D01*
X103477469Y-105252716D01*
X103477476Y-105252713D01*
X103635232Y-105161080D01*
X103746161Y-105096647D01*
X103835100Y-105029505D01*
X103994157Y-104909431D01*
X103994163Y-104909426D01*
X103997183Y-104907146D01*
X104223620Y-104688859D01*
X104422193Y-104444951D01*
X104590025Y-104178952D01*
X104724686Y-103894718D01*
X104824224Y-103596365D01*
X104887198Y-103288214D01*
X104912696Y-102974729D01*
X104913269Y-102920001D01*
X104894342Y-102606051D01*
X104837835Y-102296649D01*
X104744567Y-101996277D01*
X104615888Y-101709284D01*
X104453664Y-101439830D01*
X104451337Y-101436846D01*
X104451332Y-101436839D01*
X104262573Y-101194804D01*
X104262567Y-101194797D01*
X104260242Y-101191816D01*
X104038426Y-100968835D01*
X103791429Y-100774118D01*
X103522827Y-100610485D01*
X103408455Y-100558483D01*
X103239964Y-100481874D01*
X103239956Y-100481871D01*
X103236512Y-100480305D01*
X102936632Y-100385465D01*
X102799364Y-100359652D01*
X102631254Y-100328039D01*
X102631249Y-100328038D01*
X102627530Y-100327339D01*
X102313684Y-100306769D01*
X102309904Y-100306977D01*
X102309903Y-100306977D01*
X102218332Y-100312017D01*
X101999639Y-100324052D01*
X101995912Y-100324713D01*
X101995908Y-100324713D01*
X101886249Y-100344148D01*
X101689946Y-100378938D01*
X101686330Y-100380040D01*
X101686322Y-100380042D01*
X101392713Y-100469527D01*
X101392706Y-100469530D01*
X101389089Y-100470632D01*
X101101427Y-100597806D01*
X101098173Y-100599742D01*
X101098167Y-100599745D01*
X100834385Y-100756679D01*
X100831126Y-100758618D01*
X100582103Y-100950738D01*
X100357964Y-101171383D01*
X100341682Y-101191816D01*
X100164322Y-101414389D01*
X100164316Y-101414398D01*
X100161957Y-101417358D01*
X99996919Y-101685099D01*
X99865242Y-101970728D01*
X99768834Y-102270108D01*
X99768115Y-102273824D01*
X99768113Y-102273832D01*
X99709809Y-102575182D01*
X99709808Y-102575191D01*
X99709090Y-102578901D01*
X99708823Y-102582677D01*
X99708822Y-102582682D01*
X99706900Y-102609829D01*
X99686876Y-102892635D01*
X64812664Y-102892635D01*
X64812665Y-83932634D01*
X99686875Y-83932634D01*
X99702514Y-84246765D01*
X99703155Y-84250496D01*
X99703156Y-84250504D01*
X99755133Y-84552997D01*
X99755135Y-84553005D01*
X99755777Y-84556742D01*
X99845895Y-84858075D01*
X99971561Y-85146399D01*
X100130955Y-85417537D01*
X100133256Y-85420552D01*
X100319469Y-85664550D01*
X100319474Y-85664555D01*
X100321769Y-85667563D01*
X100541238Y-85892854D01*
X100608642Y-85947145D01*
X100783230Y-86087769D01*
X100783235Y-86087773D01*
X100786183Y-86090147D01*
X100789403Y-86092155D01*
X101049829Y-86254573D01*
X101049836Y-86254577D01*
X101053056Y-86256585D01*
X101337992Y-86389755D01*
X101341602Y-86390938D01*
X101341606Y-86390940D01*
X101429762Y-86419839D01*
X101636862Y-86487730D01*
X101945339Y-86549090D01*
X101949111Y-86549377D01*
X101949119Y-86549378D01*
X102255176Y-86572659D01*
X102255181Y-86572659D01*
X102258953Y-86572946D01*
X102573161Y-86558952D01*
X102576899Y-86558330D01*
X102576907Y-86558329D01*
X102727897Y-86533197D01*
X102883412Y-86507312D01*
X103185213Y-86418774D01*
X103474191Y-86294619D01*
X103477468Y-86292715D01*
X103477475Y-86292712D01*
X103635231Y-86201079D01*
X103746160Y-86136646D01*
X103835099Y-86069504D01*
X103994156Y-85949430D01*
X103994162Y-85949425D01*
X103997182Y-85947145D01*
X104223619Y-85728858D01*
X104422192Y-85484950D01*
X104590024Y-85218951D01*
X104724685Y-84934717D01*
X104824223Y-84636364D01*
X104887197Y-84328213D01*
X104912695Y-84014728D01*
X104913268Y-83960000D01*
X104894341Y-83646050D01*
X104837834Y-83336648D01*
X104744566Y-83036276D01*
X104615887Y-82749283D01*
X104453663Y-82479829D01*
X104451336Y-82476845D01*
X104451331Y-82476838D01*
X104262572Y-82234803D01*
X104262566Y-82234796D01*
X104260241Y-82231815D01*
X104038425Y-82008834D01*
X103791428Y-81814117D01*
X103522826Y-81650484D01*
X103408454Y-81598482D01*
X103239963Y-81521873D01*
X103239955Y-81521870D01*
X103236511Y-81520304D01*
X102936631Y-81425464D01*
X102799363Y-81399651D01*
X102631253Y-81368038D01*
X102631248Y-81368037D01*
X102627529Y-81367338D01*
X102313683Y-81346768D01*
X102309903Y-81346976D01*
X102309902Y-81346976D01*
X102218331Y-81352016D01*
X101999638Y-81364051D01*
X101995911Y-81364712D01*
X101995907Y-81364712D01*
X101886248Y-81384147D01*
X101689945Y-81418937D01*
X101686329Y-81420039D01*
X101686321Y-81420041D01*
X101392712Y-81509526D01*
X101392705Y-81509529D01*
X101389088Y-81510631D01*
X101101426Y-81637805D01*
X101098172Y-81639741D01*
X101098166Y-81639744D01*
X100834384Y-81796678D01*
X100831125Y-81798617D01*
X100582102Y-81990737D01*
X100357963Y-82211382D01*
X100341681Y-82231815D01*
X100164321Y-82454388D01*
X100164315Y-82454397D01*
X100161956Y-82457357D01*
X99996918Y-82725098D01*
X99865241Y-83010727D01*
X99768833Y-83310107D01*
X99768114Y-83313823D01*
X99768112Y-83313831D01*
X99709808Y-83615181D01*
X99709807Y-83615190D01*
X99709089Y-83618900D01*
X99708822Y-83622676D01*
X99708821Y-83622681D01*
X99706899Y-83649828D01*
X99686875Y-83932634D01*
X64812665Y-83932634D01*
X64812665Y-80005992D01*
X64832667Y-79937871D01*
X64886323Y-79891378D01*
X64938665Y-79879992D01*
X81109181Y-79879994D01*
X82801452Y-79879994D01*
X82822358Y-79881740D01*
X82837329Y-79884259D01*
X82837330Y-79884259D01*
X82842120Y-79885065D01*
X82848222Y-79885139D01*
X82849795Y-79885159D01*
X82849800Y-79885159D01*
X82854659Y-79885218D01*
X82859477Y-79884528D01*
X82859478Y-79884528D01*
X82875891Y-79882178D01*
X82882771Y-79881385D01*
X82930144Y-79877241D01*
X83030367Y-79868474D01*
X83035679Y-79867051D01*
X83035683Y-79867050D01*
X83195423Y-79824249D01*
X83195427Y-79824247D01*
X83200736Y-79822825D01*
X83205719Y-79820501D01*
X83205723Y-79820500D01*
X83355598Y-79750614D01*
X83355600Y-79750613D01*
X83360590Y-79748286D01*
X83505071Y-79647120D01*
X83508954Y-79643237D01*
X83508960Y-79643232D01*
X83629790Y-79522402D01*
X83730957Y-79377921D01*
X83805497Y-79218067D01*
X83851147Y-79047699D01*
X83862474Y-78918218D01*
X83863741Y-78908294D01*
X83866932Y-78889326D01*
X83867739Y-78884530D01*
X83867892Y-78871991D01*
X83863941Y-78844403D01*
X83862668Y-78826541D01*
X83862666Y-73877132D01*
X137716538Y-73877132D01*
X137718011Y-73906719D01*
X137731339Y-74174426D01*
X137732177Y-74191263D01*
X137732818Y-74194994D01*
X137732819Y-74195002D01*
X137784796Y-74497495D01*
X137784798Y-74497503D01*
X137785440Y-74501240D01*
X137786528Y-74504879D01*
X137786529Y-74504882D01*
X137871244Y-74788147D01*
X137875558Y-74802573D01*
X138001224Y-75090897D01*
X138160618Y-75362035D01*
X138162919Y-75365050D01*
X138349132Y-75609048D01*
X138349137Y-75609053D01*
X138351432Y-75612061D01*
X138570901Y-75837352D01*
X138638305Y-75891643D01*
X138812893Y-76032267D01*
X138812898Y-76032271D01*
X138815846Y-76034645D01*
X138819066Y-76036653D01*
X139079492Y-76199071D01*
X139079499Y-76199075D01*
X139082719Y-76201083D01*
X139367655Y-76334253D01*
X139371265Y-76335436D01*
X139371269Y-76335438D01*
X139662928Y-76431049D01*
X139666525Y-76432228D01*
X139975002Y-76493588D01*
X139978774Y-76493875D01*
X139978782Y-76493876D01*
X140284839Y-76517157D01*
X140284844Y-76517157D01*
X140288616Y-76517444D01*
X140602824Y-76503450D01*
X140606562Y-76502828D01*
X140606570Y-76502827D01*
X140757560Y-76477695D01*
X140913075Y-76451810D01*
X141214876Y-76363272D01*
X141503854Y-76239117D01*
X141507131Y-76237213D01*
X141507138Y-76237210D01*
X141735487Y-76104573D01*
X141775823Y-76081144D01*
X141904033Y-75984356D01*
X142023819Y-75893928D01*
X142023825Y-75893923D01*
X142026845Y-75891643D01*
X142253282Y-75673356D01*
X142451855Y-75429448D01*
X142524865Y-75313734D01*
X142617664Y-75166656D01*
X142617667Y-75166650D01*
X142619687Y-75163449D01*
X142754348Y-74879215D01*
X142853886Y-74580862D01*
X142916860Y-74272711D01*
X142942358Y-73959226D01*
X142942931Y-73904498D01*
X142940534Y-73864728D01*
X142935585Y-73782634D01*
X175956875Y-73782634D01*
X175972514Y-74096765D01*
X175973155Y-74100496D01*
X175973156Y-74100504D01*
X176025133Y-74402997D01*
X176025135Y-74403005D01*
X176025777Y-74406742D01*
X176115895Y-74708075D01*
X176241561Y-74996399D01*
X176400955Y-75267537D01*
X176403256Y-75270552D01*
X176589469Y-75514550D01*
X176589474Y-75514555D01*
X176591769Y-75517563D01*
X176811238Y-75742854D01*
X176878642Y-75797145D01*
X177053230Y-75937769D01*
X177053235Y-75937773D01*
X177056183Y-75940147D01*
X177059403Y-75942155D01*
X177319829Y-76104573D01*
X177319836Y-76104577D01*
X177323056Y-76106585D01*
X177607992Y-76239755D01*
X177611602Y-76240938D01*
X177611606Y-76240940D01*
X177899870Y-76335438D01*
X177906862Y-76337730D01*
X178215339Y-76399090D01*
X178219111Y-76399377D01*
X178219119Y-76399378D01*
X178525176Y-76422659D01*
X178525181Y-76422659D01*
X178528953Y-76422946D01*
X178843161Y-76408952D01*
X178846899Y-76408330D01*
X178846907Y-76408329D01*
X178997897Y-76383197D01*
X179153412Y-76357312D01*
X179455213Y-76268774D01*
X179744191Y-76144619D01*
X179747468Y-76142715D01*
X179747475Y-76142712D01*
X179937618Y-76032267D01*
X180016160Y-75986646D01*
X180138979Y-75893928D01*
X180264156Y-75799430D01*
X180264162Y-75799425D01*
X180267182Y-75797145D01*
X180493619Y-75578858D01*
X180692192Y-75334950D01*
X180800401Y-75163449D01*
X180858001Y-75072158D01*
X180858004Y-75072152D01*
X180860024Y-75068951D01*
X180986225Y-74802573D01*
X180993060Y-74788147D01*
X180994685Y-74784717D01*
X181094223Y-74486364D01*
X181157197Y-74178213D01*
X181182695Y-73864728D01*
X181183268Y-73810000D01*
X181169814Y-73586824D01*
X181164569Y-73499828D01*
X181164569Y-73499824D01*
X181164341Y-73496050D01*
X181125772Y-73284868D01*
X181108514Y-73190370D01*
X181108513Y-73190366D01*
X181107834Y-73186648D01*
X181014566Y-72886276D01*
X180885887Y-72599283D01*
X180723663Y-72329829D01*
X180721336Y-72326845D01*
X180721331Y-72326838D01*
X180532572Y-72084803D01*
X180532566Y-72084796D01*
X180530241Y-72081815D01*
X180308425Y-71858834D01*
X180061428Y-71664117D01*
X179792826Y-71500484D01*
X179678454Y-71448482D01*
X179509963Y-71371873D01*
X179509955Y-71371870D01*
X179506511Y-71370304D01*
X179206631Y-71275464D01*
X179069363Y-71249651D01*
X178901253Y-71218038D01*
X178901248Y-71218037D01*
X178897529Y-71217338D01*
X178583683Y-71196768D01*
X178579903Y-71196976D01*
X178579902Y-71196976D01*
X178488331Y-71202016D01*
X178269638Y-71214051D01*
X178265911Y-71214712D01*
X178265907Y-71214712D01*
X178156248Y-71234147D01*
X177959945Y-71268937D01*
X177956329Y-71270039D01*
X177956321Y-71270041D01*
X177662712Y-71359526D01*
X177662705Y-71359529D01*
X177659088Y-71360631D01*
X177371426Y-71487805D01*
X177368172Y-71489741D01*
X177368166Y-71489744D01*
X177104384Y-71646678D01*
X177101125Y-71648617D01*
X176852102Y-71840737D01*
X176849403Y-71843393D01*
X176849404Y-71843393D01*
X176734998Y-71956016D01*
X176627963Y-72061382D01*
X176611681Y-72081815D01*
X176434321Y-72304388D01*
X176434315Y-72304397D01*
X176431956Y-72307357D01*
X176266918Y-72575098D01*
X176135241Y-72860727D01*
X176038833Y-73160107D01*
X176038114Y-73163823D01*
X176038112Y-73163831D01*
X175979808Y-73465181D01*
X175979807Y-73465190D01*
X175979089Y-73468900D01*
X175978822Y-73472676D01*
X175978821Y-73472681D01*
X175970208Y-73594326D01*
X175956875Y-73782634D01*
X142935585Y-73782634D01*
X142924232Y-73594326D01*
X142924232Y-73594322D01*
X142924004Y-73590548D01*
X142906746Y-73496050D01*
X142868177Y-73284868D01*
X142868176Y-73284864D01*
X142867497Y-73281146D01*
X142774229Y-72980774D01*
X142645550Y-72693781D01*
X142483326Y-72424327D01*
X142480999Y-72421343D01*
X142480994Y-72421336D01*
X142292235Y-72179301D01*
X142292229Y-72179294D01*
X142289904Y-72176313D01*
X142068088Y-71953332D01*
X141821091Y-71758615D01*
X141552489Y-71594982D01*
X141348983Y-71502453D01*
X141269626Y-71466371D01*
X141269618Y-71466368D01*
X141266174Y-71464802D01*
X140966294Y-71369962D01*
X140829026Y-71344149D01*
X140660916Y-71312536D01*
X140660911Y-71312535D01*
X140657192Y-71311836D01*
X140343346Y-71291266D01*
X140339566Y-71291474D01*
X140339565Y-71291474D01*
X140247994Y-71296514D01*
X140029301Y-71308549D01*
X140025574Y-71309210D01*
X140025570Y-71309210D01*
X139915911Y-71328645D01*
X139719608Y-71363435D01*
X139715992Y-71364537D01*
X139715984Y-71364539D01*
X139422375Y-71454024D01*
X139422368Y-71454027D01*
X139418751Y-71455129D01*
X139131089Y-71582303D01*
X139127835Y-71584239D01*
X139127829Y-71584242D01*
X138864047Y-71741176D01*
X138860788Y-71743115D01*
X138611765Y-71935235D01*
X138609066Y-71937891D01*
X138609067Y-71937891D01*
X138459829Y-72084803D01*
X138387626Y-72155880D01*
X138371344Y-72176313D01*
X138193984Y-72398886D01*
X138193978Y-72398895D01*
X138191619Y-72401855D01*
X138026581Y-72669596D01*
X137894904Y-72955225D01*
X137798496Y-73254605D01*
X137797777Y-73258321D01*
X137797775Y-73258329D01*
X137739471Y-73559679D01*
X137739470Y-73559688D01*
X137738752Y-73563398D01*
X137738485Y-73567174D01*
X137738484Y-73567179D01*
X137736562Y-73594326D01*
X137716538Y-73877132D01*
X83862666Y-73877132D01*
X83862662Y-66665996D01*
X83882664Y-66597875D01*
X83936320Y-66551382D01*
X83988662Y-66539996D01*
X101851461Y-66539996D01*
X101872365Y-66541742D01*
X101892129Y-66545067D01*
X101898487Y-66545145D01*
X101899810Y-66545161D01*
X101899814Y-66545161D01*
X101904668Y-66545220D01*
X101909475Y-66544531D01*
X101909482Y-66544531D01*
X101925887Y-66542181D01*
X101932769Y-66541387D01*
X101966847Y-66538405D01*
X102080373Y-66528473D01*
X102085688Y-66527049D01*
X102245430Y-66484247D01*
X102245432Y-66484246D01*
X102250740Y-66482824D01*
X102255722Y-66480501D01*
X102405610Y-66410607D01*
X102405613Y-66410605D01*
X102410591Y-66408284D01*
X102555070Y-66307119D01*
X102679787Y-66182402D01*
X102780953Y-66037923D01*
X102783276Y-66032941D01*
X102783279Y-66032936D01*
X102853170Y-65883054D01*
X102853171Y-65883053D01*
X102855493Y-65878072D01*
X102887970Y-65756869D01*
X102899719Y-65713020D01*
X102899719Y-65713018D01*
X102901143Y-65707705D01*
X102901623Y-65702219D01*
X102901624Y-65702213D01*
X102912473Y-65578222D01*
X102913739Y-65568300D01*
X102916929Y-65549340D01*
X102917737Y-65544539D01*
X102917890Y-65532000D01*
X102913938Y-65504402D01*
X102912666Y-65486541D01*
X102912663Y-63813496D01*
X102932665Y-63745375D01*
X102986321Y-63698882D01*
X103038663Y-63687496D01*
X119209903Y-63687497D01*
X120901462Y-63687497D01*
X120922365Y-63689243D01*
X120942130Y-63692568D01*
X120948455Y-63692645D01*
X120949809Y-63692662D01*
X120949813Y-63692662D01*
X120954669Y-63692721D01*
X120975911Y-63689679D01*
X120982767Y-63688889D01*
X121130373Y-63675973D01*
X121135689Y-63674549D01*
X121135692Y-63674548D01*
X121196380Y-63658285D01*
X121300738Y-63630321D01*
X121375262Y-63595569D01*
X121455601Y-63558107D01*
X121455606Y-63558104D01*
X121460588Y-63555781D01*
X121605066Y-63454615D01*
X121729781Y-63329898D01*
X121830946Y-63185420D01*
X121833269Y-63180438D01*
X121833272Y-63180433D01*
X121883760Y-63072159D01*
X121905485Y-63025570D01*
X121951135Y-62855204D01*
X121951614Y-62849724D01*
X121951616Y-62849715D01*
X121962465Y-62725722D01*
X121963731Y-62715800D01*
X121966921Y-62696840D01*
X121967729Y-62692039D01*
X121967882Y-62679500D01*
X121963930Y-62651902D01*
X121962658Y-62634041D01*
X121962664Y-57143497D01*
X121982666Y-57075376D01*
X122036322Y-57028883D01*
X122088664Y-57017497D01*
X138259625Y-57017498D01*
X139951460Y-57017498D01*
X139972364Y-57019244D01*
X139992128Y-57022569D01*
X139998318Y-57022645D01*
X139999803Y-57022663D01*
X139999808Y-57022663D01*
X140004667Y-57022722D01*
X140016623Y-57021010D01*
X140025897Y-57019682D01*
X140032776Y-57018889D01*
X140048675Y-57017498D01*
X140180374Y-57005976D01*
X140293746Y-56975598D01*
X140345432Y-56961749D01*
X140345434Y-56961748D01*
X140350742Y-56960326D01*
X140355724Y-56958003D01*
X140505607Y-56888111D01*
X140505611Y-56888108D01*
X140510594Y-56885785D01*
X140584852Y-56833789D01*
X140650563Y-56787778D01*
X140650566Y-56787776D01*
X140655074Y-56784619D01*
X140779792Y-56659901D01*
X140880957Y-56515420D01*
X140934439Y-56400726D01*
X140953174Y-56360550D01*
X140953176Y-56360544D01*
X140955497Y-56355567D01*
X141001146Y-56185199D01*
X141012473Y-56055716D01*
X141013740Y-56045795D01*
X141016931Y-56026827D01*
X141017738Y-56022031D01*
X141017891Y-56009492D01*
X141013940Y-55981904D01*
X141012667Y-55964041D01*
X141012663Y-53973791D01*
X141012659Y-52383494D01*
X141032661Y-52315374D01*
X141086316Y-52268881D01*
X141138659Y-52257495D01*
X150311667Y-52257494D01*
X158920667Y-52257493D01*
X158988788Y-52277495D01*
G37*
%TD.AperFunction*%
M02*
