%TF.GenerationSoftware,KiCad,Pcbnew,(6.0.0)*%
%TF.CreationDate,2022-01-01T14:13:38+04:00*%
%TF.ProjectId,bottom plate,626f7474-6f6d-4207-906c-6174652e6b69,rev?*%
%TF.SameCoordinates,Original*%
%TF.FileFunction,Profile,NP*%
%FSLAX46Y46*%
G04 Gerber Fmt 4.6, Leading zero omitted, Abs format (unit mm)*
G04 Created by KiCad (PCBNEW (6.0.0)) date 2022-01-01 14:13:38*
%MOMM*%
%LPD*%
G01*
G04 APERTURE LIST*
%TA.AperFunction,Profile*%
%ADD10C,0.150000*%
%TD*%
G04 APERTURE END LIST*
D10*
X83354668Y-78871995D02*
X83354662Y-66531994D01*
X64304664Y-116921995D02*
G75*
G03*
X64804665Y-117421995I500000J0D01*
G01*
X102404663Y-122631995D02*
X102404659Y-120781997D01*
X64804667Y-79371992D02*
G75*
G03*
X64304665Y-79871991I3J-500005D01*
G01*
X101904663Y-123131997D02*
G75*
G03*
X102404663Y-122631995I0J500000D01*
G01*
X83854664Y-66031996D02*
G75*
G03*
X83354662Y-66531994I-9J-499993D01*
G01*
X168389664Y-130944498D02*
X150199664Y-130944498D01*
X178604663Y-55629496D02*
G75*
G03*
X179104667Y-56129496I500010J10D01*
G01*
X102904663Y-63179496D02*
X120954662Y-63179497D01*
X141004661Y-51749495D02*
G75*
G03*
X140504659Y-52249495I3J-500005D01*
G01*
X102904663Y-63179496D02*
G75*
G03*
X102404663Y-63679495I5J-500005D01*
G01*
X202776846Y-145243837D02*
X186439664Y-135814498D01*
X64804667Y-79371992D02*
X82854666Y-79371994D01*
X217119664Y-123304498D02*
X218009664Y-121814498D01*
X121454658Y-62679497D02*
X121454664Y-57009495D01*
X141004661Y-51749495D02*
X159054665Y-51749493D01*
X83354666Y-117921994D02*
G75*
G03*
X82854666Y-117421994I-500001J-1D01*
G01*
X218009664Y-121814498D02*
G75*
G03*
X218179714Y-121254498I-878639J572627D01*
G01*
X121954666Y-56509497D02*
G75*
G03*
X121454664Y-57009495I-4J-499998D01*
G01*
X82854666Y-79371994D02*
G75*
G03*
X83354668Y-78871995I7J499995D01*
G01*
X159554665Y-53149494D02*
G75*
G03*
X160054665Y-53649495I499998J-3D01*
G01*
X83854664Y-66031996D02*
X101904667Y-66031996D01*
X120954662Y-63179497D02*
G75*
G03*
X121454658Y-62679497I-7J500003D01*
G01*
X159554667Y-52249495D02*
X159554665Y-53149494D01*
X218179714Y-121254498D02*
X218179714Y-63444498D01*
X149784372Y-130854186D02*
X121454663Y-120282000D01*
X102404666Y-65531998D02*
X102404663Y-63679495D01*
X197869664Y-56194498D02*
G75*
G03*
X197499664Y-56134448I-339434J-921523D01*
G01*
X83354666Y-117921994D02*
X83354665Y-122631998D01*
X140004668Y-56509498D02*
G75*
G03*
X140504667Y-56009496I1J499998D01*
G01*
X160054665Y-53649495D02*
X178104667Y-53649496D01*
X204704858Y-144864346D02*
X217119664Y-123304498D01*
X101904667Y-66031996D02*
G75*
G03*
X102404666Y-65531998I-1J500000D01*
G01*
X202776846Y-145243837D02*
G75*
G03*
X204704858Y-144864346I774999J1149997D01*
G01*
X102904666Y-120281997D02*
G75*
G03*
X102404659Y-120781997I-7J-500000D01*
G01*
X149784372Y-130854186D02*
G75*
G03*
X150199664Y-130944498I415618J911184D01*
G01*
X218179714Y-63444498D02*
G75*
G03*
X217429664Y-62484498I-989402J-14D01*
G01*
X186439664Y-135814498D02*
G75*
G03*
X186059664Y-135654498I-592196J-875217D01*
G01*
X178604661Y-54149497D02*
X178604663Y-55629496D01*
X179104667Y-56129496D02*
X197499664Y-56134448D01*
X64304664Y-116921995D02*
X64304665Y-79871991D01*
X83854665Y-123131996D02*
X101904663Y-123131997D01*
X168679664Y-130994498D02*
G75*
G03*
X168389664Y-130944498I-311643J-941529D01*
G01*
X83354665Y-122631998D02*
G75*
G03*
X83854665Y-123131996I499995J-3D01*
G01*
X102904666Y-120281997D02*
X121454663Y-120282000D01*
X186059664Y-135654498D02*
X168679664Y-130994498D01*
X64804665Y-117421995D02*
X82854666Y-117421994D01*
X140504667Y-56009496D02*
X140504659Y-52249495D01*
X197869664Y-56194498D02*
X217429664Y-62484498D01*
X159554667Y-52249495D02*
G75*
G03*
X159054665Y-51749493I-500001J1D01*
G01*
X121954666Y-56509497D02*
X140004668Y-56509498D01*
X178604661Y-54149497D02*
G75*
G03*
X178104667Y-53649496I-500003J-2D01*
G01*
M02*
