%TF.GenerationSoftware,KiCad,Pcbnew,(6.0.0)*%
%TF.CreationDate,2022-01-01T14:12:31+04:00*%
%TF.ProjectId,Angel Wings FINAL,416e6765-6c20-4576-996e-67732046494e,rev?*%
%TF.SameCoordinates,Original*%
%TF.FileFunction,Legend,Bot*%
%TF.FilePolarity,Positive*%
%FSLAX46Y46*%
G04 Gerber Fmt 4.6, Leading zero omitted, Abs format (unit mm)*
G04 Created by KiCad (PCBNEW (6.0.0)) date 2022-01-01 14:12:31*
%MOMM*%
%LPD*%
G01*
G04 APERTURE LIST*
%ADD10C,0.150000*%
%ADD11C,0.125000*%
%ADD12C,0.300000*%
G04 APERTURE END LIST*
D10*
%TO.C,RSW1*%
X212832718Y-117330406D02*
X212356528Y-116997073D01*
X212832718Y-116758978D02*
X211832718Y-116758978D01*
X211832718Y-117139930D01*
X211880338Y-117235168D01*
X211927957Y-117282787D01*
X212023195Y-117330406D01*
X212166052Y-117330406D01*
X212261290Y-117282787D01*
X212308909Y-117235168D01*
X212356528Y-117139930D01*
X212356528Y-116758978D01*
X212785099Y-118139930D02*
X212832718Y-118044692D01*
X212832718Y-117854216D01*
X212785099Y-117758978D01*
X212689861Y-117711359D01*
X212308909Y-117711359D01*
X212213671Y-117758978D01*
X212166052Y-117854216D01*
X212166052Y-118044692D01*
X212213671Y-118139930D01*
X212308909Y-118187549D01*
X212404147Y-118187549D01*
X212499385Y-117711359D01*
X212785099Y-118568502D02*
X212832718Y-118663740D01*
X212832718Y-118854216D01*
X212785099Y-118949454D01*
X212689861Y-118997073D01*
X212642242Y-118997073D01*
X212547004Y-118949454D01*
X212499385Y-118854216D01*
X212499385Y-118711359D01*
X212451766Y-118616121D01*
X212356528Y-118568502D01*
X212308909Y-118568502D01*
X212213671Y-118616121D01*
X212166052Y-118711359D01*
X212166052Y-118854216D01*
X212213671Y-118949454D01*
X212785099Y-119806597D02*
X212832718Y-119711359D01*
X212832718Y-119520882D01*
X212785099Y-119425644D01*
X212689861Y-119378025D01*
X212308909Y-119378025D01*
X212213671Y-119425644D01*
X212166052Y-119520882D01*
X212166052Y-119711359D01*
X212213671Y-119806597D01*
X212308909Y-119854216D01*
X212404147Y-119854216D01*
X212499385Y-119378025D01*
X212166052Y-120139930D02*
X212166052Y-120520882D01*
X211832718Y-120282787D02*
X212689861Y-120282787D01*
X212785099Y-120330406D01*
X212832718Y-120425644D01*
X212832718Y-120520882D01*
D11*
%TO.C,U1*%
X194973230Y-78337872D02*
X194973230Y-77587872D01*
X194854182Y-77587872D01*
X194782753Y-77623587D01*
X194735134Y-77695015D01*
X194711325Y-77766444D01*
X194687515Y-77909301D01*
X194687515Y-78016444D01*
X194711325Y-78159301D01*
X194735134Y-78230729D01*
X194782753Y-78302158D01*
X194854182Y-78337872D01*
X194973230Y-78337872D01*
X194497039Y-78123587D02*
X194258944Y-78123587D01*
X194544658Y-78337872D02*
X194377991Y-77587872D01*
X194211325Y-78337872D01*
X194116087Y-77587872D02*
X193830372Y-77587872D01*
X193973230Y-78337872D02*
X193973230Y-77587872D01*
X193687515Y-78123587D02*
X193449420Y-78123587D01*
X193735134Y-78337872D02*
X193568468Y-77587872D01*
X193401801Y-78337872D01*
X209931682Y-77455587D02*
X209979301Y-77419872D01*
X210050730Y-77419872D01*
X210122158Y-77455587D01*
X210169777Y-77527015D01*
X210193587Y-77598444D01*
X210217396Y-77741301D01*
X210217396Y-77848444D01*
X210193587Y-77991301D01*
X210169777Y-78062729D01*
X210122158Y-78134158D01*
X210050730Y-78169872D01*
X210003110Y-78169872D01*
X209931682Y-78134158D01*
X209907872Y-78098444D01*
X209907872Y-77848444D01*
X210003110Y-77848444D01*
X209693587Y-78169872D02*
X209693587Y-77419872D01*
X209407872Y-78169872D01*
X209407872Y-77419872D01*
X209169777Y-78169872D02*
X209169777Y-77419872D01*
X209050730Y-77419872D01*
X208979301Y-77455587D01*
X208931682Y-77527015D01*
X208907872Y-77598444D01*
X208884063Y-77741301D01*
X208884063Y-77848444D01*
X208907872Y-77991301D01*
X208931682Y-78062729D01*
X208979301Y-78134158D01*
X209050730Y-78169872D01*
X209169777Y-78169872D01*
X210070610Y-103177015D02*
X209999182Y-103212729D01*
X209975372Y-103248444D01*
X209951563Y-103319872D01*
X209951563Y-103427015D01*
X209975372Y-103498444D01*
X209999182Y-103534158D01*
X210046801Y-103569872D01*
X210237277Y-103569872D01*
X210237277Y-102819872D01*
X210070610Y-102819872D01*
X210022991Y-102855587D01*
X209999182Y-102891301D01*
X209975372Y-102962729D01*
X209975372Y-103034158D01*
X209999182Y-103105587D01*
X210022991Y-103141301D01*
X210070610Y-103177015D01*
X210237277Y-103177015D01*
X209522991Y-102819872D02*
X209618230Y-102819872D01*
X209665849Y-102855587D01*
X209689658Y-102891301D01*
X209737277Y-102998444D01*
X209761087Y-103141301D01*
X209761087Y-103427015D01*
X209737277Y-103498444D01*
X209713468Y-103534158D01*
X209665849Y-103569872D01*
X209570610Y-103569872D01*
X209522991Y-103534158D01*
X209499182Y-103498444D01*
X209475372Y-103427015D01*
X209475372Y-103248444D01*
X209499182Y-103177015D01*
X209522991Y-103141301D01*
X209570610Y-103105587D01*
X209665849Y-103105587D01*
X209713468Y-103141301D01*
X209737277Y-103177015D01*
X209761087Y-103248444D01*
X209970849Y-98516444D02*
X209994658Y-98552158D01*
X210066087Y-98587872D01*
X210113706Y-98587872D01*
X210185134Y-98552158D01*
X210232753Y-98480729D01*
X210256563Y-98409301D01*
X210280372Y-98266444D01*
X210280372Y-98159301D01*
X210256563Y-98016444D01*
X210232753Y-97945015D01*
X210185134Y-97873587D01*
X210113706Y-97837872D01*
X210066087Y-97837872D01*
X209994658Y-97873587D01*
X209970849Y-97909301D01*
X209661325Y-97837872D02*
X209566087Y-97837872D01*
X209518468Y-97873587D01*
X209470849Y-97945015D01*
X209447039Y-98087872D01*
X209447039Y-98337872D01*
X209470849Y-98480729D01*
X209518468Y-98552158D01*
X209566087Y-98587872D01*
X209661325Y-98587872D01*
X209708944Y-98552158D01*
X209756563Y-98480729D01*
X209780372Y-98337872D01*
X209780372Y-98087872D01*
X209756563Y-97945015D01*
X209708944Y-97873587D01*
X209661325Y-97837872D01*
X208994658Y-98587872D02*
X209232753Y-98587872D01*
X209232753Y-97837872D01*
X208589896Y-97837872D02*
X208827991Y-97837872D01*
X208851801Y-98195015D01*
X208827991Y-98159301D01*
X208780372Y-98123587D01*
X208661325Y-98123587D01*
X208613706Y-98159301D01*
X208589896Y-98195015D01*
X208566087Y-98266444D01*
X208566087Y-98445015D01*
X208589896Y-98516444D01*
X208613706Y-98552158D01*
X208661325Y-98587872D01*
X208780372Y-98587872D01*
X208827991Y-98552158D01*
X208851801Y-98516444D01*
X210134110Y-100573515D02*
X210062682Y-100609229D01*
X210038872Y-100644944D01*
X210015063Y-100716372D01*
X210015063Y-100823515D01*
X210038872Y-100894944D01*
X210062682Y-100930658D01*
X210110301Y-100966372D01*
X210300777Y-100966372D01*
X210300777Y-100216372D01*
X210134110Y-100216372D01*
X210086491Y-100252087D01*
X210062682Y-100287801D01*
X210038872Y-100359229D01*
X210038872Y-100430658D01*
X210062682Y-100502087D01*
X210086491Y-100537801D01*
X210134110Y-100573515D01*
X210300777Y-100573515D01*
X209824587Y-100287801D02*
X209800777Y-100252087D01*
X209753158Y-100216372D01*
X209634110Y-100216372D01*
X209586491Y-100252087D01*
X209562682Y-100287801D01*
X209538872Y-100359229D01*
X209538872Y-100430658D01*
X209562682Y-100537801D01*
X209848396Y-100966372D01*
X209538872Y-100966372D01*
X209970849Y-88321944D02*
X209994658Y-88357658D01*
X210066087Y-88393372D01*
X210113706Y-88393372D01*
X210185134Y-88357658D01*
X210232753Y-88286229D01*
X210256563Y-88214801D01*
X210280372Y-88071944D01*
X210280372Y-87964801D01*
X210256563Y-87821944D01*
X210232753Y-87750515D01*
X210185134Y-87679087D01*
X210113706Y-87643372D01*
X210066087Y-87643372D01*
X209994658Y-87679087D01*
X209970849Y-87714801D01*
X209661325Y-87643372D02*
X209566087Y-87643372D01*
X209518468Y-87679087D01*
X209470849Y-87750515D01*
X209447039Y-87893372D01*
X209447039Y-88143372D01*
X209470849Y-88286229D01*
X209518468Y-88357658D01*
X209566087Y-88393372D01*
X209661325Y-88393372D01*
X209708944Y-88357658D01*
X209756563Y-88286229D01*
X209780372Y-88143372D01*
X209780372Y-87893372D01*
X209756563Y-87750515D01*
X209708944Y-87679087D01*
X209661325Y-87643372D01*
X208994658Y-88393372D02*
X209232753Y-88393372D01*
X209232753Y-87643372D01*
X208566087Y-88393372D02*
X208851801Y-88393372D01*
X208708944Y-88393372D02*
X208708944Y-87643372D01*
X208756563Y-87750515D01*
X208804182Y-87821944D01*
X208851801Y-87857658D01*
X194754182Y-96076872D02*
X194920849Y-95719729D01*
X195039896Y-96076872D02*
X195039896Y-95326872D01*
X194849420Y-95326872D01*
X194801801Y-95362587D01*
X194777991Y-95398301D01*
X194754182Y-95469729D01*
X194754182Y-95576872D01*
X194777991Y-95648301D01*
X194801801Y-95684015D01*
X194849420Y-95719729D01*
X195039896Y-95719729D01*
X194444658Y-95326872D02*
X194349420Y-95326872D01*
X194301801Y-95362587D01*
X194254182Y-95434015D01*
X194230372Y-95576872D01*
X194230372Y-95826872D01*
X194254182Y-95969729D01*
X194301801Y-96041158D01*
X194349420Y-96076872D01*
X194444658Y-96076872D01*
X194492277Y-96041158D01*
X194539896Y-95969729D01*
X194563706Y-95826872D01*
X194563706Y-95576872D01*
X194539896Y-95434015D01*
X194492277Y-95362587D01*
X194444658Y-95326872D01*
X194063706Y-95326872D02*
X193944658Y-96076872D01*
X193849420Y-95541158D01*
X193754182Y-96076872D01*
X193635134Y-95326872D01*
X193468468Y-95398301D02*
X193444658Y-95362587D01*
X193397039Y-95326872D01*
X193277991Y-95326872D01*
X193230372Y-95362587D01*
X193206563Y-95398301D01*
X193182753Y-95469729D01*
X193182753Y-95541158D01*
X193206563Y-95648301D01*
X193492277Y-96076872D01*
X193182753Y-96076872D01*
X194754182Y-98587872D02*
X194920849Y-98230729D01*
X195039896Y-98587872D02*
X195039896Y-97837872D01*
X194849420Y-97837872D01*
X194801801Y-97873587D01*
X194777991Y-97909301D01*
X194754182Y-97980729D01*
X194754182Y-98087872D01*
X194777991Y-98159301D01*
X194801801Y-98195015D01*
X194849420Y-98230729D01*
X195039896Y-98230729D01*
X194444658Y-97837872D02*
X194349420Y-97837872D01*
X194301801Y-97873587D01*
X194254182Y-97945015D01*
X194230372Y-98087872D01*
X194230372Y-98337872D01*
X194254182Y-98480729D01*
X194301801Y-98552158D01*
X194349420Y-98587872D01*
X194444658Y-98587872D01*
X194492277Y-98552158D01*
X194539896Y-98480729D01*
X194563706Y-98337872D01*
X194563706Y-98087872D01*
X194539896Y-97945015D01*
X194492277Y-97873587D01*
X194444658Y-97837872D01*
X194063706Y-97837872D02*
X193944658Y-98587872D01*
X193849420Y-98052158D01*
X193754182Y-98587872D01*
X193635134Y-97837872D01*
X193492277Y-97837872D02*
X193182753Y-97837872D01*
X193349420Y-98123587D01*
X193277991Y-98123587D01*
X193230372Y-98159301D01*
X193206563Y-98195015D01*
X193182753Y-98266444D01*
X193182753Y-98445015D01*
X193206563Y-98516444D01*
X193230372Y-98552158D01*
X193277991Y-98587872D01*
X193420849Y-98587872D01*
X193468468Y-98552158D01*
X193492277Y-98516444D01*
X209970849Y-90866444D02*
X209994658Y-90902158D01*
X210066087Y-90937872D01*
X210113706Y-90937872D01*
X210185134Y-90902158D01*
X210232753Y-90830729D01*
X210256563Y-90759301D01*
X210280372Y-90616444D01*
X210280372Y-90509301D01*
X210256563Y-90366444D01*
X210232753Y-90295015D01*
X210185134Y-90223587D01*
X210113706Y-90187872D01*
X210066087Y-90187872D01*
X209994658Y-90223587D01*
X209970849Y-90259301D01*
X209661325Y-90187872D02*
X209566087Y-90187872D01*
X209518468Y-90223587D01*
X209470849Y-90295015D01*
X209447039Y-90437872D01*
X209447039Y-90687872D01*
X209470849Y-90830729D01*
X209518468Y-90902158D01*
X209566087Y-90937872D01*
X209661325Y-90937872D01*
X209708944Y-90902158D01*
X209756563Y-90830729D01*
X209780372Y-90687872D01*
X209780372Y-90437872D01*
X209756563Y-90295015D01*
X209708944Y-90223587D01*
X209661325Y-90187872D01*
X208994658Y-90937872D02*
X209232753Y-90937872D01*
X209232753Y-90187872D01*
X208851801Y-90259301D02*
X208827991Y-90223587D01*
X208780372Y-90187872D01*
X208661325Y-90187872D01*
X208613706Y-90223587D01*
X208589896Y-90259301D01*
X208566087Y-90330729D01*
X208566087Y-90402158D01*
X208589896Y-90509301D01*
X208875610Y-90937872D01*
X208566087Y-90937872D01*
X194754182Y-90869872D02*
X194920849Y-90512729D01*
X195039896Y-90869872D02*
X195039896Y-90119872D01*
X194849420Y-90119872D01*
X194801801Y-90155587D01*
X194777991Y-90191301D01*
X194754182Y-90262729D01*
X194754182Y-90369872D01*
X194777991Y-90441301D01*
X194801801Y-90477015D01*
X194849420Y-90512729D01*
X195039896Y-90512729D01*
X194444658Y-90119872D02*
X194349420Y-90119872D01*
X194301801Y-90155587D01*
X194254182Y-90227015D01*
X194230372Y-90369872D01*
X194230372Y-90619872D01*
X194254182Y-90762729D01*
X194301801Y-90834158D01*
X194349420Y-90869872D01*
X194444658Y-90869872D01*
X194492277Y-90834158D01*
X194539896Y-90762729D01*
X194563706Y-90619872D01*
X194563706Y-90369872D01*
X194539896Y-90227015D01*
X194492277Y-90155587D01*
X194444658Y-90119872D01*
X194063706Y-90119872D02*
X193944658Y-90869872D01*
X193849420Y-90334158D01*
X193754182Y-90869872D01*
X193635134Y-90119872D01*
X193349420Y-90119872D02*
X193301801Y-90119872D01*
X193254182Y-90155587D01*
X193230372Y-90191301D01*
X193206563Y-90262729D01*
X193182753Y-90405587D01*
X193182753Y-90584158D01*
X193206563Y-90727015D01*
X193230372Y-90798444D01*
X193254182Y-90834158D01*
X193301801Y-90869872D01*
X193349420Y-90869872D01*
X193397039Y-90834158D01*
X193420849Y-90798444D01*
X193444658Y-90727015D01*
X193468468Y-90584158D01*
X193468468Y-90405587D01*
X193444658Y-90262729D01*
X193420849Y-90191301D01*
X193397039Y-90155587D01*
X193349420Y-90119872D01*
X209959468Y-75693372D02*
X210126134Y-75336229D01*
X210245182Y-75693372D02*
X210245182Y-74943372D01*
X210054706Y-74943372D01*
X210007087Y-74979087D01*
X209983277Y-75014801D01*
X209959468Y-75086229D01*
X209959468Y-75193372D01*
X209983277Y-75264801D01*
X210007087Y-75300515D01*
X210054706Y-75336229D01*
X210245182Y-75336229D01*
X209768991Y-75479087D02*
X209530896Y-75479087D01*
X209816610Y-75693372D02*
X209649944Y-74943372D01*
X209483277Y-75693372D01*
X209364230Y-74943372D02*
X209245182Y-75693372D01*
X209149944Y-75157658D01*
X209054706Y-75693372D01*
X208935658Y-74943372D01*
X194695658Y-75693372D02*
X194933753Y-75693372D01*
X194933753Y-74943372D01*
X194528991Y-75300515D02*
X194362325Y-75300515D01*
X194290896Y-75693372D02*
X194528991Y-75693372D01*
X194528991Y-74943372D01*
X194290896Y-74943372D01*
X194076610Y-75693372D02*
X194076610Y-74943372D01*
X193957563Y-74943372D01*
X193886134Y-74979087D01*
X193838515Y-75050515D01*
X193814706Y-75121944D01*
X193790896Y-75264801D01*
X193790896Y-75371944D01*
X193814706Y-75514801D01*
X193838515Y-75586229D01*
X193886134Y-75657658D01*
X193957563Y-75693372D01*
X194076610Y-75693372D01*
X194755182Y-82599087D02*
X194802801Y-82563372D01*
X194874230Y-82563372D01*
X194945658Y-82599087D01*
X194993277Y-82670515D01*
X195017087Y-82741944D01*
X195040896Y-82884801D01*
X195040896Y-82991944D01*
X195017087Y-83134801D01*
X194993277Y-83206229D01*
X194945658Y-83277658D01*
X194874230Y-83313372D01*
X194826610Y-83313372D01*
X194755182Y-83277658D01*
X194731372Y-83241944D01*
X194731372Y-82991944D01*
X194826610Y-82991944D01*
X194517087Y-83313372D02*
X194517087Y-82563372D01*
X194231372Y-83313372D01*
X194231372Y-82563372D01*
X193993277Y-83313372D02*
X193993277Y-82563372D01*
X193874230Y-82563372D01*
X193802801Y-82599087D01*
X193755182Y-82670515D01*
X193731372Y-82741944D01*
X193707563Y-82884801D01*
X193707563Y-82991944D01*
X193731372Y-83134801D01*
X193755182Y-83206229D01*
X193802801Y-83277658D01*
X193874230Y-83313372D01*
X193993277Y-83313372D01*
X194969468Y-88357658D02*
X194898039Y-88393372D01*
X194778991Y-88393372D01*
X194731372Y-88357658D01*
X194707563Y-88321944D01*
X194683753Y-88250515D01*
X194683753Y-88179087D01*
X194707563Y-88107658D01*
X194731372Y-88071944D01*
X194778991Y-88036229D01*
X194874230Y-88000515D01*
X194921849Y-87964801D01*
X194945658Y-87929087D01*
X194969468Y-87857658D01*
X194969468Y-87786229D01*
X194945658Y-87714801D01*
X194921849Y-87679087D01*
X194874230Y-87643372D01*
X194755182Y-87643372D01*
X194683753Y-87679087D01*
X194183753Y-88321944D02*
X194207563Y-88357658D01*
X194278991Y-88393372D01*
X194326610Y-88393372D01*
X194398039Y-88357658D01*
X194445658Y-88286229D01*
X194469468Y-88214801D01*
X194493277Y-88071944D01*
X194493277Y-87964801D01*
X194469468Y-87821944D01*
X194445658Y-87750515D01*
X194398039Y-87679087D01*
X194326610Y-87643372D01*
X194278991Y-87643372D01*
X194207563Y-87679087D01*
X194183753Y-87714801D01*
X193731372Y-88393372D02*
X193969468Y-88393372D01*
X193969468Y-87643372D01*
X194754182Y-93473372D02*
X194920849Y-93116229D01*
X195039896Y-93473372D02*
X195039896Y-92723372D01*
X194849420Y-92723372D01*
X194801801Y-92759087D01*
X194777991Y-92794801D01*
X194754182Y-92866229D01*
X194754182Y-92973372D01*
X194777991Y-93044801D01*
X194801801Y-93080515D01*
X194849420Y-93116229D01*
X195039896Y-93116229D01*
X194444658Y-92723372D02*
X194349420Y-92723372D01*
X194301801Y-92759087D01*
X194254182Y-92830515D01*
X194230372Y-92973372D01*
X194230372Y-93223372D01*
X194254182Y-93366229D01*
X194301801Y-93437658D01*
X194349420Y-93473372D01*
X194444658Y-93473372D01*
X194492277Y-93437658D01*
X194539896Y-93366229D01*
X194563706Y-93223372D01*
X194563706Y-92973372D01*
X194539896Y-92830515D01*
X194492277Y-92759087D01*
X194444658Y-92723372D01*
X194063706Y-92723372D02*
X193944658Y-93473372D01*
X193849420Y-92937658D01*
X193754182Y-93473372D01*
X193635134Y-92723372D01*
X193182753Y-93473372D02*
X193468468Y-93473372D01*
X193325610Y-93473372D02*
X193325610Y-92723372D01*
X193373230Y-92830515D01*
X193420849Y-92901944D01*
X193468468Y-92937658D01*
D10*
D11*
X209888039Y-80773372D02*
X210054706Y-80416229D01*
X210173753Y-80773372D02*
X210173753Y-80023372D01*
X209983277Y-80023372D01*
X209935658Y-80059087D01*
X209911849Y-80094801D01*
X209888039Y-80166229D01*
X209888039Y-80273372D01*
X209911849Y-80344801D01*
X209935658Y-80380515D01*
X209983277Y-80416229D01*
X210173753Y-80416229D01*
X209697563Y-80737658D02*
X209626134Y-80773372D01*
X209507087Y-80773372D01*
X209459468Y-80737658D01*
X209435658Y-80701944D01*
X209411849Y-80630515D01*
X209411849Y-80559087D01*
X209435658Y-80487658D01*
X209459468Y-80451944D01*
X209507087Y-80416229D01*
X209602325Y-80380515D01*
X209649944Y-80344801D01*
X209673753Y-80309087D01*
X209697563Y-80237658D01*
X209697563Y-80166229D01*
X209673753Y-80094801D01*
X209649944Y-80059087D01*
X209602325Y-80023372D01*
X209483277Y-80023372D01*
X209411849Y-80059087D01*
X209268991Y-80023372D02*
X208983277Y-80023372D01*
X209126134Y-80773372D02*
X209126134Y-80023372D01*
X194576610Y-103240515D02*
X194505182Y-103276229D01*
X194481372Y-103311944D01*
X194457563Y-103383372D01*
X194457563Y-103490515D01*
X194481372Y-103561944D01*
X194505182Y-103597658D01*
X194552801Y-103633372D01*
X194743277Y-103633372D01*
X194743277Y-102883372D01*
X194576610Y-102883372D01*
X194528991Y-102919087D01*
X194505182Y-102954801D01*
X194481372Y-103026229D01*
X194481372Y-103097658D01*
X194505182Y-103169087D01*
X194528991Y-103204801D01*
X194576610Y-103240515D01*
X194743277Y-103240515D01*
X194005182Y-102883372D02*
X194243277Y-102883372D01*
X194267087Y-103240515D01*
X194243277Y-103204801D01*
X194195658Y-103169087D01*
X194076610Y-103169087D01*
X194028991Y-103204801D01*
X194005182Y-103240515D01*
X193981372Y-103311944D01*
X193981372Y-103490515D01*
X194005182Y-103561944D01*
X194028991Y-103597658D01*
X194076610Y-103633372D01*
X194195658Y-103633372D01*
X194243277Y-103597658D01*
X194267087Y-103561944D01*
X209970849Y-85816444D02*
X209994658Y-85852158D01*
X210066087Y-85887872D01*
X210113706Y-85887872D01*
X210185134Y-85852158D01*
X210232753Y-85780729D01*
X210256563Y-85709301D01*
X210280372Y-85566444D01*
X210280372Y-85459301D01*
X210256563Y-85316444D01*
X210232753Y-85245015D01*
X210185134Y-85173587D01*
X210113706Y-85137872D01*
X210066087Y-85137872D01*
X209994658Y-85173587D01*
X209970849Y-85209301D01*
X209661325Y-85137872D02*
X209566087Y-85137872D01*
X209518468Y-85173587D01*
X209470849Y-85245015D01*
X209447039Y-85387872D01*
X209447039Y-85637872D01*
X209470849Y-85780729D01*
X209518468Y-85852158D01*
X209566087Y-85887872D01*
X209661325Y-85887872D01*
X209708944Y-85852158D01*
X209756563Y-85780729D01*
X209780372Y-85637872D01*
X209780372Y-85387872D01*
X209756563Y-85245015D01*
X209708944Y-85173587D01*
X209661325Y-85137872D01*
X208994658Y-85887872D02*
X209232753Y-85887872D01*
X209232753Y-85137872D01*
X208732753Y-85137872D02*
X208685134Y-85137872D01*
X208637515Y-85173587D01*
X208613706Y-85209301D01*
X208589896Y-85280729D01*
X208566087Y-85423587D01*
X208566087Y-85602158D01*
X208589896Y-85745015D01*
X208613706Y-85816444D01*
X208637515Y-85852158D01*
X208685134Y-85887872D01*
X208732753Y-85887872D01*
X208780372Y-85852158D01*
X208804182Y-85816444D01*
X208827991Y-85745015D01*
X208851801Y-85602158D01*
X208851801Y-85423587D01*
X208827991Y-85280729D01*
X208804182Y-85209301D01*
X208780372Y-85173587D01*
X208732753Y-85137872D01*
X194981372Y-85817658D02*
X194909944Y-85853372D01*
X194790896Y-85853372D01*
X194743277Y-85817658D01*
X194719468Y-85781944D01*
X194695658Y-85710515D01*
X194695658Y-85639087D01*
X194719468Y-85567658D01*
X194743277Y-85531944D01*
X194790896Y-85496229D01*
X194886134Y-85460515D01*
X194933753Y-85424801D01*
X194957563Y-85389087D01*
X194981372Y-85317658D01*
X194981372Y-85246229D01*
X194957563Y-85174801D01*
X194933753Y-85139087D01*
X194886134Y-85103372D01*
X194767087Y-85103372D01*
X194695658Y-85139087D01*
X194481372Y-85853372D02*
X194481372Y-85103372D01*
X194362325Y-85103372D01*
X194290896Y-85139087D01*
X194243277Y-85210515D01*
X194219468Y-85281944D01*
X194195658Y-85424801D01*
X194195658Y-85531944D01*
X194219468Y-85674801D01*
X194243277Y-85746229D01*
X194290896Y-85817658D01*
X194362325Y-85853372D01*
X194481372Y-85853372D01*
X194005182Y-85639087D02*
X193767087Y-85639087D01*
X194052801Y-85853372D02*
X193886134Y-85103372D01*
X193719468Y-85853372D01*
X194755182Y-80059087D02*
X194802801Y-80023372D01*
X194874230Y-80023372D01*
X194945658Y-80059087D01*
X194993277Y-80130515D01*
X195017087Y-80201944D01*
X195040896Y-80344801D01*
X195040896Y-80451944D01*
X195017087Y-80594801D01*
X194993277Y-80666229D01*
X194945658Y-80737658D01*
X194874230Y-80773372D01*
X194826610Y-80773372D01*
X194755182Y-80737658D01*
X194731372Y-80701944D01*
X194731372Y-80451944D01*
X194826610Y-80451944D01*
X194517087Y-80773372D02*
X194517087Y-80023372D01*
X194231372Y-80773372D01*
X194231372Y-80023372D01*
X193993277Y-80773372D02*
X193993277Y-80023372D01*
X193874230Y-80023372D01*
X193802801Y-80059087D01*
X193755182Y-80130515D01*
X193731372Y-80201944D01*
X193707563Y-80344801D01*
X193707563Y-80451944D01*
X193731372Y-80594801D01*
X193755182Y-80666229D01*
X193802801Y-80737658D01*
X193874230Y-80773372D01*
X193993277Y-80773372D01*
X209970849Y-93366444D02*
X209994658Y-93402158D01*
X210066087Y-93437872D01*
X210113706Y-93437872D01*
X210185134Y-93402158D01*
X210232753Y-93330729D01*
X210256563Y-93259301D01*
X210280372Y-93116444D01*
X210280372Y-93009301D01*
X210256563Y-92866444D01*
X210232753Y-92795015D01*
X210185134Y-92723587D01*
X210113706Y-92687872D01*
X210066087Y-92687872D01*
X209994658Y-92723587D01*
X209970849Y-92759301D01*
X209661325Y-92687872D02*
X209566087Y-92687872D01*
X209518468Y-92723587D01*
X209470849Y-92795015D01*
X209447039Y-92937872D01*
X209447039Y-93187872D01*
X209470849Y-93330729D01*
X209518468Y-93402158D01*
X209566087Y-93437872D01*
X209661325Y-93437872D01*
X209708944Y-93402158D01*
X209756563Y-93330729D01*
X209780372Y-93187872D01*
X209780372Y-92937872D01*
X209756563Y-92795015D01*
X209708944Y-92723587D01*
X209661325Y-92687872D01*
X208994658Y-93437872D02*
X209232753Y-93437872D01*
X209232753Y-92687872D01*
X208875610Y-92687872D02*
X208566087Y-92687872D01*
X208732753Y-92973587D01*
X208661325Y-92973587D01*
X208613706Y-93009301D01*
X208589896Y-93045015D01*
X208566087Y-93116444D01*
X208566087Y-93295015D01*
X208589896Y-93366444D01*
X208613706Y-93402158D01*
X208661325Y-93437872D01*
X208804182Y-93437872D01*
X208851801Y-93402158D01*
X208875610Y-93366444D01*
X194576610Y-100700515D02*
X194505182Y-100736229D01*
X194481372Y-100771944D01*
X194457563Y-100843372D01*
X194457563Y-100950515D01*
X194481372Y-101021944D01*
X194505182Y-101057658D01*
X194552801Y-101093372D01*
X194743277Y-101093372D01*
X194743277Y-100343372D01*
X194576610Y-100343372D01*
X194528991Y-100379087D01*
X194505182Y-100414801D01*
X194481372Y-100486229D01*
X194481372Y-100557658D01*
X194505182Y-100629087D01*
X194528991Y-100664801D01*
X194576610Y-100700515D01*
X194743277Y-100700515D01*
X194028991Y-100593372D02*
X194028991Y-101093372D01*
X194148039Y-100307658D02*
X194267087Y-100843372D01*
X193957563Y-100843372D01*
X209920849Y-95878444D02*
X209944658Y-95914158D01*
X210016087Y-95949872D01*
X210063706Y-95949872D01*
X210135134Y-95914158D01*
X210182753Y-95842729D01*
X210206563Y-95771301D01*
X210230372Y-95628444D01*
X210230372Y-95521301D01*
X210206563Y-95378444D01*
X210182753Y-95307015D01*
X210135134Y-95235587D01*
X210063706Y-95199872D01*
X210016087Y-95199872D01*
X209944658Y-95235587D01*
X209920849Y-95271301D01*
X209611325Y-95199872D02*
X209516087Y-95199872D01*
X209468468Y-95235587D01*
X209420849Y-95307015D01*
X209397039Y-95449872D01*
X209397039Y-95699872D01*
X209420849Y-95842729D01*
X209468468Y-95914158D01*
X209516087Y-95949872D01*
X209611325Y-95949872D01*
X209658944Y-95914158D01*
X209706563Y-95842729D01*
X209730372Y-95699872D01*
X209730372Y-95449872D01*
X209706563Y-95307015D01*
X209658944Y-95235587D01*
X209611325Y-95199872D01*
X208944658Y-95949872D02*
X209182753Y-95949872D01*
X209182753Y-95199872D01*
X208563706Y-95449872D02*
X208563706Y-95949872D01*
X208682753Y-95164158D02*
X208801801Y-95699872D01*
X208492277Y-95699872D01*
X210217396Y-82563372D02*
X210050730Y-83313372D01*
X209884063Y-82563372D01*
X209431682Y-83241944D02*
X209455491Y-83277658D01*
X209526920Y-83313372D01*
X209574539Y-83313372D01*
X209645968Y-83277658D01*
X209693587Y-83206229D01*
X209717396Y-83134801D01*
X209741206Y-82991944D01*
X209741206Y-82884801D01*
X209717396Y-82741944D01*
X209693587Y-82670515D01*
X209645968Y-82599087D01*
X209574539Y-82563372D01*
X209526920Y-82563372D01*
X209455491Y-82599087D01*
X209431682Y-82634801D01*
X208931682Y-83241944D02*
X208955491Y-83277658D01*
X209026920Y-83313372D01*
X209074539Y-83313372D01*
X209145968Y-83277658D01*
X209193587Y-83206229D01*
X209217396Y-83134801D01*
X209241206Y-82991944D01*
X209241206Y-82884801D01*
X209217396Y-82741944D01*
X209193587Y-82670515D01*
X209145968Y-82599087D01*
X209074539Y-82563372D01*
X209026920Y-82563372D01*
X208955491Y-82599087D01*
X208931682Y-82634801D01*
D10*
%TO.C,J1*%
X207249607Y-107993181D02*
X207249607Y-108564609D01*
X208249607Y-108278895D02*
X207249607Y-108278895D01*
X208249607Y-109469371D02*
X207773417Y-109136038D01*
X208249607Y-108897943D02*
X207249607Y-108897943D01*
X207249607Y-109278895D01*
X207297227Y-109374133D01*
X207344846Y-109421752D01*
X207440084Y-109469371D01*
X207582941Y-109469371D01*
X207678179Y-109421752D01*
X207725798Y-109374133D01*
X207773417Y-109278895D01*
X207773417Y-108897943D01*
X208249607Y-110469371D02*
X207773417Y-110136038D01*
X208249607Y-109897943D02*
X207249607Y-109897943D01*
X207249607Y-110278895D01*
X207297227Y-110374133D01*
X207344846Y-110421752D01*
X207440084Y-110469371D01*
X207582941Y-110469371D01*
X207678179Y-110421752D01*
X207725798Y-110374133D01*
X207773417Y-110278895D01*
X207773417Y-109897943D01*
X208201988Y-110850324D02*
X208249607Y-110993181D01*
X208249607Y-111231276D01*
X208201988Y-111326514D01*
X208154369Y-111374133D01*
X208059131Y-111421752D01*
X207963893Y-111421752D01*
X207868655Y-111374133D01*
X207821036Y-111326514D01*
X207773417Y-111231276D01*
X207725798Y-111040800D01*
X207678179Y-110945562D01*
X207630560Y-110897943D01*
X207535322Y-110850324D01*
X207440084Y-110850324D01*
X207344846Y-110897943D01*
X207297227Y-110945562D01*
X207249607Y-111040800D01*
X207249607Y-111278895D01*
X207297227Y-111421752D01*
D12*
%TO.C,L12*%
X147559999Y-64750001D02*
X147559999Y-63300001D01*
X149609999Y-64750001D02*
X147559999Y-64750001D01*
X147559999Y-63300001D02*
X149609999Y-63300001D01*
X149609999Y-63300001D02*
X149609999Y-64750001D01*
D10*
%TO.C,D10*%
X135880336Y-96905497D02*
X135880336Y-91505497D01*
X134380336Y-91505497D02*
X134380336Y-96905497D01*
X135630336Y-94705497D02*
X134630336Y-94705497D01*
X135630336Y-93705497D02*
X134630336Y-93705497D01*
X135880336Y-91505497D02*
X134380336Y-91505497D01*
X134380336Y-96905497D02*
X135880336Y-96905497D01*
X135130336Y-93805497D02*
X135630336Y-94705497D01*
X134630336Y-94705497D02*
X135130336Y-93805497D01*
D12*
%TO.C,L22*%
X185660001Y-105770000D02*
X187710001Y-105770000D01*
X187710001Y-107220000D02*
X185660001Y-107220000D01*
X185660001Y-107220000D02*
X185660001Y-105770000D01*
X187710001Y-105770000D02*
X187710001Y-107220000D01*
%TO.C,L18*%
X168659997Y-103299997D02*
X168659997Y-104749997D01*
X166609997Y-103299997D02*
X168659997Y-103299997D01*
X168659997Y-104749997D02*
X166609997Y-104749997D01*
X166609997Y-104749997D02*
X166609997Y-103299997D01*
D10*
%TO.C,D2*%
X61510330Y-117567499D02*
X62010330Y-116667499D01*
X61260330Y-119767499D02*
X62760330Y-119767499D01*
X62760330Y-114367499D02*
X61260330Y-114367499D01*
X61260330Y-114367499D02*
X61260330Y-119767499D01*
X62010330Y-116667499D02*
X62510330Y-117567499D01*
X62760330Y-119767499D02*
X62760330Y-114367499D01*
X62510330Y-116567499D02*
X61510330Y-116567499D01*
X62510330Y-117567499D02*
X61510330Y-117567499D01*
D12*
%TO.C,L9*%
X130555002Y-68059996D02*
X130555002Y-69509996D01*
X128505002Y-69509996D02*
X128505002Y-68059996D01*
X130555002Y-69509996D02*
X128505002Y-69509996D01*
X128505002Y-68059996D02*
X130555002Y-68059996D01*
D10*
%TO.C,D15*%
X147750342Y-130995503D02*
X148250342Y-131895503D01*
X148500342Y-128695503D02*
X147000342Y-128695503D01*
X148500342Y-134095503D02*
X148500342Y-128695503D01*
X147000342Y-134095503D02*
X148500342Y-134095503D01*
X147000342Y-128695503D02*
X147000342Y-134095503D01*
X148250342Y-131895503D02*
X147250342Y-131895503D01*
X148250342Y-130895503D02*
X147250342Y-130895503D01*
X147250342Y-131895503D02*
X147750342Y-130995503D01*
D12*
%TO.C,L6*%
X111510006Y-76179927D02*
X109460006Y-76179927D01*
X109460006Y-74729927D02*
X111510006Y-74729927D01*
X109460006Y-76179927D02*
X109460006Y-74729927D01*
X111510006Y-74729927D02*
X111510006Y-76179927D01*
D10*
%TO.C,D11*%
X135130336Y-112855496D02*
X135630336Y-113755496D01*
X135880336Y-115955496D02*
X135880336Y-110555496D01*
X134630336Y-113755496D02*
X135130336Y-112855496D01*
X134380336Y-115955496D02*
X135880336Y-115955496D01*
X135630336Y-112755496D02*
X134630336Y-112755496D01*
X135880336Y-110555496D02*
X134380336Y-110555496D01*
X135630336Y-113755496D02*
X134630336Y-113755496D01*
X134380336Y-110555496D02*
X134380336Y-115955496D01*
D12*
%TO.C,L19*%
X180114167Y-127050504D02*
X182094315Y-127581083D01*
X181719027Y-128981675D02*
X179738879Y-128451096D01*
X179738879Y-128451096D02*
X180114167Y-127050504D01*
X182094315Y-127581083D02*
X181719027Y-128981675D01*
D10*
%TO.C,D17*%
X173740331Y-92710335D02*
X172740331Y-92710335D01*
X173990331Y-94910335D02*
X173990331Y-89510335D01*
X172490331Y-94910335D02*
X173990331Y-94910335D01*
X172740331Y-92710335D02*
X173240331Y-91810335D01*
X173990331Y-89510335D02*
X172490331Y-89510335D01*
X172490331Y-89510335D02*
X172490331Y-94910335D01*
X173740331Y-91710335D02*
X172740331Y-91710335D01*
X173240331Y-91810335D02*
X173740331Y-92710335D01*
%TO.C,D5*%
X97760340Y-120069997D02*
X96260340Y-120069997D01*
X97010340Y-122369997D02*
X97510340Y-123269997D01*
X96260340Y-120069997D02*
X96260340Y-125469997D01*
X96510340Y-123269997D02*
X97010340Y-122369997D01*
X97510340Y-122269997D02*
X96510340Y-122269997D01*
X97760340Y-125469997D02*
X97760340Y-120069997D01*
X96260340Y-125469997D02*
X97760340Y-125469997D01*
X97510340Y-123269997D02*
X96510340Y-123269997D01*
D12*
%TO.C,L20*%
X187710003Y-69119998D02*
X185660003Y-69119998D01*
X185660003Y-69119998D02*
X185660003Y-67669998D01*
X185660003Y-67669998D02*
X187710003Y-67669998D01*
X187710003Y-67669998D02*
X187710003Y-69119998D01*
D10*
%TO.C,D1*%
X62750332Y-95320000D02*
X61250332Y-95320000D01*
X62500332Y-97520000D02*
X61500332Y-97520000D01*
X62750332Y-100720000D02*
X62750332Y-95320000D01*
X61250332Y-100720000D02*
X62750332Y-100720000D01*
X61250332Y-95320000D02*
X61250332Y-100720000D01*
X62500332Y-98520000D02*
X61500332Y-98520000D01*
X62000332Y-97620000D02*
X62500332Y-98520000D01*
X61500332Y-98520000D02*
X62000332Y-97620000D01*
%TO.C,D12*%
X154690339Y-71495499D02*
X153690339Y-71495499D01*
X153690339Y-72495499D02*
X154190339Y-71595499D01*
X153440339Y-74695499D02*
X154940339Y-74695499D01*
X154940339Y-74695499D02*
X154940339Y-69295499D01*
X154690339Y-72495499D02*
X153690339Y-72495499D01*
X154940339Y-69295499D02*
X153440339Y-69295499D01*
X154190339Y-71595499D02*
X154690339Y-72495499D01*
X153440339Y-69295499D02*
X153440339Y-74695499D01*
D12*
%TO.C,L5*%
X90410001Y-115689994D02*
X92460001Y-115689994D01*
X92460001Y-117139994D02*
X90410001Y-117139994D01*
X92460001Y-115689994D02*
X92460001Y-117139994D01*
X90410001Y-117139994D02*
X90410001Y-115689994D01*
D10*
%TO.C,D7*%
X115590339Y-101379994D02*
X116090339Y-100479994D01*
X115340339Y-98179994D02*
X115340339Y-103579994D01*
X116590339Y-100379994D02*
X115590339Y-100379994D01*
X115340339Y-103579994D02*
X116840339Y-103579994D01*
X116840339Y-103579994D02*
X116840339Y-98179994D01*
X116590339Y-101379994D02*
X115590339Y-101379994D01*
X116840339Y-98179994D02*
X115340339Y-98179994D01*
X116090339Y-100479994D02*
X116590339Y-101379994D01*
%TO.C,D8*%
X115340333Y-117229994D02*
X115340333Y-122629994D01*
X116840333Y-117229994D02*
X115340333Y-117229994D01*
X115340333Y-122629994D02*
X116840333Y-122629994D01*
X115590333Y-120429994D02*
X116090333Y-119529994D01*
X116840333Y-122629994D02*
X116840333Y-117229994D01*
X116590333Y-120429994D02*
X115590333Y-120429994D01*
X116590333Y-119429994D02*
X115590333Y-119429994D01*
X116090333Y-119529994D02*
X116590333Y-120429994D01*
D12*
%TO.C,L7*%
X111509997Y-93779997D02*
X111509997Y-95229997D01*
X109459997Y-93779997D02*
X111509997Y-93779997D01*
X109459997Y-95229997D02*
X109459997Y-93779997D01*
X111509997Y-95229997D02*
X109459997Y-95229997D01*
D10*
%TO.C,D20*%
X177040333Y-77130501D02*
X177040333Y-71730501D01*
X176790333Y-73930501D02*
X175790333Y-73930501D01*
X177040333Y-71730501D02*
X175540333Y-71730501D01*
X175790333Y-74930501D02*
X176290333Y-74030501D01*
X176790333Y-74930501D02*
X175790333Y-74930501D01*
X176290333Y-74030501D02*
X176790333Y-74930501D01*
X175540333Y-77130501D02*
X177040333Y-77130501D01*
X175540333Y-71730501D02*
X175540333Y-77130501D01*
D12*
%TO.C,L2*%
X73409998Y-111419995D02*
X71359998Y-111419995D01*
X71359998Y-111419995D02*
X71359998Y-109969995D01*
X73409998Y-109969995D02*
X73409998Y-111419995D01*
X71359998Y-109969995D02*
X73409998Y-109969995D01*
%TO.C,L4*%
X92460004Y-98089997D02*
X90410004Y-98089997D01*
X90410004Y-96639997D02*
X92460004Y-96639997D01*
X90410004Y-98089997D02*
X90410004Y-96639997D01*
X92460004Y-96639997D02*
X92460004Y-98089997D01*
D10*
%TO.C,D23*%
X196129515Y-148659238D02*
X196879515Y-147360200D01*
X194349259Y-147342732D02*
X193819836Y-146459719D01*
X194849259Y-146476706D02*
X194349259Y-147342732D01*
X191452977Y-145959238D02*
X196129515Y-148659238D01*
X196879515Y-147360200D02*
X192202977Y-144660200D01*
X192202977Y-144660200D02*
X191452977Y-145959238D01*
X193819836Y-146459719D02*
X194849259Y-146476706D01*
X193983233Y-145976706D02*
X193483233Y-146842732D01*
D12*
%TO.C,L8*%
X109459999Y-114279996D02*
X109459999Y-112829996D01*
X111509999Y-114279996D02*
X109459999Y-114279996D01*
X111509999Y-112829996D02*
X111509999Y-114279996D01*
X109459999Y-112829996D02*
X111509999Y-112829996D01*
%TO.C,L15*%
X157080003Y-123489997D02*
X159130003Y-123489997D01*
X159130003Y-123489997D02*
X159130003Y-124939997D01*
X157080003Y-124939997D02*
X157080003Y-123489997D01*
X159130003Y-124939997D02*
X157080003Y-124939997D01*
D10*
%TO.C,RSW1*%
X214130338Y-121695502D02*
X213880338Y-121695502D01*
X210630338Y-121695502D02*
X210630338Y-115695502D01*
X213880338Y-115695502D02*
X214130338Y-115695502D01*
X210630338Y-115695502D02*
X210880338Y-115695502D01*
X214130338Y-115695502D02*
X214130338Y-121695502D01*
X210880338Y-121695502D02*
X210630338Y-121695502D01*
%TO.C,D3*%
X97770335Y-87375502D02*
X97770335Y-81975502D01*
X97520335Y-84175502D02*
X96520335Y-84175502D01*
X96270335Y-81975502D02*
X96270335Y-87375502D01*
X96270335Y-87375502D02*
X97770335Y-87375502D01*
X97520335Y-85175502D02*
X96520335Y-85175502D01*
X97770335Y-81975502D02*
X96270335Y-81975502D01*
X97020335Y-84275502D02*
X97520335Y-85175502D01*
X96520335Y-85175502D02*
X97020335Y-84275502D01*
D12*
%TO.C,L11*%
X128504996Y-107609997D02*
X128504996Y-106159997D01*
X130554996Y-107609997D02*
X128504996Y-107609997D01*
X130554996Y-106159997D02*
X130554996Y-107609997D01*
X128504996Y-106159997D02*
X130554996Y-106159997D01*
%TO.C,L1*%
X71360003Y-90919999D02*
X73410003Y-90919999D01*
X73410003Y-90919999D02*
X73410003Y-92369999D01*
X73410003Y-92369999D02*
X71360003Y-92369999D01*
X71360003Y-92369999D02*
X71360003Y-90919999D01*
%TO.C,L23*%
X194947110Y-134001798D02*
X193691373Y-133276798D01*
X193691373Y-133276798D02*
X194716373Y-131501446D01*
X195972110Y-132226446D02*
X194947110Y-134001798D01*
X194716373Y-131501446D02*
X195972110Y-132226446D01*
D10*
%TO.C,D9*%
X135670339Y-73575502D02*
X134670339Y-73575502D01*
X134420339Y-76775502D02*
X135920339Y-76775502D01*
X134420339Y-71375502D02*
X134420339Y-76775502D01*
X135170339Y-73675502D02*
X135670339Y-74575502D01*
X135920339Y-71375502D02*
X134420339Y-71375502D01*
X135920339Y-76775502D02*
X135920339Y-71375502D01*
X135670339Y-74575502D02*
X134670339Y-74575502D01*
X134670339Y-74575502D02*
X135170339Y-73675502D01*
%TO.C,D13*%
X153440334Y-94130499D02*
X154940334Y-94130499D01*
X154690334Y-90930499D02*
X153690334Y-90930499D01*
X154690334Y-91930499D02*
X153690334Y-91930499D01*
X154190334Y-91030499D02*
X154690334Y-91930499D01*
X154940334Y-94130499D02*
X154940334Y-88730499D01*
X154940334Y-88730499D02*
X153440334Y-88730499D01*
X153440334Y-88730499D02*
X153440334Y-94130499D01*
X153690334Y-91930499D02*
X154190334Y-91030499D01*
D12*
%TO.C,L10*%
X128505000Y-87109996D02*
X130555000Y-87109996D01*
X128505000Y-88559996D02*
X128505000Y-87109996D01*
X130555000Y-88559996D02*
X128505000Y-88559996D01*
X130555000Y-87109996D02*
X130555000Y-88559996D01*
D10*
%TO.C,D6*%
X116090334Y-81419996D02*
X116590334Y-82319996D01*
X116590334Y-81319996D02*
X115590334Y-81319996D01*
X116840334Y-84519996D02*
X116840334Y-79119996D01*
X116590334Y-82319996D02*
X115590334Y-82319996D01*
X115340334Y-79119996D02*
X115340334Y-84519996D01*
X115590334Y-82319996D02*
X116090334Y-81419996D01*
X116840334Y-79119996D02*
X115340334Y-79119996D01*
X115340334Y-84519996D02*
X116840334Y-84519996D01*
D12*
%TO.C,L14*%
X149610001Y-102849996D02*
X147560001Y-102849996D01*
X147560001Y-102849996D02*
X147560001Y-101399996D01*
X147560001Y-101399996D02*
X149610001Y-101399996D01*
X149610001Y-101399996D02*
X149610001Y-102849996D01*
D10*
%TO.C,D4*%
X97760340Y-101019994D02*
X96260340Y-101019994D01*
X97010340Y-103319994D02*
X97510340Y-104219994D01*
X96510340Y-104219994D02*
X97010340Y-103319994D01*
X97510340Y-104219994D02*
X96510340Y-104219994D01*
X96260340Y-106419994D02*
X97760340Y-106419994D01*
X97510340Y-103219994D02*
X96510340Y-103219994D01*
X96260340Y-101019994D02*
X96260340Y-106419994D01*
X97760340Y-106419994D02*
X97760340Y-101019994D01*
D12*
%TO.C,L21*%
X187709997Y-88169994D02*
X185659997Y-88169994D01*
X185659997Y-88169994D02*
X185659997Y-86719994D01*
X185659997Y-86719994D02*
X187709997Y-86719994D01*
X187709997Y-86719994D02*
X187709997Y-88169994D01*
%TO.C,*%
G36*
X201082479Y-90284769D02*
G01*
X201171039Y-90038558D01*
X201248293Y-89823007D01*
X201313179Y-89641066D01*
X201364636Y-89495685D01*
X201401602Y-89389814D01*
X201423015Y-89326404D01*
X201428239Y-89308317D01*
X201421760Y-89279972D01*
X201402790Y-89205207D01*
X201372031Y-89086661D01*
X201330184Y-88926971D01*
X201277949Y-88728776D01*
X201216029Y-88494714D01*
X201145122Y-88227422D01*
X201065932Y-87929538D01*
X200979158Y-87603701D01*
X200885502Y-87252549D01*
X200785666Y-86878719D01*
X200680349Y-86484849D01*
X200570253Y-86073578D01*
X200456079Y-85647543D01*
X200381724Y-85370337D01*
X200262968Y-84927086D01*
X200148132Y-84497170D01*
X200037909Y-84083235D01*
X199932989Y-83687928D01*
X199834065Y-83313897D01*
X199741829Y-82963790D01*
X199656971Y-82640252D01*
X199580184Y-82345933D01*
X199512159Y-82083478D01*
X199453588Y-81855536D01*
X199405163Y-81664753D01*
X199367575Y-81513778D01*
X199341515Y-81405257D01*
X199327677Y-81341837D01*
X199325569Y-81328055D01*
X199334941Y-81139309D01*
X199388638Y-80972384D01*
X199484636Y-80830990D01*
X199620912Y-80718839D01*
X199674018Y-80689060D01*
X199837719Y-80631835D01*
X200000975Y-80622766D01*
X200157512Y-80659545D01*
X200301053Y-80739864D01*
X200425322Y-80861415D01*
X200512038Y-80997252D01*
X200524406Y-81033108D01*
X200548959Y-81114974D01*
X200584850Y-81239759D01*
X200631231Y-81404372D01*
X200687256Y-81605725D01*
X200752077Y-81840725D01*
X200824846Y-82106283D01*
X200904717Y-82399309D01*
X200990842Y-82716711D01*
X201082374Y-83055401D01*
X201178465Y-83412286D01*
X201278268Y-83784278D01*
X201362442Y-84099011D01*
X201464253Y-84480039D01*
X201562632Y-84847848D01*
X201656766Y-85199408D01*
X201745838Y-85531693D01*
X201829034Y-85841674D01*
X201905539Y-86126324D01*
X201974538Y-86382614D01*
X202035216Y-86607518D01*
X202086757Y-86798006D01*
X202128347Y-86951051D01*
X202159170Y-87063625D01*
X202178412Y-87132700D01*
X202185041Y-87154924D01*
X202195971Y-87145154D01*
X202220702Y-87094917D01*
X202259578Y-87003316D01*
X202312943Y-86869453D01*
X202381142Y-86692430D01*
X202464519Y-86471349D01*
X202563417Y-86205313D01*
X202678183Y-85893424D01*
X202809159Y-85534783D01*
X202861955Y-85389624D01*
X202968658Y-85097003D01*
X203071710Y-84816402D01*
X203169616Y-84551774D01*
X203260877Y-84307070D01*
X203343999Y-84086245D01*
X203417485Y-83893250D01*
X203479838Y-83732039D01*
X203529562Y-83606564D01*
X203565160Y-83520778D01*
X203585138Y-83478633D01*
X203585724Y-83477705D01*
X203648185Y-83400759D01*
X203728575Y-83324912D01*
X203761180Y-83299905D01*
X203825528Y-83258696D01*
X203883783Y-83235393D01*
X203954915Y-83225047D01*
X204057138Y-83222711D01*
X204159870Y-83225081D01*
X204230867Y-83235490D01*
X204289102Y-83258887D01*
X204353097Y-83299905D01*
X204433254Y-83367482D01*
X204506363Y-83447185D01*
X204528553Y-83477705D01*
X204547673Y-83517461D01*
X204582493Y-83601064D01*
X204631516Y-83724563D01*
X204693246Y-83884005D01*
X204766186Y-84075437D01*
X204848842Y-84294906D01*
X204939715Y-84538459D01*
X205037310Y-84802145D01*
X205140131Y-85082009D01*
X205246680Y-85374100D01*
X205252322Y-85389624D01*
X205389098Y-85765019D01*
X205509549Y-86093391D01*
X205614043Y-86375697D01*
X205702946Y-86612895D01*
X205776627Y-86805942D01*
X205835451Y-86955795D01*
X205879786Y-87063410D01*
X205910000Y-87129745D01*
X205926458Y-87155757D01*
X205929342Y-87154924D01*
X205938161Y-87124972D01*
X205959226Y-87048955D01*
X205991723Y-86929903D01*
X206034839Y-86770844D01*
X206087760Y-86574806D01*
X206149672Y-86344818D01*
X206219762Y-86083908D01*
X206297216Y-85795106D01*
X206381221Y-85481438D01*
X206470962Y-85145935D01*
X206565626Y-84791624D01*
X206664399Y-84421534D01*
X206750394Y-84099011D01*
X206852352Y-83717070D01*
X206951247Y-83347808D01*
X207046239Y-82994307D01*
X207136486Y-82659646D01*
X207221145Y-82346906D01*
X207299377Y-82059168D01*
X207370339Y-81799511D01*
X207433190Y-81571018D01*
X207487088Y-81376767D01*
X207531192Y-81219840D01*
X207564661Y-81103317D01*
X207586652Y-81030279D01*
X207595556Y-81004948D01*
X207699436Y-80847951D01*
X207827358Y-80730251D01*
X207973218Y-80654129D01*
X208130914Y-80621867D01*
X208294342Y-80635749D01*
X208440259Y-80689061D01*
X208589300Y-80790816D01*
X208698728Y-80923036D01*
X208766524Y-81082020D01*
X208790670Y-81264069D01*
X208788751Y-81328055D01*
X208781130Y-81368552D01*
X208760943Y-81455459D01*
X208728878Y-81586147D01*
X208685621Y-81757986D01*
X208631861Y-81968346D01*
X208568283Y-82214597D01*
X208495575Y-82494108D01*
X208414424Y-82804251D01*
X208325518Y-83142394D01*
X208229544Y-83505909D01*
X208127188Y-83892164D01*
X208019138Y-84298530D01*
X207906080Y-84722377D01*
X207788704Y-85161075D01*
X207732596Y-85370317D01*
X207616190Y-85804362D01*
X207503416Y-86225320D01*
X207394977Y-86630552D01*
X207291572Y-87017422D01*
X207193903Y-87383291D01*
X207102671Y-87725521D01*
X207018576Y-88041474D01*
X206942321Y-88328512D01*
X206874607Y-88583997D01*
X206816133Y-88805291D01*
X206767602Y-88989756D01*
X206729714Y-89134755D01*
X206703170Y-89237649D01*
X206688672Y-89295799D01*
X206686039Y-89308298D01*
X206694583Y-89336539D01*
X206719507Y-89409542D01*
X206759751Y-89524356D01*
X206814252Y-89678032D01*
X206881948Y-89867619D01*
X206961780Y-90090167D01*
X207052684Y-90342727D01*
X207153600Y-90622347D01*
X207263466Y-90926079D01*
X207381221Y-91250971D01*
X207505802Y-91594074D01*
X207636149Y-91952437D01*
X207741152Y-92240691D01*
X207903555Y-92686322D01*
X208049372Y-93086851D01*
X208179438Y-93444898D01*
X208294590Y-93763080D01*
X208395664Y-94044015D01*
X208483493Y-94290321D01*
X208558915Y-94504617D01*
X208622766Y-94689521D01*
X208675879Y-94847650D01*
X208719092Y-94981624D01*
X208753240Y-95094059D01*
X208779159Y-95187575D01*
X208797683Y-95264790D01*
X208809650Y-95328320D01*
X208815894Y-95380786D01*
X208817251Y-95424804D01*
X208814557Y-95462994D01*
X208808647Y-95497972D01*
X208800357Y-95532358D01*
X208796438Y-95546992D01*
X208732075Y-95694501D01*
X208629587Y-95822573D01*
X208499117Y-95923326D01*
X208350805Y-95988874D01*
X208199134Y-96011362D01*
X208028620Y-95987037D01*
X207875654Y-95916023D01*
X207743003Y-95800239D01*
X207633438Y-95641599D01*
X207616035Y-95607940D01*
X207598163Y-95565479D01*
X207564533Y-95479234D01*
X207516626Y-95353201D01*
X207455925Y-95191380D01*
X207383912Y-94997770D01*
X207302069Y-94776369D01*
X207211880Y-94531178D01*
X207114825Y-94266194D01*
X207012388Y-93985416D01*
X206906050Y-93692844D01*
X206901812Y-93681161D01*
X206245380Y-91871411D01*
X201868897Y-91871411D01*
X201212465Y-93681161D01*
X201106004Y-93974115D01*
X201003386Y-94255431D01*
X200906092Y-94521111D01*
X200815604Y-94767156D01*
X200733406Y-94989567D01*
X200660978Y-95184345D01*
X200599805Y-95347491D01*
X200551367Y-95475005D01*
X200517148Y-95562890D01*
X200498629Y-95607147D01*
X200498242Y-95607940D01*
X200394690Y-95771765D01*
X200268722Y-95894750D01*
X200125411Y-95974902D01*
X199969829Y-96010229D01*
X199807048Y-95998738D01*
X199648618Y-95941761D01*
X199509971Y-95846430D01*
X199399008Y-95719922D01*
X199326248Y-95574789D01*
X199317839Y-95546992D01*
X199308811Y-95512088D01*
X199301818Y-95477672D01*
X199297695Y-95441125D01*
X199297278Y-95399830D01*
X199301404Y-95351169D01*
X199310907Y-95292523D01*
X199326623Y-95221274D01*
X199349388Y-95134804D01*
X199380038Y-95030496D01*
X199419408Y-94905730D01*
X199468334Y-94757889D01*
X199527651Y-94584354D01*
X199598195Y-94382508D01*
X199680802Y-94149732D01*
X199776307Y-93883409D01*
X199885546Y-93580919D01*
X200009355Y-93239645D01*
X200148569Y-92856969D01*
X200304025Y-92430272D01*
X200373125Y-92240691D01*
X200507232Y-91872472D01*
X200636403Y-91517212D01*
X200759574Y-91177862D01*
X200875685Y-90857371D01*
X200975115Y-90582361D01*
X202342925Y-90582361D01*
X202367586Y-90585580D01*
X202438913Y-90588629D01*
X202552770Y-90591460D01*
X202705024Y-90594029D01*
X202891539Y-90596289D01*
X203108182Y-90598195D01*
X203350817Y-90599700D01*
X203615310Y-90600759D01*
X203897527Y-90601325D01*
X204060101Y-90601411D01*
X204397573Y-90601355D01*
X204687765Y-90601127D01*
X204934194Y-90600634D01*
X205140381Y-90599786D01*
X205309843Y-90598490D01*
X205446101Y-90596655D01*
X205552673Y-90594188D01*
X205633078Y-90590999D01*
X205690836Y-90586995D01*
X205729465Y-90582084D01*
X205752484Y-90576175D01*
X205763412Y-90569177D01*
X205765769Y-90560996D01*
X205764986Y-90556961D01*
X205754514Y-90526764D01*
X205727902Y-90452470D01*
X205686462Y-90337688D01*
X205631508Y-90186027D01*
X205564351Y-90001097D01*
X205486305Y-89786509D01*
X205398681Y-89545871D01*
X205302792Y-89282795D01*
X205199951Y-89000889D01*
X205091471Y-88703764D01*
X205028469Y-88531311D01*
X204914225Y-88218597D01*
X204802556Y-87912816D01*
X204695047Y-87618312D01*
X204593281Y-87339428D01*
X204498843Y-87080509D01*
X204413317Y-86845901D01*
X204338286Y-86639946D01*
X204275334Y-86466990D01*
X204226047Y-86331377D01*
X204192007Y-86237450D01*
X204183272Y-86213239D01*
X204139452Y-86093138D01*
X204101753Y-85992897D01*
X204073392Y-85920838D01*
X204057587Y-85885283D01*
X204055571Y-85883039D01*
X204046093Y-85907365D01*
X204020544Y-85975882D01*
X203980225Y-86085045D01*
X203926435Y-86231307D01*
X203860473Y-86411123D01*
X203783639Y-86620945D01*
X203697230Y-86857227D01*
X203602547Y-87116423D01*
X203500888Y-87394986D01*
X203393553Y-87689370D01*
X203336660Y-87845511D01*
X203222892Y-88157758D01*
X203111224Y-88464131D01*
X203003301Y-88760122D01*
X202900768Y-89041224D01*
X202805271Y-89302930D01*
X202718454Y-89540733D01*
X202641964Y-89750126D01*
X202577443Y-89926602D01*
X202526539Y-90065653D01*
X202490896Y-90162774D01*
X202483701Y-90182311D01*
X202436010Y-90312736D01*
X202395219Y-90426367D01*
X202364321Y-90514702D01*
X202346309Y-90569235D01*
X202342925Y-90582361D01*
X200975115Y-90582361D01*
X200983673Y-90558690D01*
X201082479Y-90284769D01*
G37*
D10*
%TO.C,D14*%
X154690334Y-107989995D02*
X153690334Y-107989995D01*
X154190334Y-108089995D02*
X154690334Y-108989995D01*
X153440334Y-105789995D02*
X153440334Y-111189995D01*
X154690334Y-108989995D02*
X153690334Y-108989995D01*
X154940334Y-111189995D02*
X154940334Y-105789995D01*
X154940334Y-105789995D02*
X153440334Y-105789995D01*
X153440334Y-111189995D02*
X154940334Y-111189995D01*
X153690334Y-108989995D02*
X154190334Y-108089995D01*
%TO.C,D21*%
X175540331Y-90780501D02*
X175540331Y-96180501D01*
X176790331Y-93980501D02*
X175790331Y-93980501D01*
X177040331Y-90780501D02*
X175540331Y-90780501D01*
X175790331Y-93980501D02*
X176290331Y-93080501D01*
X176790331Y-92980501D02*
X175790331Y-92980501D01*
X177040331Y-96180501D02*
X177040331Y-90780501D01*
X175540331Y-96180501D02*
X177040331Y-96180501D01*
X176290331Y-93080501D02*
X176790331Y-93980501D01*
%TO.C,D16*%
X173740335Y-72145499D02*
X172740335Y-72145499D01*
X173740335Y-73145499D02*
X172740335Y-73145499D01*
X172490335Y-69945499D02*
X172490335Y-75345499D01*
X172740335Y-73145499D02*
X173240335Y-72245499D01*
X173240335Y-72245499D02*
X173740335Y-73145499D01*
X173990335Y-69945499D02*
X172490335Y-69945499D01*
X173990335Y-75345499D02*
X173990335Y-69945499D01*
X172490335Y-75345499D02*
X173990335Y-75345499D01*
%TO.C,D18*%
X173740338Y-111245499D02*
X172740338Y-111245499D01*
X172490338Y-113445499D02*
X173990338Y-113445499D01*
X173740338Y-110245499D02*
X172740338Y-110245499D01*
X173990338Y-113445499D02*
X173990338Y-108045499D01*
X172740338Y-111245499D02*
X173240338Y-110345499D01*
X172490338Y-108045499D02*
X172490338Y-113445499D01*
X173990338Y-108045499D02*
X172490338Y-108045499D01*
X173240338Y-110345499D02*
X173740338Y-111245499D01*
D12*
%TO.C,L17*%
X168659995Y-84249995D02*
X168659995Y-85699995D01*
X166609995Y-85699995D02*
X166609995Y-84249995D01*
X168659995Y-85699995D02*
X166609995Y-85699995D01*
X166609995Y-84249995D02*
X168659995Y-84249995D01*
%TO.C,L13*%
X149610005Y-82350001D02*
X149610005Y-83800001D01*
X149610005Y-83800001D02*
X147560005Y-83800001D01*
X147560005Y-83800001D02*
X147560005Y-82350001D01*
X147560005Y-82350001D02*
X149610005Y-82350001D01*
D10*
%TO.C,D19*%
X167693146Y-131592006D02*
X166727221Y-131333187D01*
X167443121Y-130593264D02*
X167693146Y-131592006D01*
X168762849Y-128565749D02*
X167313960Y-128177520D01*
X167365226Y-133781748D02*
X168762849Y-128565749D01*
X167951965Y-130626081D02*
X166986040Y-130367262D01*
X166727221Y-131333187D02*
X167443121Y-130593264D01*
X167313960Y-128177520D02*
X165916337Y-133393519D01*
X165916337Y-133393519D02*
X167365226Y-133781748D01*
%TO.C,U1*%
X210503230Y-74020587D02*
X213043230Y-74020587D01*
X213043230Y-104500587D02*
X210503230Y-104500587D01*
X210503230Y-104500587D02*
X210503230Y-74020587D01*
X195263230Y-104500587D02*
X195263230Y-74020587D01*
X195263230Y-74020587D02*
X197803230Y-74020587D01*
X197803230Y-104500587D02*
X195263230Y-104500587D01*
X197803230Y-74020587D02*
X197803230Y-104500587D01*
X213043230Y-74020587D02*
X213043230Y-104500587D01*
%TO.C,J1*%
X202210727Y-111830586D02*
X202210727Y-105830586D01*
X214210727Y-105830586D02*
X214210727Y-111830586D01*
X214210727Y-111830586D02*
X202210727Y-111830586D01*
X202210727Y-105830586D02*
X214210727Y-105830586D01*
D12*
%TO.C,L16*%
X168659999Y-65199996D02*
X168659999Y-66649996D01*
X166609999Y-66649996D02*
X166609999Y-65199996D01*
X166609999Y-65199996D02*
X168659999Y-65199996D01*
X168659999Y-66649996D02*
X166609999Y-66649996D01*
D10*
%TO.C,D22*%
X175540330Y-109830505D02*
X175540330Y-115230505D01*
X176290330Y-112130505D02*
X176790330Y-113030505D01*
X175540330Y-115230505D02*
X177040330Y-115230505D01*
X177040330Y-109830505D02*
X175540330Y-109830505D01*
X175790330Y-113030505D02*
X176290330Y-112130505D01*
X176790330Y-113030505D02*
X175790330Y-113030505D01*
X176790330Y-112030505D02*
X175790330Y-112030505D01*
X177040330Y-115230505D02*
X177040330Y-109830505D01*
D12*
%TO.C,L3*%
X92459997Y-77589995D02*
X92459997Y-79039995D01*
X90409997Y-79039995D02*
X90409997Y-77589995D01*
X90409997Y-77589995D02*
X92459997Y-77589995D01*
X92459997Y-79039995D02*
X90409997Y-79039995D01*
%TD*%
M02*
