M48
; DRILL file {KiCad (6.0.0)} date Sat Jan  1 14:12:26 2022
; FORMAT={-:-/ absolute / inch / decimal}
; #@! TF.CreationDate,2022-01-01T14:12:26+04:00
; #@! TF.GenerationSoftware,Kicad,Pcbnew,(6.0.0)
; #@! TF.FileFunction,NonPlated,1,2,NPTH
FMAT,2
INCH
; #@! TA.AperFunction,NonPlated,NPTH,ComponentDrill
T1C0.0394
; #@! TA.AperFunction,NonPlated,NPTH,ComponentDrill
T2C0.0472
; #@! TA.AperFunction,NonPlated,NPTH,ComponentDrill
T3C0.0669
; #@! TA.AperFunction,NonPlated,NPTH,ComponentDrill
T4C0.0748
; #@! TA.AperFunction,NonPlated,NPTH,ComponentDrill
T5C0.1575
%
G90
G05
T1
X2.5496Y-3.6937
X2.5496Y-4.4437
X2.9606Y-3.6937
X2.9606Y-4.4437
X3.2992Y-4.6685
X3.2992Y-3.1685
X3.2992Y-3.9185
X3.7102Y-4.6685
X3.7102Y-3.1685
X3.7102Y-3.9185
X4.0492Y-3.0559
X4.0496Y-4.5563
X4.0496Y-3.8063
X4.4602Y-3.0559
X4.4606Y-4.5563
X4.4606Y-3.8063
X4.7996Y-4.2937
X4.7996Y-3.5437
X4.7996Y-2.7937
X5.2106Y-4.2937
X5.2106Y-3.5437
X5.2106Y-2.7937
X5.5496Y-3.3559
X5.5496Y-4.1059
X5.5496Y-2.6059
X5.9244Y-4.976
X5.9606Y-3.3559
X5.9606Y-4.1059
X5.9606Y-2.6059
X6.2996Y-4.1811
X6.2996Y-2.6811
X6.2996Y-3.4311
X6.3354Y-4.976
X6.7106Y-4.1811
X6.7106Y-2.6811
X6.7106Y-3.4311
X6.8106Y-5.0451
X7.0496Y-2.7783
X7.0496Y-3.5287
X7.0496Y-4.2783
X7.2076Y-5.1515
X7.4606Y-2.7783
X7.4606Y-3.5287
X7.4606Y-4.2783
X7.5947Y-5.5293
X7.8002Y-5.1733
T2
X8.0988Y-4.2847
X8.0988Y-4.3536
X8.3744Y-4.2847
X8.3744Y-4.3536
T3
X2.5551Y-3.8591
X2.5551Y-4.6091
X2.9551Y-3.8591
X2.9551Y-4.6091
X3.3047Y-4.8339
X3.3047Y-3.3339
X3.3047Y-4.0839
X3.7047Y-4.8339
X3.7047Y-3.3339
X3.7047Y-4.0839
X4.0547Y-3.2213
X4.0551Y-4.7217
X4.0551Y-3.9717
X4.4547Y-3.2213
X4.4551Y-4.7217
X4.4551Y-3.9717
X4.8051Y-4.4591
X4.8051Y-3.7091
X4.8051Y-2.9591
X5.2051Y-4.4591
X5.2051Y-3.7091
X5.2051Y-2.9591
X5.5551Y-3.5213
X5.5551Y-4.2713
X5.5551Y-2.7713
X5.9299Y-5.1413
X5.9551Y-3.5213
X5.9551Y-4.2713
X5.9551Y-2.7713
X6.3051Y-4.3465
X6.3051Y-2.8465
X6.3051Y-3.5965
X6.3299Y-5.1413
X6.7051Y-4.3465
X6.7051Y-2.8465
X6.7051Y-3.5965
X6.7731Y-5.2062
X7.0551Y-2.9437
X7.0551Y-3.6941
X7.0551Y-4.4437
X7.1595Y-5.3098
X7.4551Y-2.9437
X7.4551Y-3.6941
X7.4551Y-4.4437
X7.7406Y-5.6072
X7.9406Y-5.2608
T4
X2.5386Y-3.8591
X2.5386Y-4.6091
X2.9717Y-3.8591
X2.9717Y-4.6091
X3.2882Y-4.8339
X3.2882Y-3.3339
X3.2882Y-4.0839
X3.7213Y-4.8339
X3.7213Y-3.3339
X3.7213Y-4.0839
X4.0382Y-3.2213
X4.0386Y-4.7217
X4.0386Y-3.9717
X4.4713Y-3.2213
X4.4717Y-4.7217
X4.4717Y-3.9717
X4.7886Y-4.4591
X4.7886Y-3.7091
X4.7886Y-2.9591
X5.2217Y-4.4591
X5.2217Y-3.7091
X5.2217Y-2.9591
X5.5386Y-3.5213
X5.5386Y-4.2713
X5.5386Y-2.7713
X5.9134Y-5.1413
X5.9717Y-3.5213
X5.9717Y-4.2713
X5.9717Y-2.7713
X6.2886Y-4.3465
X6.2886Y-2.8465
X6.2886Y-3.5965
X6.3465Y-5.1413
X6.7217Y-4.3465
X6.7217Y-2.8465
X6.7217Y-3.5965
X6.7571Y-5.2019
X7.0386Y-2.9437
X7.0386Y-3.6941
X7.0386Y-4.4437
X7.1754Y-5.314
X7.4717Y-2.9437
X7.4717Y-3.6941
X7.4717Y-4.4437
X7.7324Y-5.6215
X7.9489Y-5.2465
T5
X2.7551Y-3.8591
X2.7551Y-4.6091
X3.5047Y-4.8339
X3.5047Y-3.3339
X3.5047Y-4.0839
X4.2547Y-3.2213
X4.2551Y-4.7217
X4.2551Y-3.9717
X5.0051Y-4.4591
X5.0051Y-3.7091
X5.0051Y-2.9591
X5.7551Y-3.5213
X5.7551Y-4.2713
X5.7551Y-2.7713
X6.1299Y-5.1413
X6.5051Y-4.3465
X6.5051Y-2.8465
X6.5051Y-3.5965
X6.9663Y-5.258
X7.2551Y-2.9437
X7.2551Y-3.6941
X7.2551Y-4.4437
X7.8406Y-5.434
T0
M30
