M48
; DRILL file {KiCad (6.0.0)} date Sat Jan  1 14:12:26 2022
; FORMAT={-:-/ absolute / inch / decimal}
; #@! TF.CreationDate,2022-01-01T14:12:26+04:00
; #@! TF.GenerationSoftware,Kicad,Pcbnew,(6.0.0)
; #@! TF.FileFunction,Plated,1,2,PTH
FMAT,2
INCH
; #@! TA.AperFunction,Plated,PTH,ViaDrill
T1C0.0157
; #@! TA.AperFunction,Plated,PTH,ComponentDrill
T2C0.0320
; #@! TA.AperFunction,Plated,PTH,ComponentDrill
T3C0.0394
; #@! TA.AperFunction,Plated,PTH,ComponentDrill
T4C0.0472
; #@! TA.AperFunction,Plated,PTH,ComponentDrill
T5C0.0512
; #@! TA.AperFunction,Plated,PTH,ComponentDrill
T6C0.0591
; #@! TA.AperFunction,Plated,PTH,ComponentDrill
T7C0.1614
%
G90
G05
T1
X2.6045Y-3.6422
X2.6061Y-4.3918
X2.6207Y-4.1356
X2.6364Y-4.8856
X2.6602Y-4.502
X2.6606Y-3.7508
X2.8496Y-4.3044
X2.8498Y-3.5493
X2.9183Y-3.6083
X2.9214Y-4.3583
X3.011Y-3.7912
X3.074Y-3.768
X3.1651Y-3.6044
X3.1907Y-4.3284
X3.1916Y-3.5815
X3.2014Y-4.178
X3.2242Y-3.9449
X3.2555Y-3.9756
X3.2584Y-3.5815
X3.2589Y-3.8358
X3.3039Y-3.7067
X3.3039Y-3.7835
X3.3276Y-3.2379
X3.3411Y-3.8075
X3.3521Y-4.6182
X3.3541Y-3.8678
X3.3553Y-3.1182
X3.3829Y-3.2378
X3.4096Y-3.2032
X3.4106Y-4.726
X3.4106Y-3.976
X3.5996Y-4.5047
X3.5998Y-3.7764
X3.5998Y-3.0304
X3.6675Y-3.0831
X3.6789Y-4.5831
X3.6844Y-3.8331
X3.8608Y-3.0398
X3.8876Y-3.1634
X3.8907Y-2.9721
X3.9052Y-3.0276
X3.9799Y-3.8776
X3.9799Y-4.648
X3.9832Y-2.9497
X4.0539Y-3.604
X4.0543Y-4.3599
X4.099Y-4.5134
X4.1014Y-3.7552
X4.1014Y-3.6048
X4.1057Y-3.0052
X4.151Y-4.3571
X4.1604Y-3.0898
X4.1606Y-4.6134
X4.1606Y-3.8634
X4.3496Y-2.9205
X4.3496Y-3.6662
X4.3496Y-4.3965
X4.4159Y-2.9705
X4.4234Y-4.4705
X4.4297Y-3.7209
X4.5096Y-3.1217
X4.5128Y-3.8729
X4.6462Y-4.4438
X4.6943Y-4.4304
X4.7034Y-3.8162
X4.7034Y-3.088
X4.7226Y-4.3686
X4.7277Y-3.891
X4.7582Y-3.5168
X4.7683Y-3.1812
X4.8043Y-4.091
X4.8043Y-3.3366
X4.8427Y-3.4725
X4.847Y-4.243
X4.8525Y-2.7426
X4.9102Y-4.3508
X4.9106Y-3.6008
X4.9106Y-2.8508
X5.0939Y-3.3201
X5.0994Y-3.4024
X5.0996Y-4.1343
X5.1006Y-2.6548
X5.1706Y-2.7327
X5.1769Y-4.2079
X5.1836Y-3.4579
X5.1848Y-3.3201
X5.3773Y-3.6079
X5.4799Y-4.178
X5.4799Y-3.4477
X5.5543Y-3.9063
X5.5785Y-3.1772
X5.599Y-2.5623
X5.6002Y-4.0552
X5.6124Y-3.3051
X5.6435Y-3.0938
X5.6606Y-2.6634
X5.6606Y-3.4142
X5.6606Y-4.1638
X5.6938Y-3.0672
X5.712Y-3.1256
X5.7557Y-3.1164
X5.8494Y-2.4674
X5.8496Y-3.9469
X5.8498Y-3.2154
X5.9132Y-3.2705
X5.9258Y-2.5205
X5.9281Y-4.0205
X5.9435Y-4.8378
X5.9773Y-4.9249
X5.9951Y-3.7815
X6.0002Y-3.73
X6.0037Y-2.9693
X6.0065Y-4.1721
X6.0092Y-3.4308
X6.012Y-2.6788
X6.0124Y-4.8378
X6.0355Y-5.0339
X6.04Y-5.4221
X6.2034Y-3.5543
X6.2034Y-3.5052
X6.2248Y-4.8374
X6.2305Y-4.1599
X6.2321Y-4.291
X6.2328Y-4.2184
X6.2331Y-2.793
X6.2331Y-2.7316
X6.2477Y-3.3882
X6.2932Y-4.8904
X6.3043Y-3.976
X6.3043Y-3.2154
X6.345Y-4.1296
X6.3536Y-3.38
X6.3541Y-2.6375
X6.4106Y-3.4878
X6.4106Y-4.2382
X6.4106Y-2.7382
X6.5361Y-3.1838
X6.5425Y-5.1034
X6.5581Y-5.0452
X6.56Y-3.2158
X6.5769Y-3.9461
X6.5996Y-4.018
X6.5998Y-3.291
X6.5998Y-2.543
X6.6112Y-3.1835
X6.6113Y-4.8467
X6.6195Y-3.9032
X6.6339Y-4.7632
X6.6502Y-3.2158
X6.6646Y-2.5953
X6.6695Y-3.3453
X6.6744Y-4.0953
X6.7541Y-3.9278
X6.7957Y-5.5063
X6.8696Y-5.0083
X6.9026Y-5.1303
X6.9143Y-3.467
X6.9799Y-4.2203
X7.0541Y-3.326
X7.0543Y-4.0713
X7.1005Y-4.193
X7.1053Y-3.4772
X7.1064Y-2.7272
X7.1226Y-3.2504
X7.1315Y-4.7193
X7.1404Y-3.9693
X7.142Y-4.9674
X7.1457Y-3.2751
X7.1492Y-3.2203
X7.1606Y-2.8354
X7.1606Y-3.5854
X7.1606Y-4.3354
X7.1632Y-4.0245
X7.1874Y-5.0576
X7.1907Y-3.9981
X7.2238Y-4.0388
X7.3199Y-3.2926
X7.3321Y-4.015
X7.3419Y-3.2634
X7.3496Y-2.6406
X7.3496Y-3.3878
X7.3497Y-4.1172
X7.4169Y-4.1925
X7.4233Y-2.6926
X7.4246Y-3.4426
X7.4945Y-3.324
X7.4957Y-3.2807
X7.4961Y-2.8835
X7.5022Y-3.6295
X7.5214Y-4.2215
X7.5216Y-4.0454
X7.5217Y-4.1677
X7.5476Y-4.374
X7.5476Y-4.7889
X7.548Y-4.0283
X7.5504Y-3.9471
X7.5514Y-3.6295
X7.5665Y-3.2705
X7.5673Y-3.324
X7.5766Y-5.4578
X7.5854Y-3.5854
X7.5854Y-4.0835
X7.5854Y-4.148
X7.5858Y-3.1453
X7.6012Y-3.2819
X7.6061Y-5.1898
X7.6191Y-5.0515
X7.6191Y-4.8708
X7.6472Y-3.1347
X7.6472Y-3.202
X7.648Y-3.9571
X7.6526Y-3.7713
X7.6532Y-3.0995
X7.6562Y-4.7948
X7.6562Y-4.885
X7.6768Y-4.1445
X7.6776Y-3.1937
X7.6827Y-4.2114
X7.6999Y-5.4613
X7.704Y-5.1686
X7.8543Y-4.0992
X7.9071Y-5.1908
X7.9459Y-5.1236
X7.9748Y-3.2642
X8.0217Y-3.954
X8.024Y-3.6532
X8.0248Y-3.7543
X8.0272Y-3.1579
X8.0272Y-3.0595
X8.0272Y-4.0532
X8.0284Y-3.5528
X8.0295Y-3.8543
X8.0311Y-2.9571
X8.0311Y-3.3547
X8.0331Y-5.6708
X8.0351Y-3.4492
X8.0669Y-3.2448
X8.0756Y-3.7142
X8.0764Y-3.9142
X8.0799Y-2.9142
X8.0811Y-3.6142
X8.0831Y-3.0642
X8.0839Y-3.5142
X8.0851Y-4.0142
X8.0878Y-3.8142
X8.0894Y-3.3142
X8.0902Y-3.4142
X8.0917Y-3.0142
X8.2224Y-4.1141
X8.2504Y-3.1642
X8.2504Y-4.0913
T2
X2.441Y-3.7091
X2.441Y-4.0091
X2.4414Y-4.459
X2.4414Y-4.759
X3.8193Y-3.9335
X3.8193Y-4.2335
X3.8193Y-4.6835
X3.8193Y-4.9835
X3.8197Y-3.1837
X3.8197Y-3.4837
X4.5705Y-4.5717
X4.5705Y-4.8717
X4.5705Y-3.0713
X4.5705Y-3.3713
X4.5705Y-3.8217
X4.5705Y-4.1217
X5.3201Y-3.5589
X5.3201Y-3.8589
X5.3201Y-4.3089
X5.3201Y-4.6089
X5.3217Y-2.7664
X5.3217Y-3.0664
X5.8169Y-5.0231
X5.8169Y-5.3231
X6.0705Y-3.4496
X6.0705Y-3.7496
X6.0705Y-4.1213
X6.0705Y-4.4213
X6.0705Y-2.6845
X6.0705Y-2.9845
X6.5494Y-5.3016
X6.627Y-5.0118
X6.8205Y-3.4803
X6.8205Y-3.7803
X6.8205Y-2.7101
X6.8205Y-3.0101
X6.8205Y-4.2101
X6.8205Y-4.5101
X6.9406Y-4.2803
X6.9406Y-4.5803
X6.9406Y-3.5303
X6.9406Y-3.8303
X6.9406Y-2.7803
X6.9406Y-3.0803
X7.5144Y-5.699
X7.7375Y-2.9642
X7.7375Y-3.0642
X7.7375Y-3.1642
X7.7375Y-3.2642
X7.7375Y-3.3642
X7.7375Y-3.4642
X7.7375Y-3.5642
X7.7375Y-3.6642
X7.7375Y-3.7642
X7.7375Y-3.8642
X7.7375Y-3.9642
X7.7375Y-4.0642
X7.7742Y-5.849
X7.7897Y-2.9142
X7.7897Y-3.0142
X7.7897Y-3.1142
X7.7897Y-3.2142
X7.7897Y-3.3142
X7.7897Y-3.4142
X7.7897Y-3.5142
X7.7897Y-3.6142
X7.7897Y-3.7142
X7.7897Y-3.8142
X7.7897Y-3.9142
X7.7897Y-4.0142
X8.3375Y-2.9642
X8.3375Y-3.0642
X8.3375Y-3.1642
X8.3375Y-3.2642
X8.3375Y-3.3642
X8.3375Y-3.4642
X8.3375Y-3.5642
X8.3375Y-3.6642
X8.3375Y-3.7642
X8.3375Y-3.8642
X8.3375Y-3.9642
X8.3375Y-4.0642
X8.389Y-2.9142
X8.389Y-3.0142
X8.389Y-3.1142
X8.389Y-3.2142
X8.389Y-3.3142
X8.389Y-3.4142
X8.389Y-3.5142
X8.389Y-3.6142
X8.389Y-3.7142
X8.389Y-3.8142
X8.389Y-3.9142
X8.389Y-4.0142
T4
X2.5543Y-4.0126
X2.5543Y-4.7626
X2.7551Y-4.0913
X2.7551Y-4.8413
X2.9559Y-4.0126
X2.9559Y-4.7626
X3.3039Y-4.9874
X3.3039Y-3.4874
X3.3039Y-4.2374
X3.5047Y-5.0661
X3.5047Y-3.5661
X3.5047Y-4.3161
X3.7055Y-4.9874
X3.7055Y-3.4874
X3.7055Y-4.2374
X4.0539Y-3.3748
X4.0543Y-4.8752
X4.0543Y-4.1252
X4.2547Y-3.4535
X4.2551Y-4.9539
X4.2551Y-4.2039
X4.4555Y-3.3748
X4.4559Y-4.8752
X4.4559Y-4.1252
X4.8043Y-4.6126
X4.8043Y-3.8626
X4.8043Y-3.1126
X5.0051Y-4.6913
X5.0051Y-3.9413
X5.0051Y-3.1913
X5.2059Y-4.6126
X5.2059Y-3.8626
X5.2059Y-3.1126
X5.5543Y-3.6748
X5.5543Y-4.4248
X5.5543Y-2.9248
X5.7551Y-3.7535
X5.7551Y-4.5035
X5.7551Y-3.0035
X5.9291Y-5.2949
X5.9559Y-3.6748
X5.9559Y-4.4248
X5.9559Y-2.9248
X6.1299Y-5.3736
X6.3043Y-4.5
X6.3043Y-3.0
X6.3043Y-3.75
X6.3307Y-5.2949
X6.5051Y-4.5787
X6.5051Y-3.0787
X6.5051Y-3.8287
X6.7059Y-4.5
X6.7059Y-3.0
X6.7059Y-3.75
X6.7326Y-5.3543
X6.9061Y-5.4824
X7.0543Y-3.0972
X7.0543Y-3.8476
X7.0543Y-4.5972
X7.1205Y-5.4583
X7.2551Y-3.176
X7.2551Y-3.9264
X7.2551Y-4.676
X7.4559Y-3.0972
X7.4559Y-3.8476
X7.4559Y-4.5972
X7.8732Y-5.6846
X8.0418Y-5.5501
X8.074Y-5.3369
T5
X8.3614Y-4.5451
X8.3614Y-4.801
T6
X2.6051Y-3.9591
X2.6051Y-4.7091
X2.6551Y-4.0165
X2.6551Y-4.0362
X2.6551Y-4.0591
X2.6551Y-4.7665
X2.6551Y-4.7862
X2.6551Y-4.8091
X2.8551Y-4.0165
X2.8551Y-4.0362
X2.8551Y-4.0591
X2.8551Y-4.7665
X2.8551Y-4.7862
X2.8551Y-4.8091
X2.9051Y-3.9591
X2.9051Y-4.7091
X3.3547Y-4.9339
X3.3547Y-3.4339
X3.3547Y-4.1839
X3.4047Y-4.9913
X3.4047Y-5.011
X3.4047Y-5.0339
X3.4047Y-3.4913
X3.4047Y-3.511
X3.4047Y-3.5339
X3.4047Y-4.2413
X3.4047Y-4.261
X3.4047Y-4.2839
X3.6047Y-4.9913
X3.6047Y-5.011
X3.6047Y-5.0339
X3.6047Y-3.4913
X3.6047Y-3.511
X3.6047Y-3.5339
X3.6047Y-4.2413
X3.6047Y-4.261
X3.6047Y-4.2839
X3.6547Y-4.9339
X3.6547Y-3.4339
X3.6547Y-4.1839
X4.1047Y-3.3213
X4.1051Y-4.8217
X4.1051Y-4.0717
X4.1547Y-3.3787
X4.1547Y-3.3984
X4.1547Y-3.4213
X4.1551Y-4.8791
X4.1551Y-4.8988
X4.1551Y-4.9217
X4.1551Y-4.1291
X4.1551Y-4.1488
X4.1551Y-4.1717
X4.3547Y-3.3787
X4.3547Y-3.3984
X4.3547Y-3.4213
X4.3551Y-4.8791
X4.3551Y-4.8988
X4.3551Y-4.9217
X4.3551Y-4.1291
X4.3551Y-4.1488
X4.3551Y-4.1717
X4.4047Y-3.3213
X4.4051Y-4.8217
X4.4051Y-4.0717
X4.8551Y-4.5591
X4.8551Y-3.8091
X4.8551Y-3.0591
X4.9051Y-4.6165
X4.9051Y-4.6362
X4.9051Y-4.6591
X4.9051Y-3.8665
X4.9051Y-3.8862
X4.9051Y-3.9091
X4.9051Y-3.1165
X4.9051Y-3.1362
X4.9051Y-3.1591
X5.1051Y-4.6165
X5.1051Y-4.6362
X5.1051Y-4.6591
X5.1051Y-3.8665
X5.1051Y-3.8862
X5.1051Y-3.9091
X5.1051Y-3.1165
X5.1051Y-3.1362
X5.1051Y-3.1591
X5.1551Y-4.5591
X5.1551Y-3.8091
X5.1551Y-3.0591
X5.6051Y-3.6213
X5.6051Y-4.3713
X5.6051Y-2.8713
X5.6551Y-3.6787
X5.6551Y-3.6984
X5.6551Y-3.7213
X5.6551Y-4.4287
X5.6551Y-4.4484
X5.6551Y-4.4713
X5.6551Y-2.9287
X5.6551Y-2.9484
X5.6551Y-2.9713
X5.8551Y-3.6787
X5.8551Y-3.6984
X5.8551Y-3.7213
X5.8551Y-4.4287
X5.8551Y-4.4484
X5.8551Y-4.4713
X5.8551Y-2.9287
X5.8551Y-2.9484
X5.8551Y-2.9713
X5.9051Y-3.6213
X5.9051Y-4.3713
X5.9051Y-2.8713
X5.9799Y-5.2413
X6.0299Y-5.2988
X6.0299Y-5.3185
X6.0299Y-5.3413
X6.2299Y-5.2988
X6.2299Y-5.3185
X6.2299Y-5.3413
X6.2799Y-5.2413
X6.3551Y-4.4465
X6.3551Y-2.9465
X6.3551Y-3.6965
X6.4051Y-4.5039
X6.4051Y-4.5236
X6.4051Y-4.5465
X6.4051Y-3.0039
X6.4051Y-3.0236
X6.4051Y-3.0465
X6.4051Y-3.7539
X6.4051Y-3.7736
X6.4051Y-3.7965
X6.6051Y-4.5039
X6.6051Y-4.5236
X6.6051Y-4.5465
X6.6051Y-3.0039
X6.6051Y-3.0236
X6.6051Y-3.0465
X6.6051Y-3.7539
X6.6051Y-3.7736
X6.6051Y-3.7965
X6.6551Y-4.4465
X6.6551Y-2.9465
X6.6551Y-3.6965
X6.7955Y-5.3158
X6.8179Y-5.4253
X6.8238Y-5.4032
X6.8289Y-5.3842
X7.0111Y-5.4771
X7.017Y-5.455
X7.0221Y-5.436
X7.0853Y-5.3934
X7.1051Y-3.0437
X7.1051Y-3.7941
X7.1051Y-4.5437
X7.1551Y-3.1012
X7.1551Y-3.1209
X7.1551Y-3.1437
X7.1551Y-3.8516
X7.1551Y-3.8713
X7.1551Y-3.8941
X7.1551Y-4.6012
X7.1551Y-4.6209
X7.1551Y-4.6437
X7.3551Y-3.1012
X7.3551Y-3.1209
X7.3551Y-3.1437
X7.3551Y-3.8516
X7.3551Y-3.8713
X7.3551Y-3.8941
X7.3551Y-4.6012
X7.3551Y-4.6209
X7.3551Y-4.6437
X7.4051Y-3.0437
X7.4051Y-3.7941
X7.4051Y-4.5437
X7.8523Y-5.6139
X7.927Y-5.5993
X7.9441Y-5.6092
X7.9639Y-5.6206
X8.0023Y-5.3541
X8.027Y-5.4261
X8.0441Y-5.436
X8.0639Y-5.4474
T7
X3.8768Y-3.6656
X3.8768Y-4.412
X5.374Y-3.2697
X5.5414Y-4.9215
X6.8795Y-3.266
X7.452Y-5.2018
T3
G00X7.9788Y-4.2709
M15
G01X7.9591Y-4.2709
M16
G05
G00X7.9788Y-4.3673
M15
G01X7.9591Y-4.3673
M16
G05
G00X8.0378Y-4.202
M15
G01X8.0181Y-4.202
M16
G05
G00X8.0378Y-4.4362
M15
G01X8.0181Y-4.4362
M16
G05
G00X8.1953Y-4.202
M15
G01X8.1756Y-4.202
M16
G05
G00X8.1953Y-4.4362
M15
G01X8.1756Y-4.4362
M16
G05
G00X8.3134Y-4.202
M15
G01X8.2937Y-4.202
M16
G05
G00X8.3134Y-4.4362
M15
G01X8.2937Y-4.4362
M16
G05
T0
M30
