%TF.GenerationSoftware,KiCad,Pcbnew,(6.0.0)*%
%TF.CreationDate,2022-01-01T14:12:31+04:00*%
%TF.ProjectId,Angel Wings FINAL,416e6765-6c20-4576-996e-67732046494e,rev?*%
%TF.SameCoordinates,Original*%
%TF.FileFunction,Soldermask,Bot*%
%TF.FilePolarity,Negative*%
%FSLAX46Y46*%
G04 Gerber Fmt 4.6, Leading zero omitted, Abs format (unit mm)*
G04 Created by KiCad (PCBNEW (6.0.0)) date 2022-01-01 14:12:31*
%MOMM*%
%LPD*%
G01*
G04 APERTURE LIST*
G04 Aperture macros list*
%AMHorizOval*
0 Thick line with rounded ends*
0 $1 width*
0 $2 $3 position (X,Y) of the first rounded end (center of the circle)*
0 $4 $5 position (X,Y) of the second rounded end (center of the circle)*
0 Add line between two ends*
20,1,$1,$2,$3,$4,$5,0*
0 Add two circle primitives to create the rounded ends*
1,1,$1,$2,$3*
1,1,$1,$4,$5*%
%AMRotRect*
0 Rectangle, with rotation*
0 The origin of the aperture is its center*
0 $1 length*
0 $2 width*
0 $3 Rotation angle, in degrees counterclockwise*
0 Add horizontal line*
21,1,$1,$2,0,0,$3*%
G04 Aperture macros list end*
%ADD10C,0.150000*%
%ADD11R,1.600000X1.000000*%
%ADD12R,0.950000X1.300000*%
%ADD13R,1.397000X1.397000*%
%ADD14C,1.397000*%
%ADD15RotRect,1.600000X1.000000X345.000000*%
%ADD16C,5.000000*%
%ADD17RotRect,1.397000X1.397000X330.000000*%
%ADD18RotRect,1.300000X0.950000X330.000000*%
%ADD19C,2.000000*%
%ADD20RotRect,1.600000X1.000000X60.000000*%
%ADD21RotRect,1.300000X0.950000X255.000000*%
%ADD22RotRect,1.397000X1.397000X255.000000*%
%ADD23C,1.524000*%
%ADD24C,1.200000*%
%ADD25O,2.500000X1.700000*%
%ADD26C,1.900000*%
%ADD27C,4.000000*%
%ADD28C,1.000000*%
%ADD29C,1.700000*%
%ADD30HorizOval,1.550000X0.401742X-0.478777X-0.401742X0.478777X0*%
%ADD31C,2.400000*%
%ADD32HorizOval,1.250000X0.305324X-0.363871X-0.305324X0.363871X0*%
%ADD33HorizOval,1.250000X0.305324X0.363871X-0.305324X-0.363871X0*%
%ADD34C,2.200000*%
%ADD35HorizOval,1.550000X0.401742X0.478777X-0.401742X-0.478777X0*%
%ADD36HorizOval,1.250000X-0.162460X0.446354X0.162460X-0.446354X0*%
%ADD37HorizOval,1.250000X0.467784X0.082483X-0.467784X-0.082483X0*%
%ADD38HorizOval,1.550000X0.615504X0.108530X-0.615504X-0.108530X0*%
%ADD39HorizOval,1.550000X-0.213762X0.587307X0.213762X-0.587307X0*%
%ADD40HorizOval,1.250000X0.389097X0.272449X-0.389097X-0.272449X0*%
%ADD41HorizOval,1.250000X0.200744X-0.430496X-0.200744X0.430496X0*%
%ADD42HorizOval,1.550000X0.264136X-0.566441X-0.264136X0.566441X0*%
%ADD43HorizOval,1.550000X0.511969X0.358485X-0.511969X-0.358485X0*%
G04 APERTURE END LIST*
D10*
X137264854Y-134398683D02*
X137623222Y-133465103D01*
X137400941Y-133379777D01*
X137250507Y-133373038D01*
X137127464Y-133427820D01*
X137048878Y-133499667D01*
X136936161Y-133660427D01*
X136884966Y-133793795D01*
X136861161Y-133988685D01*
X136871487Y-134094663D01*
X136926270Y-134217706D01*
X137042573Y-134313357D01*
X137264854Y-134398683D01*
X136197905Y-133989120D02*
X136303883Y-133978794D01*
X136365404Y-133951403D01*
X136443990Y-133879555D01*
X136546381Y-133612818D01*
X136536055Y-133506840D01*
X136508664Y-133445319D01*
X136436817Y-133366733D01*
X136303448Y-133315537D01*
X136197471Y-133325863D01*
X136135949Y-133353254D01*
X136057363Y-133425101D01*
X135954972Y-133691839D01*
X135965298Y-133797816D01*
X135992689Y-133859338D01*
X136064536Y-133937924D01*
X136197905Y-133989120D01*
X135486606Y-133716077D02*
X135725518Y-133093690D01*
X135657257Y-133271515D02*
X135646931Y-133165538D01*
X135619540Y-133104016D01*
X135547693Y-133025430D01*
X135458780Y-132991300D01*
X135236499Y-132905974D02*
X134775306Y-133443035D01*
X134791937Y-132735322D02*
X134775306Y-133443035D01*
X134778893Y-133699446D01*
X134806284Y-133760968D01*
X134878131Y-133839554D01*
X133797270Y-133067602D02*
X133984986Y-132578584D01*
X134063573Y-132506736D01*
X134169550Y-132496410D01*
X134347375Y-132564671D01*
X134419222Y-132643257D01*
X133814335Y-133023146D02*
X133886182Y-133101732D01*
X134108463Y-133187058D01*
X134214441Y-133176732D01*
X134293027Y-133104885D01*
X134327157Y-133015972D01*
X134316832Y-132909995D01*
X134244984Y-132831408D01*
X134022703Y-132746083D01*
X133950856Y-132667496D01*
X133591619Y-132274564D02*
X133352708Y-132896951D01*
X133557489Y-132363476D02*
X133530098Y-132301955D01*
X133458251Y-132223368D01*
X133324882Y-132172173D01*
X133218905Y-132182499D01*
X133140318Y-132254346D01*
X132952602Y-132743364D01*
X131040985Y-132009563D02*
X131085441Y-132026628D01*
X131191418Y-132016302D01*
X131375982Y-131934129D01*
X131700654Y-131752718D01*
X131840762Y-131653479D01*
X131936414Y-131537176D01*
X131970544Y-131448263D01*
X131960218Y-131342286D01*
X131888371Y-131263699D01*
X131843915Y-131246634D01*
X131737937Y-131256960D01*
X131659351Y-131328807D01*
X131642285Y-131373264D01*
X131652611Y-131479241D01*
X131680002Y-131540763D01*
X131878479Y-131820978D01*
X131905870Y-131882500D01*
X131916196Y-131988477D01*
X131865001Y-132121846D01*
X131786414Y-132193693D01*
X131724893Y-132221084D01*
X131618915Y-132231410D01*
X131485547Y-132180215D01*
X131413699Y-132101628D01*
X131386308Y-132040107D01*
X131321200Y-131811087D01*
X131327939Y-131660653D01*
X131362070Y-131571740D01*
X129929579Y-131582935D02*
X130287947Y-130649354D01*
X129396105Y-131378153D01*
X129754473Y-130444573D01*
X128951543Y-131207502D02*
X129309911Y-130273921D01*
X128742740Y-130821308D01*
X128687524Y-130035009D01*
X128329156Y-130968590D01*
X127395575Y-130610222D02*
X127929050Y-130815003D01*
X127662313Y-130712613D02*
X128020680Y-129779032D01*
X128058397Y-129946531D01*
X128113180Y-130069574D01*
X128185027Y-130148160D01*
X127442750Y-129557185D02*
X126820363Y-129318273D01*
X126862101Y-130405440D01*
D11*
%TO.C,L12*%
X143779999Y-64025001D03*
X143779999Y-65775001D03*
X148579999Y-65775001D03*
X148579999Y-64025001D03*
%TD*%
D12*
%TO.C,D10*%
X135130336Y-92430497D03*
D13*
X135130336Y-90395497D03*
D14*
X135130336Y-98015497D03*
D12*
X135130336Y-95980497D03*
%TD*%
D11*
%TO.C,L22*%
X181880001Y-106495000D03*
X181880001Y-108245000D03*
X186680001Y-108245000D03*
X186680001Y-106495000D03*
%TD*%
%TO.C,L18*%
X162829997Y-104024997D03*
X162829997Y-105774997D03*
X167629997Y-105774997D03*
X167629997Y-104024997D03*
%TD*%
D12*
%TO.C,D2*%
X62010330Y-115292499D03*
D13*
X62010330Y-113257499D03*
D14*
X62010330Y-120877499D03*
D12*
X62010330Y-118842499D03*
%TD*%
D11*
%TO.C,L9*%
X124725002Y-68784996D03*
X124725002Y-70534996D03*
X129525002Y-70534996D03*
X129525002Y-68784996D03*
%TD*%
D12*
%TO.C,D15*%
X147750342Y-129620503D03*
D13*
X147750342Y-127585503D03*
D14*
X147750342Y-135205503D03*
D12*
X147750342Y-133170503D03*
%TD*%
D11*
%TO.C,L6*%
X105680006Y-75454927D03*
X105680006Y-77204927D03*
X110480006Y-77204927D03*
X110480006Y-75454927D03*
%TD*%
D13*
%TO.C,D11*%
X135130336Y-109445496D03*
D12*
X135130336Y-111480496D03*
X135130336Y-115030496D03*
D14*
X135130336Y-117065496D03*
%TD*%
D15*
%TO.C,L19*%
X176275324Y-126772464D03*
X175822390Y-128462834D03*
X180458834Y-129705166D03*
X180911768Y-128014796D03*
%TD*%
D12*
%TO.C,D17*%
X173240331Y-90435335D03*
D13*
X173240331Y-88400335D03*
D12*
X173240331Y-93985335D03*
D14*
X173240331Y-96020335D03*
%TD*%
D12*
%TO.C,D5*%
X97010340Y-120994997D03*
D13*
X97010340Y-118959997D03*
D14*
X97010340Y-126579997D03*
D12*
X97010340Y-124544997D03*
%TD*%
D11*
%TO.C,L20*%
X181880003Y-68394998D03*
X181880003Y-70144998D03*
X186680003Y-70144998D03*
X186680003Y-68394998D03*
%TD*%
D13*
%TO.C,D1*%
X62000332Y-94210000D03*
D12*
X62000332Y-96245000D03*
D14*
X62000332Y-101830000D03*
D12*
X62000332Y-99795000D03*
%TD*%
D13*
%TO.C,D12*%
X154190339Y-68185499D03*
D12*
X154190339Y-70220499D03*
D14*
X154190339Y-75805499D03*
D12*
X154190339Y-73770499D03*
%TD*%
D11*
%TO.C,L5*%
X86630001Y-116414994D03*
X86630001Y-118164994D03*
X91430001Y-118164994D03*
X91430001Y-116414994D03*
%TD*%
D16*
%TO.C,*%
X136499999Y-83050000D03*
%TD*%
D12*
%TO.C,D7*%
X116090339Y-99104994D03*
D13*
X116090339Y-97069994D03*
D12*
X116090339Y-102654994D03*
D14*
X116090339Y-104689994D03*
%TD*%
D12*
%TO.C,D8*%
X116090333Y-118154994D03*
D13*
X116090333Y-116119994D03*
D14*
X116090333Y-123739994D03*
D12*
X116090333Y-121704994D03*
%TD*%
D16*
%TO.C,*%
X98470337Y-112065503D03*
%TD*%
D11*
%TO.C,L7*%
X105679997Y-94504997D03*
X105679997Y-96254997D03*
X110479997Y-96254997D03*
X110479997Y-94504997D03*
%TD*%
D13*
%TO.C,D20*%
X176290333Y-70620501D03*
D12*
X176290333Y-72655501D03*
D14*
X176290333Y-78240501D03*
D12*
X176290333Y-76205501D03*
%TD*%
D11*
%TO.C,L2*%
X67579998Y-110694995D03*
X67579998Y-112444995D03*
X72379998Y-112444995D03*
X72379998Y-110694995D03*
%TD*%
%TO.C,L4*%
X86630004Y-97364997D03*
X86630004Y-99114997D03*
X91430004Y-99114997D03*
X91430004Y-97364997D03*
%TD*%
D17*
%TO.C,D23*%
X190866689Y-144754719D03*
D18*
X192629051Y-145772219D03*
X195703441Y-147547219D03*
D14*
X197465803Y-148564719D03*
%TD*%
D11*
%TO.C,L8*%
X105679999Y-113554996D03*
X105679999Y-115304996D03*
X110479999Y-115304996D03*
X110479999Y-113554996D03*
%TD*%
D16*
%TO.C,*%
X174740336Y-82955502D03*
%TD*%
D11*
%TO.C,L15*%
X153300003Y-124214997D03*
X153300003Y-125964997D03*
X158100003Y-125964997D03*
X158100003Y-124214997D03*
%TD*%
D19*
%TO.C,RSW1*%
X212380338Y-115445501D03*
X212380338Y-121945503D03*
%TD*%
D12*
%TO.C,D3*%
X97020335Y-82900502D03*
D13*
X97020335Y-80865502D03*
D14*
X97020335Y-88485502D03*
D12*
X97020335Y-86450502D03*
%TD*%
D11*
%TO.C,L11*%
X124724996Y-106884997D03*
X124724996Y-108634997D03*
X129524996Y-108634997D03*
X129524996Y-106884997D03*
%TD*%
D16*
%TO.C,*%
X98470336Y-93105502D03*
%TD*%
D11*
%TO.C,L1*%
X67580003Y-91644999D03*
X67580003Y-93394999D03*
X72380003Y-93394999D03*
X72380003Y-91644999D03*
%TD*%
D20*
%TO.C,L23*%
X192429242Y-136912874D03*
X193944786Y-137787874D03*
X196344786Y-133630952D03*
X194829242Y-132755952D03*
%TD*%
D12*
%TO.C,D9*%
X135170339Y-72300502D03*
D13*
X135170339Y-70265502D03*
D14*
X135170339Y-77885502D03*
D12*
X135170339Y-75850502D03*
%TD*%
D16*
%TO.C,*%
X140750338Y-125005501D03*
%TD*%
D12*
%TO.C,D13*%
X154190334Y-89655499D03*
D13*
X154190334Y-87620499D03*
D12*
X154190334Y-93205499D03*
D14*
X154190334Y-95240499D03*
%TD*%
D11*
%TO.C,L10*%
X124725000Y-87834996D03*
X124725000Y-89584996D03*
X129525000Y-89584996D03*
X129525000Y-87834996D03*
%TD*%
D12*
%TO.C,D6*%
X116090334Y-80044996D03*
D13*
X116090334Y-78009996D03*
D12*
X116090334Y-83594996D03*
D14*
X116090334Y-85629996D03*
%TD*%
D11*
%TO.C,L14*%
X143780001Y-102124996D03*
X143780001Y-103874996D03*
X148580001Y-103874996D03*
X148580001Y-102124996D03*
%TD*%
D13*
%TO.C,D4*%
X97010340Y-99909994D03*
D12*
X97010340Y-101944994D03*
X97010340Y-105494994D03*
D14*
X97010340Y-107529994D03*
%TD*%
D11*
%TO.C,L21*%
X181879997Y-87444994D03*
X181879997Y-89194994D03*
X186679997Y-89194994D03*
X186679997Y-87444994D03*
%TD*%
D12*
%TO.C,D14*%
X154190334Y-106714995D03*
D13*
X154190334Y-104679995D03*
D14*
X154190334Y-112299995D03*
D12*
X154190334Y-110264995D03*
%TD*%
%TO.C,D21*%
X176290331Y-91705501D03*
D13*
X176290331Y-89670501D03*
D14*
X176290331Y-97290501D03*
D12*
X176290331Y-95255501D03*
%TD*%
%TO.C,D16*%
X173240335Y-70870499D03*
D13*
X173240335Y-68835499D03*
D14*
X173240335Y-76455499D03*
D12*
X173240335Y-74420499D03*
%TD*%
D16*
%TO.C,*%
X189280336Y-132125503D03*
%TD*%
D12*
%TO.C,D18*%
X173240338Y-108970499D03*
D13*
X173240338Y-106935499D03*
D14*
X173240338Y-114555499D03*
D12*
X173240338Y-112520499D03*
%TD*%
D11*
%TO.C,L17*%
X162829995Y-84974995D03*
X162829995Y-86724995D03*
X167629995Y-86724995D03*
X167629995Y-84974995D03*
%TD*%
%TO.C,L13*%
X143780005Y-83075001D03*
X143780005Y-84825001D03*
X148580005Y-84825001D03*
X148580005Y-83075001D03*
%TD*%
D21*
%TO.C,D19*%
X167798997Y-129265116D03*
D22*
X168325694Y-127299457D03*
D21*
X166880189Y-132694152D03*
D14*
X166353492Y-134659811D03*
%TD*%
D23*
%TO.C,U1*%
X196533230Y-75290587D03*
X213079631Y-74020587D03*
X213079631Y-76560587D03*
X196533230Y-77830587D03*
X213079631Y-79100587D03*
X196533230Y-80370587D03*
X196533230Y-82910587D03*
X213079631Y-81640587D03*
X213079631Y-84180587D03*
X196533230Y-85450587D03*
X213079631Y-86720587D03*
X196533230Y-87990587D03*
X196533230Y-90530587D03*
X213079631Y-89260587D03*
X213079631Y-91800587D03*
X196533230Y-93070587D03*
X196533230Y-95610587D03*
X213079631Y-94340587D03*
X213079631Y-96880587D03*
X196533230Y-98150587D03*
X213079631Y-99420587D03*
X196533230Y-100690587D03*
X196533230Y-103230587D03*
X213079631Y-101960587D03*
X211773230Y-103230587D03*
X197859631Y-101960587D03*
X211773230Y-100690587D03*
X197859631Y-99420587D03*
X197859631Y-96880587D03*
X211773230Y-98150587D03*
X211773230Y-95610587D03*
X197859631Y-94340587D03*
X197859631Y-91800587D03*
X211773230Y-93070587D03*
X197859631Y-89260587D03*
X211773230Y-90530587D03*
X197859631Y-86720587D03*
X211773230Y-87990587D03*
X211773230Y-85450587D03*
X197859631Y-84180587D03*
X197859631Y-81640587D03*
X211773230Y-82910587D03*
X211773230Y-80370587D03*
X197859631Y-79100587D03*
X197859631Y-76560587D03*
X211773230Y-77830587D03*
X211773230Y-75290587D03*
X197859631Y-74020587D03*
%TD*%
D24*
%TO.C,J1*%
X205710727Y-108830586D03*
X212710727Y-110580586D03*
X212710727Y-108830586D03*
X205710727Y-110580586D03*
D25*
X202410727Y-108480586D03*
X202410727Y-110930586D03*
X210910727Y-106730586D03*
X210910727Y-112680586D03*
X207910727Y-106730586D03*
X207910727Y-112680586D03*
X203910727Y-112680586D03*
X203910727Y-106730586D03*
%TD*%
D11*
%TO.C,L16*%
X162829999Y-65924996D03*
X162829999Y-67674996D03*
X167629999Y-67674996D03*
X167629999Y-65924996D03*
%TD*%
D13*
%TO.C,D22*%
X176290330Y-108720505D03*
D12*
X176290330Y-110755505D03*
D14*
X176290330Y-116340505D03*
D12*
X176290330Y-114305505D03*
%TD*%
D11*
%TO.C,L3*%
X86629997Y-78314995D03*
X86629997Y-80064995D03*
X91429997Y-80064995D03*
X91429997Y-78314995D03*
%TD*%
D26*
%TO.C,SW22*%
X189779999Y-112869996D03*
D27*
X184280000Y-112869996D03*
D28*
X189500000Y-108669997D03*
X179060000Y-108669997D03*
D29*
X179200000Y-112869996D03*
X189360000Y-112869996D03*
D26*
X178780001Y-112869996D03*
D30*
X180470000Y-115409996D03*
D31*
X181740000Y-117369997D03*
X181740000Y-117949996D03*
D32*
X179180000Y-116769996D03*
D31*
X181740000Y-116869996D03*
D33*
X189380000Y-116769996D03*
D31*
X186820000Y-116869996D03*
D34*
X184280000Y-118769997D03*
D35*
X188090000Y-115409996D03*
D31*
X186820000Y-117949996D03*
X186820000Y-117369997D03*
%TD*%
D28*
%TO.C,SW9*%
X132350001Y-70959999D03*
X121910001Y-70959999D03*
D27*
X127130001Y-75159998D03*
D26*
X121630002Y-75159998D03*
D29*
X132210001Y-75159998D03*
D26*
X132630000Y-75159998D03*
D29*
X122050001Y-75159998D03*
D32*
X122030001Y-79059998D03*
D31*
X124590001Y-80239998D03*
X124590001Y-79659999D03*
D30*
X123320001Y-77699998D03*
D33*
X132230001Y-79059998D03*
D31*
X124590001Y-79159998D03*
D34*
X127130001Y-81059999D03*
D31*
X129670001Y-79159998D03*
X129670001Y-80239998D03*
D35*
X130940001Y-77699998D03*
D31*
X129670001Y-79659999D03*
%TD*%
D29*
%TO.C,SW8*%
X113159995Y-119929997D03*
D27*
X108079995Y-119929997D03*
D26*
X113579994Y-119929997D03*
D29*
X102999995Y-119929997D03*
D26*
X102579996Y-119929997D03*
D28*
X113299995Y-115729998D03*
X102859995Y-115729998D03*
D31*
X105539995Y-123929997D03*
X105539995Y-124429998D03*
X105539995Y-125009997D03*
D32*
X102979995Y-123829997D03*
D30*
X104269995Y-122469997D03*
D33*
X113179995Y-123829997D03*
D31*
X110619995Y-123929997D03*
X110619995Y-124429998D03*
D35*
X111889995Y-122469997D03*
D34*
X108079995Y-125829998D03*
D31*
X110619995Y-125009997D03*
%TD*%
D26*
%TO.C,SW15*%
X161199999Y-130589995D03*
D28*
X160920000Y-126389996D03*
X150480000Y-126389996D03*
D27*
X155700000Y-130589995D03*
D29*
X160780000Y-130589995D03*
X150620000Y-130589995D03*
D26*
X150200001Y-130589995D03*
D32*
X150600000Y-134489995D03*
D33*
X160800000Y-134489995D03*
D31*
X153160000Y-134589995D03*
X153160000Y-135089996D03*
D30*
X151890000Y-133129995D03*
D31*
X153160000Y-135669995D03*
D34*
X155700000Y-136489996D03*
D31*
X158240000Y-135089996D03*
X158240000Y-135669995D03*
X158240000Y-134589995D03*
D35*
X159510000Y-133129995D03*
%TD*%
D26*
%TO.C,SW13*%
X140680001Y-89439999D03*
D28*
X151400000Y-85240000D03*
D26*
X151679999Y-89439999D03*
D29*
X151260000Y-89439999D03*
X141100000Y-89439999D03*
D27*
X146180000Y-89439999D03*
D28*
X140960000Y-85240000D03*
D31*
X143640000Y-94519999D03*
X143640000Y-93940000D03*
D30*
X142370000Y-91979999D03*
D32*
X141080000Y-93339999D03*
D33*
X151280000Y-93339999D03*
D31*
X143640000Y-93439999D03*
X148720000Y-93940000D03*
X148720000Y-94519999D03*
D35*
X149990000Y-91979999D03*
D31*
X148720000Y-93439999D03*
D34*
X146180000Y-95340000D03*
%TD*%
D28*
%TO.C,SW17*%
X160009997Y-87149997D03*
D29*
X160149997Y-91349996D03*
D26*
X159729998Y-91349996D03*
D29*
X170309997Y-91349996D03*
D27*
X165229997Y-91349996D03*
D28*
X170449997Y-87149997D03*
D26*
X170729996Y-91349996D03*
D30*
X161419997Y-93889996D03*
D31*
X162689997Y-96429996D03*
X162689997Y-95849997D03*
D33*
X170329997Y-95249996D03*
D31*
X162689997Y-95349996D03*
D32*
X160129997Y-95249996D03*
D31*
X167769997Y-95849997D03*
D35*
X169039997Y-93889996D03*
D34*
X165229997Y-97249997D03*
D31*
X167769997Y-96429996D03*
X167769997Y-95349996D03*
%TD*%
D29*
%TO.C,SW12*%
X141100002Y-70390000D03*
X151260002Y-70390000D03*
D27*
X146180002Y-70390000D03*
D28*
X140960002Y-66190001D03*
D26*
X140680003Y-70390000D03*
D28*
X151400002Y-66190001D03*
D26*
X151680001Y-70390000D03*
D31*
X143640002Y-74390000D03*
D33*
X151280002Y-74290000D03*
D32*
X141080002Y-74290000D03*
D30*
X142370002Y-72930000D03*
D31*
X143640002Y-75470000D03*
X143640002Y-74890001D03*
D34*
X146180002Y-76290001D03*
D31*
X148720002Y-75470000D03*
X148720002Y-74390000D03*
X148720002Y-74890001D03*
D35*
X149990002Y-72930000D03*
%TD*%
D26*
%TO.C,SW20*%
X178779998Y-74769996D03*
X189779996Y-74769996D03*
D29*
X189359997Y-74769996D03*
X179199997Y-74769996D03*
D28*
X179059997Y-70569997D03*
D27*
X184279997Y-74769996D03*
D28*
X189499997Y-70569997D03*
D31*
X181739997Y-78769996D03*
X181739997Y-79269997D03*
D30*
X180469997Y-77309996D03*
D33*
X189379997Y-78669996D03*
D32*
X179179997Y-78669996D03*
D31*
X181739997Y-79849996D03*
X186819997Y-79849996D03*
X186819997Y-79269997D03*
X186819997Y-78769996D03*
D35*
X188089997Y-77309996D03*
D34*
X184279997Y-80669997D03*
%TD*%
D28*
%TO.C,SW14*%
X151400000Y-104290001D03*
D26*
X140680001Y-108490000D03*
D29*
X151260000Y-108490000D03*
D26*
X151679999Y-108490000D03*
D28*
X140960000Y-104290001D03*
D27*
X146180000Y-108490000D03*
D29*
X141100000Y-108490000D03*
D31*
X143640000Y-112990001D03*
D30*
X142370000Y-111030000D03*
D33*
X151280000Y-112390000D03*
D31*
X143640000Y-112490000D03*
X143640000Y-113570000D03*
D32*
X141080000Y-112390000D03*
D31*
X148720000Y-113570000D03*
D35*
X149990000Y-111030000D03*
D34*
X146180000Y-114390001D03*
D31*
X148720000Y-112990001D03*
X148720000Y-112490000D03*
%TD*%
D29*
%TO.C,SW3*%
X83939997Y-84679994D03*
D26*
X83519998Y-84679994D03*
D28*
X83799997Y-80479995D03*
D27*
X89019997Y-84679994D03*
D28*
X94239997Y-80479995D03*
D29*
X94099997Y-84679994D03*
D26*
X94519996Y-84679994D03*
D32*
X83919997Y-88579994D03*
D31*
X86479997Y-88679994D03*
X86479997Y-89179995D03*
D30*
X85209997Y-87219994D03*
D31*
X86479997Y-89759994D03*
D33*
X94119997Y-88579994D03*
D31*
X91559997Y-89759994D03*
D35*
X92829997Y-87219994D03*
D31*
X91559997Y-88679994D03*
D34*
X89019997Y-90579995D03*
D31*
X91559997Y-89179995D03*
%TD*%
D28*
%TO.C,SW21*%
X189499999Y-89630002D03*
D26*
X189779998Y-93830001D03*
D29*
X189359999Y-93830001D03*
D26*
X178780000Y-93830001D03*
D27*
X184279999Y-93830001D03*
D28*
X179059999Y-89630002D03*
D29*
X179199999Y-93830001D03*
D31*
X181739999Y-98910001D03*
D32*
X179179999Y-97730001D03*
D31*
X181739999Y-98330002D03*
D33*
X189379999Y-97730001D03*
D31*
X181739999Y-97830001D03*
D30*
X180469999Y-96370001D03*
D35*
X188089999Y-96370001D03*
D31*
X186819999Y-97830001D03*
X186819999Y-98330002D03*
X186819999Y-98910001D03*
D34*
X184279999Y-99730002D03*
%TD*%
D28*
%TO.C,SW1*%
X64759994Y-93820001D03*
D29*
X75059994Y-98020000D03*
D27*
X69979994Y-98020000D03*
D26*
X75479993Y-98020000D03*
D29*
X64899994Y-98020000D03*
D26*
X64479995Y-98020000D03*
D28*
X75199994Y-93820001D03*
D31*
X67439994Y-102520001D03*
D33*
X75079994Y-101920000D03*
D32*
X64879994Y-101920000D03*
D30*
X66169994Y-100560000D03*
D31*
X67439994Y-102020000D03*
X67439994Y-103100000D03*
X72519994Y-102520001D03*
D35*
X73789994Y-100560000D03*
D31*
X72519994Y-103100000D03*
X72519994Y-102020000D03*
D34*
X69979994Y-103920001D03*
%TD*%
D26*
%TO.C,SW18*%
X170729994Y-110399998D03*
D28*
X160009995Y-106199999D03*
D27*
X165229995Y-110399998D03*
D28*
X170449995Y-106199999D03*
D29*
X170309995Y-110399998D03*
D26*
X159729996Y-110399998D03*
D29*
X160149995Y-110399998D03*
D32*
X160129995Y-114299998D03*
D31*
X162689995Y-115479998D03*
X162689995Y-114899999D03*
D33*
X170329995Y-114299998D03*
D31*
X162689995Y-114399998D03*
D30*
X161419995Y-112939998D03*
D35*
X169039995Y-112939998D03*
D34*
X165229995Y-116299999D03*
D31*
X167769995Y-115479998D03*
X167769995Y-114399998D03*
X167769995Y-114899999D03*
%TD*%
D27*
%TO.C,SW2*%
X69979995Y-117069998D03*
D28*
X64759995Y-112869999D03*
D29*
X75059995Y-117069998D03*
X64899995Y-117069998D03*
D28*
X75199995Y-112869999D03*
D26*
X75479994Y-117069998D03*
X64479996Y-117069998D03*
D31*
X67439995Y-121069998D03*
D32*
X64879995Y-120969998D03*
D31*
X67439995Y-122149998D03*
D33*
X75079995Y-120969998D03*
D30*
X66169995Y-119609998D03*
D31*
X67439995Y-121569999D03*
X72519995Y-121569999D03*
X72519995Y-121069998D03*
X72519995Y-122149998D03*
D35*
X73789995Y-119609998D03*
D34*
X69979995Y-122969999D03*
%TD*%
D29*
%TO.C,SW6*%
X113150000Y-81819996D03*
D27*
X108070000Y-81819996D03*
D26*
X113569999Y-81819996D03*
X102570001Y-81819996D03*
D28*
X113290000Y-77619997D03*
X102850000Y-77619997D03*
D29*
X102990000Y-81819996D03*
D31*
X105530000Y-86899996D03*
X105530000Y-85819996D03*
D32*
X102970000Y-85719996D03*
D33*
X113170000Y-85719996D03*
D30*
X104260000Y-84359996D03*
D31*
X105530000Y-86319997D03*
D35*
X111880000Y-84359996D03*
D31*
X110610000Y-86899996D03*
X110610000Y-85819996D03*
D34*
X108070000Y-87719997D03*
D31*
X110610000Y-86319997D03*
%TD*%
D27*
%TO.C,SW10*%
X127130000Y-94209999D03*
D26*
X121630001Y-94209999D03*
D29*
X122050000Y-94209999D03*
X132210000Y-94209999D03*
D28*
X121910000Y-90010000D03*
D26*
X132629999Y-94209999D03*
D28*
X132350000Y-90010000D03*
D32*
X122030000Y-98109999D03*
D33*
X132230000Y-98109999D03*
D31*
X124590000Y-98209999D03*
D30*
X123320000Y-96749999D03*
D31*
X124590000Y-99289999D03*
X124590000Y-98710000D03*
X129670000Y-98710000D03*
D35*
X130940000Y-96749999D03*
D34*
X127130000Y-100110000D03*
D31*
X129670000Y-99289999D03*
X129670000Y-98209999D03*
%TD*%
D27*
%TO.C,SW23*%
X199152501Y-138023267D03*
D29*
X196612501Y-142422676D03*
D26*
X196402501Y-142786406D03*
X201902501Y-133260128D03*
D28*
X192905195Y-140443920D03*
X198125195Y-131402615D03*
D29*
X201692501Y-133623858D03*
D36*
X205080000Y-135556537D03*
D31*
X202281910Y-142762972D03*
X201346603Y-142222972D03*
D37*
X199980000Y-144389997D03*
D31*
X201779616Y-142472972D03*
D38*
X199447206Y-142592824D03*
D31*
X203886603Y-137823562D03*
D34*
X204262052Y-140973268D03*
D31*
X204319616Y-138073563D03*
X204821910Y-138363562D03*
D39*
X203257206Y-135993710D03*
%TD*%
D26*
%TO.C,SW5*%
X83519996Y-122779997D03*
D28*
X94239995Y-118579998D03*
D29*
X94099995Y-122779997D03*
D27*
X89019995Y-122779997D03*
D29*
X83939995Y-122779997D03*
D26*
X94519994Y-122779997D03*
D28*
X83799995Y-118579998D03*
D31*
X86479995Y-127859997D03*
D32*
X83919995Y-126679997D03*
D31*
X86479995Y-126779997D03*
X86479995Y-127279998D03*
D30*
X85209995Y-125319997D03*
D33*
X94119995Y-126679997D03*
D34*
X89019995Y-128679998D03*
D35*
X92829995Y-125319997D03*
D31*
X91559995Y-127859997D03*
X91559995Y-127279998D03*
X91559995Y-126779997D03*
%TD*%
D28*
%TO.C,SW11*%
X121909997Y-109059997D03*
D29*
X132209997Y-113259996D03*
D26*
X132629996Y-113259996D03*
X121629998Y-113259996D03*
D27*
X127129997Y-113259996D03*
D29*
X122049997Y-113259996D03*
D28*
X132349997Y-109059997D03*
D31*
X124589997Y-118339996D03*
X124589997Y-117759997D03*
D33*
X132229997Y-117159996D03*
D30*
X123319997Y-115799996D03*
D32*
X122029997Y-117159996D03*
D31*
X124589997Y-117259996D03*
X129669997Y-117259996D03*
X129669997Y-118339996D03*
X129669997Y-117759997D03*
D35*
X130939997Y-115799996D03*
D34*
X127129997Y-119159997D03*
%TD*%
D29*
%TO.C,SW16*%
X170309997Y-72299998D03*
D28*
X160009997Y-68099999D03*
X170449997Y-68099999D03*
D27*
X165229997Y-72299998D03*
D26*
X170729996Y-72299998D03*
X159729998Y-72299998D03*
D29*
X160149997Y-72299998D03*
D32*
X160129997Y-76199998D03*
D30*
X161419997Y-74839998D03*
D31*
X162689997Y-76799999D03*
X162689997Y-76299998D03*
X162689997Y-77379998D03*
D33*
X170329997Y-76199998D03*
D31*
X167769997Y-76799999D03*
X167769997Y-77379998D03*
D35*
X169039997Y-74839998D03*
D34*
X165229997Y-78199999D03*
D31*
X167769997Y-76299998D03*
%TD*%
D29*
%TO.C,SW7*%
X103000002Y-100879998D03*
D26*
X113580001Y-100879998D03*
D29*
X113160002Y-100879998D03*
D28*
X113300002Y-96679999D03*
D27*
X108080002Y-100879998D03*
D28*
X102860002Y-96679999D03*
D26*
X102580003Y-100879998D03*
D31*
X105540002Y-105379999D03*
X105540002Y-104879998D03*
X105540002Y-105959998D03*
D30*
X104270002Y-103419998D03*
D32*
X102980002Y-104779998D03*
D33*
X113180002Y-104779998D03*
D31*
X110620002Y-105379999D03*
X110620002Y-105959998D03*
D34*
X108080002Y-106779999D03*
D35*
X111890002Y-103419998D03*
D31*
X110620002Y-104879998D03*
%TD*%
D27*
%TO.C,SW4*%
X89020003Y-103729994D03*
D26*
X94520002Y-103729994D03*
X83520004Y-103729994D03*
D28*
X83800003Y-99529995D03*
X94240003Y-99529995D03*
D29*
X83940003Y-103729994D03*
X94100003Y-103729994D03*
D31*
X86480003Y-108809994D03*
X86480003Y-108229995D03*
X86480003Y-107729994D03*
D32*
X83920003Y-107629994D03*
D33*
X94120003Y-107629994D03*
D30*
X85210003Y-106269994D03*
D35*
X92830003Y-106269994D03*
D31*
X91560003Y-107729994D03*
X91560003Y-108809994D03*
X91560003Y-108229995D03*
D34*
X89020003Y-109629995D03*
%TD*%
D27*
%TO.C,SW19*%
X176943173Y-133552911D03*
D28*
X183072346Y-130847059D03*
D26*
X171630582Y-132129407D03*
D29*
X172036270Y-132238110D03*
X181850076Y-134867712D03*
D26*
X182255764Y-134976415D03*
D28*
X172988080Y-128144988D03*
D40*
X180860000Y-138639999D03*
D31*
X173325035Y-137242178D03*
X173174921Y-137802414D03*
D41*
X171007557Y-136000045D03*
D31*
X173454445Y-136759214D03*
D42*
X172605595Y-135020262D03*
D31*
X178081824Y-139117215D03*
D34*
X175416140Y-139251874D03*
D31*
X178361348Y-138074015D03*
D43*
X179965950Y-136992463D03*
D31*
X178231939Y-138556979D03*
%TD*%
M02*
