%TF.GenerationSoftware,KiCad,Pcbnew,(6.0.0)*%
%TF.CreationDate,2022-01-01T14:14:11+04:00*%
%TF.ProjectId,top plate,746f7020-706c-4617-9465-2e6b69636164,rev?*%
%TF.SameCoordinates,Original*%
%TF.FileFunction,Profile,NP*%
%FSLAX46Y46*%
G04 Gerber Fmt 4.6, Leading zero omitted, Abs format (unit mm)*
G04 Created by KiCad (PCBNEW (6.0.0)) date 2022-01-01 14:14:11*
%MOMM*%
%LPD*%
G01*
G04 APERTURE LIST*
%TA.AperFunction,Profile*%
%ADD10C,0.150000*%
%TD*%
G04 APERTURE END LIST*
D10*
X131914999Y-60624999D02*
G75*
G03*
X132414995Y-60124999I-7J500003D01*
G01*
X113365003Y-62977500D02*
X113365000Y-61124997D01*
X113865000Y-60624998D02*
G75*
G03*
X113365000Y-61124997I5J-500005D01*
G01*
X94815001Y-63477498D02*
G75*
G03*
X94314999Y-63977496I-9J-499993D01*
G01*
X179350001Y-128390000D02*
X161160001Y-128390000D01*
X227638441Y-118925371D02*
X208717932Y-108003383D01*
X208367932Y-54080000D02*
G75*
G03*
X207870000Y-53580000I-498967J1033D01*
G01*
X75765004Y-76817494D02*
G75*
G03*
X75265002Y-77317493I3J-500005D01*
G01*
X75265001Y-114367497D02*
X75265002Y-77317493D01*
X75765002Y-114867497D02*
X93815003Y-114867496D01*
X160744709Y-128299688D02*
X132415000Y-117727502D01*
X113865003Y-117727499D02*
G75*
G03*
X113364996Y-118227499I-7J-500000D01*
G01*
X197020001Y-133100000D02*
X179640001Y-128440000D01*
X208367932Y-56778383D02*
X208365214Y-107338575D01*
X208367932Y-54080000D02*
X208367932Y-56778383D01*
X132915003Y-53954999D02*
G75*
G03*
X132415001Y-54454997I-4J-499998D01*
G01*
X179640001Y-128440000D02*
G75*
G03*
X179350001Y-128390000I-311643J-941529D01*
G01*
X94315005Y-76317497D02*
X94314999Y-63977496D01*
X208365215Y-107338575D02*
G75*
G03*
X208717932Y-108003383I849995J24998D01*
G01*
X170515004Y-49694997D02*
X170515002Y-50594996D01*
X94315003Y-115367496D02*
X94315002Y-120077500D01*
X171015002Y-51094997D02*
X189065004Y-51094998D01*
X170515004Y-49694997D02*
G75*
G03*
X170015002Y-49194995I-500001J1D01*
G01*
X94315003Y-115367496D02*
G75*
G03*
X93815003Y-114867496I-500001J-1D01*
G01*
X113865000Y-60624998D02*
X131914999Y-60624999D01*
X190065004Y-53574998D02*
X207870000Y-53580000D01*
X132915003Y-53954999D02*
X150965005Y-53955000D01*
X160744709Y-128299688D02*
G75*
G03*
X161160001Y-128390000I415618J911184D01*
G01*
X113865003Y-117727499D02*
X132415000Y-117727502D01*
X215665195Y-142309848D02*
X228017932Y-120853383D01*
X112865004Y-63477498D02*
G75*
G03*
X113365003Y-62977500I-1J500000D01*
G01*
X189565000Y-53074998D02*
G75*
G03*
X190065004Y-53574998I500010J10D01*
G01*
X189564998Y-51594999D02*
G75*
G03*
X189065004Y-51094998I-500003J-2D01*
G01*
X197400001Y-133260000D02*
G75*
G03*
X197020001Y-133100000I-592196J-875217D01*
G01*
X93815003Y-76817496D02*
G75*
G03*
X94315005Y-76317497I7J499995D01*
G01*
X170515002Y-50594996D02*
G75*
G03*
X171015002Y-51094997I499998J-3D01*
G01*
X189564998Y-51594999D02*
X189565000Y-53074998D01*
X94315002Y-120077500D02*
G75*
G03*
X94815002Y-120577498I499995J-3D01*
G01*
X75765004Y-76817494D02*
X93815003Y-76817496D01*
X228017932Y-120853383D02*
G75*
G03*
X227638441Y-118925371I-1149997J774999D01*
G01*
X113365000Y-120077497D02*
X113364996Y-118227499D01*
X94815001Y-63477498D02*
X112865004Y-63477498D01*
X151964998Y-49194997D02*
X170015002Y-49194995D01*
X94815002Y-120577498D02*
X112865000Y-120577499D01*
X151465004Y-53454998D02*
X151464996Y-49694997D01*
X213737183Y-142689339D02*
X197400001Y-133260000D01*
X213737183Y-142689339D02*
G75*
G03*
X215665195Y-142309848I774999J1149997D01*
G01*
X75265001Y-114367497D02*
G75*
G03*
X75765002Y-114867497I500000J0D01*
G01*
X112865000Y-120577499D02*
G75*
G03*
X113365000Y-120077497I0J500000D01*
G01*
X132414995Y-60124999D02*
X132415001Y-54454997D01*
X151964998Y-49194997D02*
G75*
G03*
X151464996Y-49694997I3J-500005D01*
G01*
X150965005Y-53955000D02*
G75*
G03*
X151465004Y-53454998I1J499998D01*
G01*
M02*
