%TF.GenerationSoftware,KiCad,Pcbnew,(6.0.0)*%
%TF.CreationDate,2022-01-01T14:14:11+04:00*%
%TF.ProjectId,top plate,746f7020-706c-4617-9465-2e6b69636164,rev?*%
%TF.SameCoordinates,Original*%
%TF.FileFunction,Soldermask,Top*%
%TF.FilePolarity,Negative*%
%FSLAX46Y46*%
G04 Gerber Fmt 4.6, Leading zero omitted, Abs format (unit mm)*
G04 Created by KiCad (PCBNEW (6.0.0)) date 2022-01-01 14:14:11*
%MOMM*%
%LPD*%
G01*
G04 APERTURE LIST*
G04 Aperture macros list*
%AMHorizOval*
0 Thick line with rounded ends*
0 $1 width*
0 $2 $3 position (X,Y) of the first rounded end (center of the circle)*
0 $4 $5 position (X,Y) of the second rounded end (center of the circle)*
0 Add line between two ends*
20,1,$1,$2,$3,$4,$5,0*
0 Add two circle primitives to create the rounded ends*
1,1,$1,$2,$3*
1,1,$1,$4,$5*%
G04 Aperture macros list end*
%ADD10O,15.000000X2.000000*%
%ADD11O,2.000000X15.000000*%
%ADD12C,4.200000*%
%ADD13HorizOval,2.000000X-5.629165X3.250000X5.629165X-3.250000X0*%
%ADD14HorizOval,2.000000X3.250000X5.629165X-3.250000X-5.629165X0*%
%ADD15HorizOval,2.000000X6.278518X-1.682324X-6.278518X1.682324X0*%
%ADD16HorizOval,2.000000X-1.682324X-6.278518X1.682324X6.278518X0*%
G04 APERTURE END LIST*
D10*
%TO.C,REF\u002A\u002A*%
X122859998Y-82620000D03*
D11*
X129409998Y-89170000D03*
X116309998Y-89170000D03*
D10*
X122859998Y-95720000D03*
%TD*%
D12*
%TO.C,*%
X189530337Y-71255502D03*
%TD*%
D13*
%TO.C,REF\u002A\u002A*%
X217215000Y-120647534D03*
X210665000Y-131992466D03*
D14*
X219612466Y-129595000D03*
X208267534Y-123045000D03*
%TD*%
D11*
%TO.C,REF\u002A\u002A*%
X148470000Y-101560000D03*
D10*
X141920000Y-95010000D03*
D11*
X135370000Y-101560000D03*
D10*
X141920000Y-108110000D03*
%TD*%
D12*
%TO.C,*%
X204070337Y-120425503D03*
%TD*%
%TO.C,*%
X113260337Y-81405502D03*
%TD*%
D11*
%TO.C,REF\u002A\u002A*%
X129409998Y-108220003D03*
X116309998Y-108220003D03*
D10*
X122859998Y-114770003D03*
X122859998Y-101670003D03*
%TD*%
D12*
%TO.C,*%
X155540339Y-113305501D03*
%TD*%
D11*
%TO.C,REF\u002A\u002A*%
X154420000Y-77740000D03*
D10*
X160970000Y-71190000D03*
D11*
X167520000Y-77740000D03*
D10*
X160970000Y-84290000D03*
%TD*%
D11*
%TO.C,REF\u002A\u002A*%
X91319996Y-105369998D03*
D10*
X84769996Y-98819998D03*
X84769996Y-111919998D03*
D11*
X78219996Y-105369998D03*
%TD*%
D12*
%TO.C,*%
X151290000Y-71350000D03*
%TD*%
D11*
%TO.C,REF\u002A\u002A*%
X205620000Y-82130000D03*
X192520000Y-82130000D03*
D10*
X199070000Y-88680000D03*
X199070000Y-75580000D03*
%TD*%
%TO.C,REF\u002A\u002A*%
X199070000Y-56520000D03*
D11*
X192520000Y-63070000D03*
D10*
X199070000Y-69620000D03*
D11*
X205620000Y-63070000D03*
%TD*%
D12*
%TO.C,*%
X113260338Y-100365503D03*
%TD*%
D11*
%TO.C,REF\u002A\u002A*%
X116310000Y-70120000D03*
D10*
X122860000Y-63570000D03*
D11*
X129410000Y-70120000D03*
D10*
X122860000Y-76670000D03*
%TD*%
%TO.C,REF\u002A\u002A*%
X180020000Y-105250003D03*
X180020000Y-92150003D03*
D11*
X173470000Y-98700003D03*
X186570000Y-98700003D03*
%TD*%
D10*
%TO.C,REF\u002A\u002A*%
X160970002Y-65240000D03*
D11*
X167520002Y-58690000D03*
X154420002Y-58690000D03*
D10*
X160970002Y-52140000D03*
%TD*%
%TO.C,REF\u002A\u002A*%
X170490000Y-112340000D03*
D11*
X163940000Y-118890000D03*
X177040000Y-118890000D03*
D10*
X170490000Y-125440000D03*
%TD*%
%TO.C,REF\u002A\u002A*%
X103809996Y-104529997D03*
D11*
X110359996Y-111079997D03*
D10*
X103809996Y-117629997D03*
D11*
X97259996Y-111079997D03*
%TD*%
%TO.C,REF\u002A\u002A*%
X148470002Y-63459997D03*
D10*
X141920002Y-70009997D03*
X141920002Y-56909997D03*
D11*
X135370002Y-63459997D03*
%TD*%
%TO.C,REF\u002A\u002A*%
X97259998Y-72979994D03*
X110359998Y-72979994D03*
D10*
X103809998Y-66429994D03*
X103809998Y-79529994D03*
%TD*%
%TO.C,REF\u002A\u002A*%
X141920000Y-89059997D03*
D11*
X148470000Y-82509997D03*
D10*
X141920000Y-75959997D03*
D11*
X135370000Y-82509997D03*
%TD*%
D10*
%TO.C,REF\u002A\u002A*%
X103809996Y-98579994D03*
D11*
X110359996Y-92029994D03*
D10*
X103809996Y-85479994D03*
D11*
X97259996Y-92029994D03*
%TD*%
%TO.C,REF\u002A\u002A*%
X91319995Y-86320000D03*
D10*
X84769995Y-92870000D03*
D11*
X78219995Y-86320000D03*
D10*
X84769995Y-79770000D03*
%TD*%
D11*
%TO.C,REF\u002A\u002A*%
X173470000Y-79650000D03*
X186570000Y-79650000D03*
D10*
X180020000Y-86200000D03*
X180020000Y-73100000D03*
%TD*%
D11*
%TO.C,REF\u002A\u002A*%
X154420000Y-96790003D03*
D10*
X160970000Y-90240003D03*
X160970000Y-103340003D03*
D11*
X167520000Y-96790003D03*
%TD*%
D10*
%TO.C,REF\u002A\u002A*%
X180020002Y-67150000D03*
D11*
X173470002Y-60600000D03*
D10*
X180020002Y-54050000D03*
D11*
X186570002Y-60600000D03*
%TD*%
%TO.C,REF\u002A\u002A*%
X205620000Y-101170000D03*
D10*
X199070000Y-94620000D03*
X199070000Y-107720000D03*
D11*
X192520000Y-101170000D03*
%TD*%
D15*
%TO.C,REF\u002A\u002A*%
X193425265Y-115523186D03*
X190034735Y-128176814D03*
D16*
X185403186Y-120154735D03*
X198056814Y-123545265D03*
%TD*%
M02*
