M48
; DRILL file {KiCad (6.0.0)} date Sat Jan  1 14:14:09 2022
; FORMAT={-:-/ absolute / inch / decimal}
; #@! TF.CreationDate,2022-01-01T14:14:09+04:00
; #@! TF.GenerationSoftware,Kicad,Pcbnew,(6.0.0)
; #@! TF.FileFunction,Plated,1,2,PTH
FMAT,2
INCH
; #@! TA.AperFunction,Plated,PTH,ComponentDrill
T1C0.0394
; #@! TA.AperFunction,Plated,PTH,ComponentDrill
T2C0.0906
%
G90
G05
T2
X4.4591Y-3.2049
X4.4591Y-3.9514
X5.9563Y-2.8091
X6.1236Y-4.4608
X7.4618Y-2.8053
X8.0343Y-4.7412
T1
G00X3.0795Y-3.1425
M15
G01X3.0795Y-3.6543
M16
G05
G00X3.0795Y-3.8925
M15
G01X3.0795Y-4.4043
M16
G05
G00X3.0815Y-3.1406
M15
G01X3.5933Y-3.1406
M16
G05
G00X3.0815Y-3.6563
M15
G01X3.5933Y-3.6563
M16
G05
G00X3.0815Y-3.8906
M15
G01X3.5933Y-3.8906
M16
G05
G00X3.0815Y-4.4063
M15
G01X3.5933Y-4.4063
M16
G05
G00X3.5953Y-3.1425
M15
G01X3.5953Y-3.6543
M16
G05
G00X3.5953Y-3.8925
M15
G01X3.5953Y-4.4043
M16
G05
G00X3.8291Y-3.3673
M15
G01X3.8291Y-3.8791
M16
G05
G00X3.8291Y-4.1173
M15
G01X3.8291Y-4.6291
M16
G05
G00X3.8291Y-2.6173
M15
G01X3.8291Y-3.1291
M16
G05
G00X3.8311Y-3.3654
M15
G01X4.3429Y-3.3654
M16
G05
G00X3.8311Y-3.8811
M15
G01X4.3429Y-3.8811
M16
G05
G00X3.8311Y-4.1154
M15
G01X4.3429Y-4.1154
M16
G05
G00X3.8311Y-4.6311
M15
G01X4.3429Y-4.6311
M16
G05
G00X3.8311Y-2.6154
M15
G01X4.3429Y-2.6154
M16
G05
G00X3.8311Y-3.1311
M15
G01X4.3429Y-3.1311
M16
G05
G00X4.3449Y-3.3673
M15
G01X4.3449Y-3.8791
M16
G05
G00X4.3449Y-4.1173
M15
G01X4.3449Y-4.6291
M16
G05
G00X4.3449Y-2.6173
M15
G01X4.3449Y-3.1291
M16
G05
G00X4.5791Y-3.2547
M15
G01X4.5791Y-3.7665
M16
G05
G00X4.5791Y-4.0047
M15
G01X4.5791Y-4.5165
M16
G05
G00X4.5791Y-2.5047
M15
G01X4.5791Y-3.0165
M16
G05
G00X4.5811Y-3.2528
M15
G01X5.0929Y-3.2528
M16
G05
G00X4.5811Y-3.7685
M15
G01X5.0929Y-3.7685
M16
G05
G00X4.5811Y-4.0028
M15
G01X5.0929Y-4.0028
M16
G05
G00X4.5811Y-4.5185
M15
G01X5.0929Y-4.5185
M16
G05
G00X4.5811Y-2.5028
M15
G01X5.0929Y-2.5028
M16
G05
G00X4.5811Y-3.0185
M15
G01X5.0929Y-3.0185
M16
G05
G00X5.0949Y-3.2547
M15
G01X5.0949Y-3.7665
M16
G05
G00X5.0949Y-4.0047
M15
G01X5.0949Y-4.5165
M16
G05
G00X5.0949Y-2.5047
M15
G01X5.0949Y-3.0165
M16
G05
G00X5.3295Y-2.9925
M15
G01X5.3295Y-3.5043
M16
G05
G00X5.3295Y-3.7425
M15
G01X5.3295Y-4.2543
M16
G05
G00X5.3295Y-2.2425
M15
G01X5.3295Y-2.7543
M16
G05
G00X5.3315Y-2.9906
M15
G01X5.8433Y-2.9906
M16
G05
G00X5.3315Y-3.5063
M15
G01X5.8433Y-3.5063
M16
G05
G00X5.3315Y-3.7406
M15
G01X5.8433Y-3.7406
M16
G05
G00X5.3315Y-4.2563
M15
G01X5.8433Y-4.2563
M16
G05
G00X5.3315Y-2.2406
M15
G01X5.8433Y-2.2406
M16
G05
G00X5.3315Y-2.7563
M15
G01X5.8433Y-2.7563
M16
G05
G00X5.8453Y-2.9925
M15
G01X5.8453Y-3.5043
M16
G05
G00X5.8453Y-3.7425
M15
G01X5.8453Y-4.2543
M16
G05
G00X5.8453Y-2.2425
M15
G01X5.8453Y-2.7543
M16
G05
G00X6.0795Y-2.8047
M15
G01X6.0795Y-3.3165
M16
G05
G00X6.0795Y-3.5547
M15
G01X6.0795Y-4.0665
M16
G05
G00X6.0795Y-2.0547
M15
G01X6.0795Y-2.5665
M16
G05
G00X6.0815Y-2.8028
M15
G01X6.5933Y-2.8028
M16
G05
G00X6.0815Y-3.3185
M15
G01X6.5933Y-3.3185
M16
G05
G00X6.0815Y-3.5528
M15
G01X6.5933Y-3.5528
M16
G05
G00X6.0815Y-4.0685
M15
G01X6.5933Y-4.0685
M16
G05
G00X6.0815Y-2.0528
M15
G01X6.5933Y-2.0528
M16
G05
G00X6.0815Y-2.5685
M15
G01X6.5933Y-2.5685
M16
G05
G00X6.4543Y-4.4248
M15
G01X6.4543Y-4.9366
M16
G05
G00X6.5953Y-2.8047
M15
G01X6.5953Y-3.3165
M16
G05
G00X6.5953Y-3.5547
M15
G01X6.5953Y-4.0665
M16
G05
G00X6.5953Y-2.0547
M15
G01X6.5953Y-2.5665
M16
G05
G00X6.4563Y-4.4228
M15
G01X6.9681Y-4.4228
M16
G05
G00X6.4563Y-4.9386
M15
G01X6.9681Y-4.9386
M16
G05
G00X6.8295Y-2.8799
M15
G01X6.8295Y-3.3917
M16
G05
G00X6.8295Y-3.6299
M15
G01X6.8295Y-4.1417
M16
G05
G00X6.8295Y-2.1299
M15
G01X6.8295Y-2.6417
M16
G05
G00X6.9701Y-4.4248
M15
G01X6.9701Y-4.9366
M16
G05
G00X6.8315Y-2.878
M15
G01X7.3433Y-2.878
M16
G05
G00X6.8315Y-3.3937
M15
G01X7.3433Y-3.3937
M16
G05
G00X6.8315Y-3.628
M15
G01X7.3433Y-3.628
M16
G05
G00X6.8315Y-4.1437
M15
G01X7.3433Y-4.1437
M16
G05
G00X6.8315Y-2.128
M15
G01X7.3433Y-2.128
M16
G05
G00X6.8315Y-2.6437
M15
G01X7.3433Y-2.6437
M16
G05
G00X7.3656Y-4.4833
M15
G01X7.2331Y-4.9777
M16
G05
G00X7.3453Y-2.8799
M15
G01X7.3453Y-3.3917
M16
G05
G00X7.3453Y-3.6299
M15
G01X7.3453Y-4.1417
M16
G05
G00X7.3453Y-2.1299
M15
G01X7.3453Y-2.6417
M16
G05
G00X7.2345Y-4.9801
M15
G01X7.7289Y-5.1126
M16
G05
G00X7.5795Y-2.2272
M15
G01X7.5795Y-2.739
M16
G05
G00X7.5795Y-2.9776
M15
G01X7.5795Y-3.4894
M16
G05
G00X7.5795Y-3.7272
M15
G01X7.5795Y-4.239
M16
G05
G00X7.368Y-4.4819
M15
G01X7.8624Y-4.6144
M16
G05
G00X7.8637Y-4.6168
M15
G01X7.7313Y-5.1112
M16
G05
G00X7.5815Y-2.2252
M15
G01X8.0933Y-2.2252
M16
G05
G00X7.5815Y-2.7409
M15
G01X8.0933Y-2.7409
M16
G05
G00X7.5815Y-2.9756
M15
G01X8.0933Y-2.9756
M16
G05
G00X7.5815Y-3.4913
M15
G01X8.0933Y-3.4913
M16
G05
G00X7.5815Y-3.7252
M15
G01X8.0933Y-3.7252
M16
G05
G00X7.5815Y-4.2409
M15
G01X8.0933Y-4.2409
M16
G05
G00X8.0953Y-2.2272
M15
G01X8.0953Y-2.739
M16
G05
G00X8.0953Y-2.9776
M15
G01X8.0953Y-3.4894
M16
G05
G00X8.0953Y-3.7272
M15
G01X8.0953Y-4.239
M16
G05
G00X8.0716Y-5.0659
M15
G01X8.3275Y-4.6227
M16
G05
G00X8.0723Y-5.0686
M15
G01X8.5155Y-5.3245
M16
G05
G00X8.3302Y-4.622
M15
G01X8.7734Y-4.8779
M16
G05
G00X8.5182Y-5.3238
M15
G01X8.7741Y-4.8805
M16
G05
T0
M30
